<svg width="132" height="48" viewBox="0 0 132 48" fill="none" xmlns="http://www.w3.org/2000/svg">
<path fill-rule="evenodd" clip-rule="evenodd" d="M10.1076 35.5249C8.8529 34.8499 8 33.5246 8 32V16C8 13.7909 9.79086 12 12 12L18.0983 12L10.1076 35.5249ZM20.9641 12L12.812 36H11.9932C11.9954 36 11.9977 36 12 36H28.6518C30.861 36 32.6518 34.2091 32.6518 32V24.4533L21.9122 28.9067V26.1067L29.3131 23.0933L21.9122 20.08V17.28L32.6518 21.7333V16C32.6518 13.7909 30.861 12 28.6518 12L20.9641 12Z" fill="white"/>
<path d="M37.8417 30.9525H41.0594L42.1804 27.8603H47.7024L48.8234 30.9525H52.1657L46.8928 16.8052H43.1561L37.8417 30.9525ZM43.0108 25.4149L44.9206 20.0389L46.8513 25.4149H43.0108Z" fill="white"/>
<path d="M59.4158 16.8052H53.4993V30.9525H56.6132V26.2031H59.4158C60.4537 26.2031 61.3671 26.0212 62.156 25.6372C62.9449 25.2532 63.5676 24.7075 64.0036 24.0001C64.4395 23.2928 64.6679 22.4641 64.6679 21.5142C64.6679 20.5845 64.4395 19.7559 64.0036 19.0283C63.5676 18.321 62.9449 17.7753 62.156 17.3913C61.3671 17.0073 60.4537 16.8052 59.4158 16.8052ZM56.6132 23.6768V19.3315H59.1251C59.8517 19.3315 60.433 19.5336 60.8689 19.9176C61.2841 20.3218 61.5125 20.8473 61.5125 21.5142C61.5125 22.1812 61.2841 22.7066 60.8689 23.0906C60.433 23.4949 59.8517 23.6768 59.1251 23.6768H56.6132Z" fill="white"/>
<path d="M66.4131 16.8052V30.9525H69.5271V16.8052H66.4131Z" fill="white"/>
<path d="M77.2029 16.9264H71.4733V31.0738H73.8606V25.9403H77.2029C78.1993 25.9403 79.0712 25.7584 79.8393 25.3947C80.5867 25.0309 81.1887 24.5054 81.6039 23.8182C82.0191 23.1311 82.2267 22.3429 82.2267 21.4334C82.2267 20.5441 82.0191 19.7559 81.6039 19.0688C81.1887 18.3816 80.5867 17.8561 79.8393 17.4923C79.0712 17.1285 78.1993 16.9264 77.2029 16.9264ZM73.8606 23.9193V18.9475H77.016C77.8672 18.9475 78.5522 19.1698 79.0505 19.6144C79.5487 20.0591 79.7978 20.6654 79.7978 21.4334C79.7978 22.2014 79.5279 22.8077 79.0297 23.2523C78.5315 23.697 77.8464 23.9193 76.9953 23.9193H73.8606Z" fill="white"/>
<path d="M96.726 27.6987C97.3073 26.6073 97.6186 25.3744 97.6186 24.0001C97.6186 22.6258 97.3073 21.393 96.726 20.3016C96.124 19.2102 95.2936 18.3614 94.2141 17.7349C93.1346 17.1285 91.9306 16.8052 90.5604 16.8052C89.1903 16.8052 87.9655 17.1285 86.886 17.7349C85.8065 18.3614 84.9761 19.2102 84.3949 20.3016C83.7929 21.393 83.5022 22.6258 83.5022 24.0001C83.5022 25.3744 83.7929 26.6073 84.3949 27.6987C84.9761 28.79 85.8065 29.6591 86.886 30.2654C87.9655 30.8919 89.1903 31.1951 90.5604 31.1951C91.9306 31.1951 93.1346 30.8919 94.2141 30.2654C95.2936 29.6591 96.124 28.79 96.726 27.6987ZM86.5331 26.6679C86.1387 25.8797 85.9518 24.9904 85.9518 24.0001C85.9518 23.03 86.1387 22.1408 86.5331 21.3525C86.9068 20.5643 87.4465 19.958 88.1523 19.5134C88.8582 19.0688 89.647 18.8464 90.5604 18.8464C91.4531 18.8464 92.2419 19.0688 92.9478 19.5134C93.6536 19.958 94.1933 20.5643 94.5878 21.3525C94.9614 22.1408 95.169 23.03 95.169 24.0001C95.169 24.9904 94.9614 25.8797 94.5878 26.6679C94.1933 27.4561 93.6536 28.0624 92.9478 28.5071C92.2419 28.9517 91.4531 29.1538 90.5604 29.1538C89.647 29.1538 88.8582 28.9517 88.1523 28.5071C87.4465 28.0624 86.9068 27.4561 86.5331 26.6679Z" fill="white"/>
<path d="M112.377 27.6987C112.958 26.6073 113.269 25.3744 113.269 24.0001C113.269 22.6258 112.958 21.393 112.377 20.3016C111.775 19.2102 110.944 18.3614 109.865 17.7349C108.785 17.1285 107.581 16.8052 106.211 16.8052C104.841 16.8052 103.616 17.1285 102.537 17.7349C101.457 18.3614 100.627 19.2102 100.046 20.3016C99.4435 21.393 99.1529 22.6258 99.1529 24.0001C99.1529 25.3744 99.4435 26.6073 100.046 27.6987C100.627 28.79 101.457 29.6591 102.537 30.2654C103.616 30.8919 104.841 31.1951 106.211 31.1951C107.581 31.1951 108.785 30.8919 109.865 30.2654C110.944 29.6591 111.775 28.79 112.377 27.6987ZM102.184 26.6679C101.789 25.8797 101.603 24.9904 101.603 24.0001C101.603 23.03 101.789 22.1408 102.184 21.3525C102.557 20.5643 103.097 19.958 103.803 19.5134C104.509 19.0688 105.298 18.8464 106.211 18.8464C107.104 18.8464 107.893 19.0688 108.598 19.5134C109.304 19.958 109.844 20.5643 110.238 21.3525C110.612 22.1408 110.82 23.03 110.82 24.0001C110.82 24.9904 110.612 25.8797 110.238 26.6679C109.844 27.4561 109.304 28.0624 108.598 28.5071C107.893 28.9517 107.104 29.1538 106.211 29.1538C105.298 29.1538 104.509 28.9517 103.803 28.5071C103.097 28.0624 102.557 27.4561 102.184 26.6679Z" fill="white"/>
<path d="M115.364 31.0738H124V29.0123H117.751V16.9264H115.364V31.0738Z" fill="white"/>
</svg>
