<svg width="20" height="24" viewBox="0 0 20 24" fill="none" xmlns="http://www.w3.org/2000/svg">
<g clip-path="url(#clip0_261_4637)">
<path d="M19.1468 8.1816C19.0076 8.2896 16.55 9.6744 16.55 12.7536C16.55 16.3152 19.6772 17.5752 19.7708 17.6064C19.7564 17.6832 19.274 19.332 18.122 21.012C17.0948 22.4904 16.022 23.9664 14.39 23.9664C12.758 23.9664 12.338 23.0184 10.454 23.0184C8.61802 23.0184 7.96522 23.9976 6.47242 23.9976C4.97962 23.9976 3.93802 22.6296 2.74042 20.9496C1.35322 18.9768 0.232422 15.912 0.232422 13.0032C0.232422 8.3376 3.26602 5.8632 6.25162 5.8632C7.83802 5.8632 9.16042 6.9048 10.1564 6.9048C11.1044 6.9048 12.5828 5.8008 14.3876 5.8008C15.0716 5.8008 17.5292 5.8632 19.1468 8.1816ZM13.5308 3.8256C14.2772 2.94 14.8052 1.7112 14.8052 0.4824C14.8052 0.312 14.7908 0.1392 14.7596 0C13.5452 0.0456 12.1004 0.8088 11.2292 1.8192C10.5452 2.5968 9.90682 3.8256 9.90682 5.0712C9.90682 5.2584 9.93802 5.4456 9.95242 5.5056C10.0292 5.52 10.154 5.5368 10.2788 5.5368C11.3684 5.5368 12.7388 4.8072 13.5308 3.8256Z" fill="white"/>
</g>
<defs>
<clipPath id="clip0_261_4637">
<rect width="19.536" height="24" fill="white" transform="translate(0.232422)"/>
</clipPath>
</defs>
</svg>
