<svg width="32" height="32" viewBox="0 0 32 32" fill="none" xmlns="http://www.w3.org/2000/svg">
<path d="M22.6667 28.0535H9.33335C5.10669 28.0535 1.66669 24.6135 1.66669 20.3868V7.61346C1.66669 5.88013 2.46669 5.28013 2.94669 5.08013C3.42669 4.88013 4.41335 4.73346 5.64002 5.96013L9.09335 9.41346C9.22669 9.5468 9.44002 9.5468 9.56002 9.41346L14.3467 4.6268C15.2267 3.7468 16.7734 3.7468 17.64 4.6268L22.4267 9.41346C22.56 9.5468 22.7734 9.5468 22.8934 9.41346L26.3467 5.96013C27.5734 4.73346 28.56 4.89346 29.04 5.08013C29.52 5.28013 30.32 5.8668 30.32 7.61346V20.4001C30.3334 24.9735 27.2534 28.0535 22.6667 28.0535ZM3.74669 6.9868C3.70669 7.09346 3.66669 7.29346 3.66669 7.61346V20.4001C3.66669 23.5201 6.21335 26.0668 9.33335 26.0668H22.6667C26.1067 26.0668 28.3334 23.8401 28.3334 20.4001V7.61346C28.3334 7.29346 28.2934 7.1068 28.2534 7.00013C28.1467 7.05346 27.9867 7.16013 27.76 7.3868L24.3067 10.8401C23.4267 11.7201 21.88 11.7201 21.0134 10.8401L16.2267 6.05346C16.0934 5.92013 15.88 5.92013 15.76 6.05346L10.9867 10.8268C10.1067 11.7068 8.56002 11.7068 7.69335 10.8268L4.24002 7.37346C4.01335 7.1468 3.84002 7.04013 3.74669 6.9868Z" fill="#0B0B0B"/>
</svg>
