<svg width="32" height="32" viewBox="0 0 32 32" fill="none" xmlns="http://www.w3.org/2000/svg">
<path d="M21.2658 16C21.2658 24.8366 18.9082 32 16 32C13.0918 32 10.7342 24.8366 10.7342 16C10.7342 7.16344 13.0918 0 16 0C18.9082 0 21.2658 7.16344 21.2658 16ZM21.0864 17.3629C18.7993 25.8984 14.668 32.2075 11.8589 31.4548C9.04974 30.7021 8.62651 23.1726 10.9136 14.6371C13.2007 6.10166 17.3319 -0.207503 20.1411 0.545203C22.9502 1.29791 23.3734 8.82745 21.0864 17.3629ZM20.5603 18.6329C16.1421 26.2855 10.5186 31.3105 8.00001 29.8564C5.48141 28.4022 7.0214 21.0197 11.4397 13.367C15.858 5.71436 21.4814 0.689426 24 2.14354C26.5186 3.59766 24.9786 10.9802 20.5603 18.6329ZM19.7235 19.7235C13.4751 25.9719 6.74275 29.3701 4.68632 27.3137C2.62989 25.2573 6.02814 18.5249 12.2765 12.2765C18.5249 6.02809 25.2573 2.62983 27.3137 4.68627C29.3702 6.7427 25.9719 13.4751 19.7235 19.7235ZM18.633 20.5603C10.9803 24.9786 3.59776 26.5186 2.14365 24C0.689529 21.4814 5.71446 15.8579 13.3671 11.4396C21.0198 7.02135 28.4023 5.48136 29.8565 7.99996C31.3106 10.5186 26.2856 16.142 18.633 20.5603ZM16 10.7342C24.8366 10.7342 32 13.0918 32 16C32 18.9082 24.8366 21.2658 16 21.2658C7.16344 21.2658 1.27123e-07 18.9082 0 16C-1.27123e-07 13.0918 7.16344 10.7342 16 10.7342ZM17.3629 10.9136C25.8984 13.2006 32.2075 17.3319 31.4548 20.1411C30.7021 22.9502 23.1726 23.3734 14.6371 21.0864C6.10166 18.7993 -0.207503 14.668 0.545203 11.8589C1.29791 9.04973 8.82745 8.62651 17.3629 10.9136ZM18.6329 11.4397C26.2856 15.8579 31.3105 21.4814 29.8564 24C28.4023 26.5186 21.0198 24.9786 13.3671 20.5603C5.71441 16.142 0.689475 10.5186 2.14359 7.99999C3.59771 5.48138 10.9802 7.02137 18.6329 11.4397ZM19.7235 12.2765C25.9719 18.5249 29.3701 25.2572 27.3137 27.3137C25.2573 29.3701 18.5249 25.9719 12.2765 19.7235C6.02809 13.4751 2.62983 6.74269 4.68627 4.68626C6.7427 2.62983 13.4751 6.02808 19.7235 12.2765ZM20.5603 13.367C24.9786 21.0197 26.5186 28.4022 24 29.8564C21.4814 31.3105 15.858 26.2855 11.4397 18.6329C7.0214 10.9802 5.48141 3.59766 8.00001 2.14354C10.5186 0.689425 16.1421 5.71435 20.5603 13.367ZM14.6372 10.9136C23.1726 8.62654 30.7022 9.04976 31.4549 11.8589C32.2076 14.668 25.8984 18.7993 17.3629 21.0864C8.82749 23.3735 1.29794 22.9502 0.545234 20.1411C-0.207472 17.332 6.10169 13.2007 14.6372 10.9136ZM10.9137 17.3628C8.62659 8.82739 9.04981 1.29784 11.859 0.545138C14.6681 -0.207568 18.7994 6.1016 21.0864 14.6371C23.3735 23.1725 22.9503 30.7021 20.1412 31.4548C17.332 32.2075 13.2007 25.8983 10.9137 17.3628Z" stroke="#151515"/>
</svg>
