<svg width="32" height="32" viewBox="0 0 32 32" fill="none" xmlns="http://www.w3.org/2000/svg">
<path d="M22.6667 28.0535H9.33341C5.10675 28.0535 1.66675 24.6135 1.66675 20.3868V7.61346C1.66675 5.88013 2.46675 5.28013 2.94675 5.08013C3.42675 4.88013 4.41341 4.73346 5.64008 5.96013L9.09341 9.41346C9.22675 9.5468 9.44008 9.5468 9.56008 9.41346L14.3467 4.6268C15.2267 3.7468 16.7734 3.7468 17.6401 4.6268L22.4267 9.41346C22.5601 9.5468 22.7734 9.5468 22.8934 9.41346L26.3467 5.96013C27.5734 4.73346 28.5601 4.89346 29.0401 5.08013C29.5201 5.28013 30.3201 5.8668 30.3201 7.61346V20.4001C30.3334 24.9735 27.2534 28.0535 22.6667 28.0535ZM3.74675 6.9868C3.70675 7.09346 3.66675 7.29346 3.66675 7.61346V20.4001C3.66675 23.5201 6.21341 26.0668 9.33341 26.0668H22.6667C26.1067 26.0668 28.3334 23.8401 28.3334 20.4001V7.61346C28.3334 7.29346 28.2934 7.1068 28.2534 7.00013C28.1467 7.05346 27.9867 7.16013 27.7601 7.3868L24.3067 10.8401C23.4267 11.7201 21.8801 11.7201 21.0134 10.8401L16.2267 6.05346C16.0934 5.92013 15.8801 5.92013 15.7601 6.05346L10.9867 10.8268C10.1067 11.7068 8.56008 11.7068 7.69341 10.8268L4.24008 7.37346C4.01341 7.1468 3.84008 7.04013 3.74675 6.9868Z" fill="#151515"/>
</svg>
