<svg width="32" height="32" viewBox="0 0 32 32" fill="none" xmlns="http://www.w3.org/2000/svg">
<path d="M20.7658 16C20.7658 16.21 20.7645 16.4189 20.7618 16.6268C20.7106 16.8284 20.6578 17.0306 20.6034 17.2335C20.5491 17.4363 20.4937 17.6379 20.4373 17.838C20.3356 18.0194 20.2323 18.201 20.1273 18.3829C20.0223 18.5648 19.9166 18.7451 19.8103 18.9239C19.6652 19.0728 19.5184 19.2215 19.37 19.3699C19.2215 19.5184 19.0728 19.6652 18.9239 19.8104C18.7451 19.9166 18.5648 20.0223 18.383 20.1273C18.2011 20.2323 18.0194 20.3357 17.8379 20.4373C17.6378 20.4937 17.4363 20.5491 17.2335 20.6034C17.0307 20.6578 16.8285 20.7106 16.627 20.7618C16.419 20.7645 16.21 20.7658 16 20.7658C15.7901 20.7658 15.5811 20.7645 15.3732 20.7618C15.1717 20.7106 14.9694 20.6578 14.7665 20.6034C14.5637 20.549 14.3621 20.4936 14.1619 20.4373C13.9806 20.3356 13.7989 20.2323 13.6171 20.1273C13.4352 20.0223 13.2549 19.9167 13.0762 19.8104C12.9273 19.6652 12.7785 19.5184 12.63 19.3699C12.4816 19.2215 12.3348 19.0728 12.1897 18.9239C12.0834 18.7452 11.9777 18.5648 11.8727 18.3829C11.7677 18.201 11.6644 18.0194 11.5628 17.8381C11.5064 17.6379 11.451 17.4363 11.3966 17.2334C11.3423 17.0305 11.2894 16.8282 11.2382 16.6266C11.2355 16.4188 11.2342 16.2099 11.2342 16C11.2342 15.79 11.2355 15.581 11.2382 15.373C11.2894 15.1715 11.3422 14.9693 11.3965 14.7665C11.4509 14.5637 11.5063 14.3622 11.5627 14.162C11.6643 13.9806 11.7677 13.7989 11.8727 13.617C11.9777 13.4352 12.0833 13.2549 12.1895 13.0762C12.3347 12.9273 12.4816 12.7785 12.6301 12.63C12.7786 12.4815 12.9273 12.3347 13.0762 12.1896C13.2549 12.0833 13.4353 11.9776 13.6171 11.8726C13.799 11.7677 13.9806 11.6644 14.1619 11.5627C14.3621 11.5063 14.5637 11.4509 14.7666 11.3966C14.9694 11.3422 15.1716 11.2894 15.3732 11.2382C15.5811 11.2355 15.79 11.2342 16 11.2342C16.21 11.2342 16.4191 11.2355 16.627 11.2382C16.8285 11.2894 17.0307 11.3422 17.2335 11.3965C17.4363 11.4509 17.6378 11.5063 17.8379 11.5626C18.0193 11.6643 18.201 11.7677 18.3829 11.8727C18.5648 11.9777 18.7451 12.0833 18.9238 12.1896C19.0727 12.3347 19.2214 12.4815 19.3699 12.63C19.5185 12.7786 19.6653 12.9273 19.8105 13.0763C19.9167 13.255 20.0224 13.4352 20.1273 13.617C20.2324 13.7989 20.3357 13.9806 20.4374 14.1621C20.4938 14.3622 20.5491 14.5637 20.6035 14.7665C20.6578 14.9692 20.7106 15.1714 20.7618 15.3728C20.7645 15.5808 20.7658 15.7899 20.7658 16ZM21.5631 20.435C21.568 20.3834 21.5727 20.3316 21.5774 20.2797C21.6263 20.2617 21.6751 20.2437 21.7238 20.2257C21.7325 20.2878 21.741 20.3498 21.7494 20.4116C21.6875 20.4195 21.6254 20.4273 21.5631 20.435ZM22.7395 20.2714C22.721 20.1341 22.7016 19.9961 22.6814 19.8575C22.8116 19.8056 22.9407 19.7534 23.0689 19.7008C23.1322 19.8642 23.1937 20.0266 23.2535 20.1878C23.084 20.2166 22.9126 20.2445 22.7395 20.2714ZM24.2509 20.0027C24.1673 19.7736 24.0801 19.5424 23.9896 19.3094C24.2184 19.2087 24.4434 19.1068 24.6646 19.004C24.8431 19.2727 25.0137 19.5385 25.1762 19.8009C24.8757 19.8716 24.5671 19.9389 24.2509 20.0027ZM26.1897 19.5415C25.9957 19.2204 25.7901 18.8946 25.5733 18.5652C25.9258 18.3882 26.2668 18.209 26.5953 18.0279C26.839 18.2763 27.0697 18.5223 27.2869 18.7654C27.3884 18.8789 27.4867 18.9916 27.5818 19.1033C27.4436 19.1525 27.3021 19.2009 27.1574 19.2486C26.8478 19.3504 26.525 19.4482 26.1897 19.5415ZM25.8473 17.2964C25.5753 17.4425 25.2947 17.5874 25.0057 17.7308C24.8656 17.5312 24.7216 17.3304 24.5739 17.1288C24.7688 16.9722 24.9598 16.8156 25.1468 16.659C25.3888 16.8724 25.6224 17.085 25.8473 17.2964ZM28.0325 18.099C27.8591 17.905 27.6777 17.7094 27.4887 17.5125C27.7223 17.3713 27.9481 17.2293 28.1659 17.0867C28.3987 16.9343 28.623 16.7807 28.8383 16.6262C29.3683 17.0475 29.8079 17.4624 30.1506 17.8629C29.7159 18.1611 29.1839 18.4481 28.5628 18.718C28.3949 18.513 28.218 18.3065 28.0325 18.099ZM30.9182 17.2219C30.5698 16.8135 30.145 16.4048 29.6541 16C30.145 15.5952 30.5698 15.1865 30.9182 14.7781C31.3246 15.2082 31.5 15.6204 31.5 16C31.5 16.3796 31.3246 16.7918 30.9182 17.2219ZM29.1888 19.5339C29.7677 19.27 30.2839 18.9851 30.7261 18.6808C31.0074 19.2014 31.0701 19.645 30.9719 20.0117C30.8736 20.3783 30.5975 20.7311 30.0936 21.0414C29.8628 20.5567 29.5582 20.052 29.1888 19.5339ZM28.2387 19.9276C28.6416 20.4718 28.9589 20.9864 29.1863 21.4619C28.6892 21.6374 28.101 21.7769 27.4313 21.8768C27.3221 21.6354 27.2046 21.3902 27.0792 21.1418C26.962 20.9094 26.8374 20.6735 26.7057 20.4345C26.9679 20.3585 27.2228 20.2798 27.47 20.1984C27.7343 20.1114 27.9908 20.0211 28.2387 19.9276ZM26.1865 21.5924C26.2552 21.7283 26.321 21.8626 26.3839 21.9951C26.2377 22.0069 26.0885 22.017 25.9364 22.0256C25.6111 22.0439 25.2739 22.0547 24.9259 22.0581C24.8217 21.6977 24.7074 21.3298 24.5832 20.9555C24.9695 20.8758 25.3452 20.7909 25.7094 20.701C25.8805 21.004 26.0397 21.3014 26.1865 21.5924ZM23.5919 21.1442C23.6947 21.4499 23.7908 21.7508 23.8798 22.0463C23.5713 22.0368 23.2558 22.022 22.9339 22.0017C22.9123 21.7588 22.888 21.513 22.8609 21.2645C23.1079 21.2264 23.3516 21.1862 23.5919 21.1442ZM21.8702 21.4043C21.889 21.5785 21.9065 21.7512 21.9225 21.9224C21.7513 21.9064 21.5785 21.889 21.4043 21.8701C21.4219 21.7327 21.4389 21.5944 21.4553 21.4553C21.5945 21.4389 21.7328 21.4219 21.8702 21.4043ZM20.435 21.5631C20.4274 21.6254 20.4195 21.6874 20.4116 21.7493C20.3498 21.7409 20.2878 21.7324 20.2257 21.7237C20.2437 21.6751 20.2617 21.6263 20.2797 21.5774C20.3316 21.5727 20.3834 21.5679 20.435 21.5631ZM18.6903 22.495C18.7416 22.5039 18.7929 22.5127 18.8441 22.5214C18.8205 22.5795 18.7969 22.6375 18.7732 22.6952C18.7157 22.6711 18.658 22.6469 18.6003 22.6224C18.6303 22.5801 18.6603 22.5376 18.6903 22.495ZM17.9968 23.4521C18.1255 23.5074 18.2537 23.5619 18.3815 23.6153C18.3108 23.7756 18.2395 23.9339 18.1678 24.0902C18.0275 23.9907 17.8866 23.8892 17.7452 23.7858C17.8291 23.6756 17.913 23.5644 17.9968 23.4521ZM17.1288 24.5739C17.3304 24.7216 17.5311 24.8656 17.7308 25.0057C17.5873 25.2946 17.4424 25.5753 17.2964 25.8472C17.085 25.6223 16.8724 25.3887 16.6591 25.1468C16.8156 24.9598 16.9722 24.7688 17.1288 24.5739ZM16 25.9109C16.2621 26.2056 16.5235 26.4886 16.7835 26.7591C16.6066 27.0588 16.4286 27.3454 16.2501 27.618C16.1667 27.7454 16.0833 27.8695 16 27.9903C15.9167 27.8695 15.8334 27.7454 15.7499 27.618C15.5714 27.3453 15.3934 27.0587 15.2165 26.759C15.4765 26.4886 15.7379 26.2056 16 25.9109ZM14.9133 28.1658C15.0658 28.3986 15.2194 28.6229 15.3739 28.8382C14.9525 29.3682 14.5376 29.8079 14.137 30.1506C13.8389 29.7159 13.5519 29.1839 13.282 28.5628C13.487 28.3949 13.6935 28.2179 13.901 28.0325C14.095 27.8591 14.2907 27.6777 14.4875 27.4886C14.6287 27.7222 14.7707 27.948 14.9133 28.1658ZM12.4661 29.1887C12.73 29.7677 13.0148 30.2839 13.3192 30.7261C12.7985 31.0074 12.3549 31.0701 11.9883 30.9719C11.6216 30.8736 11.2688 30.5975 10.9586 30.0936C11.4432 29.8628 11.948 29.5582 12.4661 29.1887ZM12.0724 28.2387C11.5282 28.6416 11.0136 28.9589 10.538 29.1862C10.3625 28.6892 10.223 28.101 10.1231 27.4313C10.3646 27.3221 10.6098 27.2046 10.8582 27.0792C11.0906 26.962 11.3265 26.8374 11.5655 26.7057C11.6415 26.9679 11.7202 27.2228 11.8016 27.47C11.8885 27.7343 11.9789 27.9908 12.0724 28.2387ZM10.4076 26.1865C10.2717 26.2552 10.1374 26.321 10.0048 26.3839C9.99307 26.2377 9.98291 26.0885 9.97436 25.9364C9.95607 25.611 9.94523 25.2739 9.9419 24.9259C10.3023 24.8216 10.6701 24.7073 11.0445 24.5831C11.1242 24.9694 11.2091 25.3452 11.299 25.7094C10.996 25.8805 10.6986 26.0397 10.4076 26.1865ZM10.8558 23.5918C10.5501 23.6947 10.2492 23.7907 9.9536 23.8798C9.96313 23.5712 9.97799 23.2557 9.99821 22.9338C10.2412 22.9123 10.487 22.888 10.7355 22.8608C10.7736 23.1079 10.8138 23.3516 10.8558 23.5918ZM10.5957 21.8701C10.4215 21.889 10.2488 21.9064 10.0775 21.9224C10.0936 21.7512 10.111 21.5785 10.1298 21.4043C10.2673 21.4219 10.4055 21.4389 10.5447 21.4553C10.5611 21.5945 10.5781 21.7327 10.5957 21.8701ZM10.4369 20.435C10.3746 20.4273 10.3126 20.4195 10.2507 20.4116C10.259 20.3498 10.2675 20.2878 10.2762 20.2256C10.3249 20.2437 10.3737 20.2617 10.4226 20.2796C10.4273 20.3315 10.432 20.3833 10.4369 20.435ZM11.5884 21.7493C11.5805 21.6874 11.5726 21.6254 11.565 21.5631C11.6167 21.568 11.6685 21.5727 11.7204 21.5774C11.7383 21.6263 11.7563 21.6751 11.7744 21.7238C11.7122 21.7324 11.6503 21.741 11.5884 21.7493ZM11.7286 22.7394C11.8659 22.7209 12.0039 22.7015 12.1426 22.6814C12.1944 22.8115 12.2467 22.9407 12.2992 23.0688C12.1358 23.1321 11.9735 23.1937 11.8122 23.2535C11.7834 23.0839 11.7555 22.9126 11.7286 22.7394ZM13.2268 22.6952C13.2031 22.6375 13.1795 22.5796 13.156 22.5214C13.2072 22.5127 13.2584 22.5039 13.3097 22.495C13.3397 22.5376 13.3697 22.5801 13.3998 22.6224C13.342 22.6468 13.2844 22.6711 13.2268 22.6952ZM11.9973 24.2509C12.2265 24.1672 12.4576 24.0801 12.6907 23.9896C12.7914 24.2183 12.8933 24.4434 12.9961 24.6645C12.7274 24.843 12.4616 25.0137 12.1991 25.1762C12.1284 24.8757 12.0611 24.5671 11.9973 24.2509ZM13.8323 24.0902C13.7606 23.9339 13.6893 23.7756 13.6185 23.6153C13.7463 23.5618 13.8746 23.5074 14.0032 23.4521C14.087 23.5644 14.1709 23.6756 14.2549 23.7858C14.1134 23.8892 13.9726 23.9907 13.8323 24.0902ZM12.4585 26.1897C12.7797 25.9957 13.1054 25.7901 13.4349 25.5732C13.6118 25.9257 13.7911 26.2667 13.9722 26.5952C13.7237 26.8389 13.4777 27.0697 13.2346 27.2868C13.1211 27.3883 13.0084 27.4866 12.8967 27.5817C12.8475 27.4435 12.7991 27.3021 12.7514 27.1574C12.6496 26.8478 12.5518 26.525 12.4585 26.1897ZM14.7036 25.8472C14.5576 25.5752 14.4127 25.2946 14.2693 25.0057C14.4689 24.8656 14.6696 24.7216 14.8713 24.5739C15.0278 24.7687 15.1844 24.9598 15.341 25.1468C15.1276 25.3887 14.915 25.6223 14.7036 25.8472ZM16.3294 23.9722C16.2196 24.1087 16.1097 24.2432 16 24.3755C15.8903 24.2432 15.7805 24.1087 15.6706 23.9722C15.7802 23.8875 15.89 23.8018 16 23.715C16.11 23.8018 16.2198 23.8875 16.3294 23.9722ZM15.2023 23.0698C15.1529 23.1083 15.1035 23.1467 15.0541 23.1848C15.0163 23.1352 14.9785 23.0854 14.9407 23.0353C14.9879 23.0136 15.0351 22.9919 15.0824 22.97C15.1224 23.0034 15.1624 23.0366 15.2023 23.0698ZM16.9459 23.1848C16.8965 23.1467 16.8471 23.1083 16.7977 23.0698C16.8376 23.0366 16.8776 23.0034 16.9176 22.97C16.9649 22.9919 17.0121 23.0137 17.0593 23.0353C17.0215 23.0854 16.9837 23.1352 16.9459 23.1848ZM9.50498 18.6903C9.49607 18.7416 9.48726 18.7929 9.47856 18.844C9.42042 18.8205 9.36251 18.7969 9.30481 18.7732C9.32886 18.7157 9.35312 18.658 9.37758 18.6003C9.41992 18.6303 9.46239 18.6603 9.50498 18.6903ZM8.93116 19.7008C9.05931 19.7534 9.18847 19.8056 9.31861 19.8575C9.29844 19.9961 9.27909 20.1341 9.26054 20.2714C9.0874 20.2445 8.91603 20.2166 8.74651 20.1878C8.8063 20.0266 8.86786 19.8642 8.93116 19.7008ZM8.54789 17.9968C8.49253 18.1255 8.43813 18.2537 8.3847 18.3815C8.22441 18.3107 8.0661 18.2395 7.90982 18.1677C8.00929 18.0275 8.11076 17.8866 8.21419 17.7452C8.32436 17.8291 8.43561 17.913 8.54789 17.9968ZM7.42611 17.1288C7.27839 17.3304 7.13442 17.5311 6.99429 17.7308C6.70539 17.5873 6.42472 17.4424 6.15275 17.2964C6.37765 17.085 6.61125 16.8724 6.85318 16.659C7.04021 16.8156 7.23123 16.9722 7.42611 17.1288ZM6.08905 16C5.79432 16.2621 5.5114 16.5235 5.24091 16.7835C4.94122 16.6066 4.65466 16.4286 4.38201 16.2501C4.2546 16.1667 4.13049 16.0833 4.00972 16C4.1305 15.9167 4.25462 15.8333 4.38204 15.7499C4.65468 15.5714 4.94123 15.3934 5.24091 15.2165C5.51139 15.4765 5.79432 15.7379 6.08905 16ZM3.83422 14.9133C3.60143 15.0657 3.3771 15.2193 3.16183 15.3738C2.63176 14.9524 2.19214 14.5375 1.84941 14.137C2.28411 13.8389 2.81612 13.5519 3.43718 13.282C3.60512 13.487 3.78205 13.6934 3.96745 13.9009C4.14089 14.095 4.32229 14.2907 4.51136 14.4875C4.2778 14.6287 4.05197 14.7707 3.83422 14.9133ZM0.5 16C0.5 15.6204 0.675402 15.2082 1.08185 14.7781C1.43023 15.1865 1.85511 15.5952 2.34603 16C1.85511 16.4048 1.43023 16.8135 1.08186 17.2219C0.675404 16.7918 0.5 16.3796 0.5 16ZM1.02817 11.9883C1.1264 11.6217 1.40252 11.2688 1.90641 10.9586C2.1372 11.4433 2.44182 11.948 2.81123 12.4661C2.2323 12.73 1.71612 13.0148 1.27393 13.3191C0.992647 12.7985 0.929929 12.3549 1.02817 11.9883ZM4.71313 13.2346C4.61165 13.1211 4.51334 13.0084 4.41823 12.8967C4.55646 12.8475 4.69793 12.7991 4.8426 12.7514C5.15217 12.6496 5.47502 12.5518 5.81027 12.4585C6.00426 12.7797 6.2099 13.1054 6.42675 13.4349C6.07422 13.6118 5.73328 13.791 5.40473 13.9721C5.16103 13.7237 4.93029 13.4777 4.71313 13.2346ZM7.33542 12.9961C7.15694 12.7274 6.98632 12.4615 6.82379 12.1991C7.1243 12.1284 7.43291 12.0611 7.74912 11.9973C7.83281 12.2264 7.91992 12.4576 8.01043 12.6906C7.78167 12.7914 7.55661 12.8932 7.33542 12.9961ZM8.93119 12.2992C8.86789 12.1358 8.80634 11.9734 8.74655 11.8122C8.91609 11.7834 9.08747 11.7555 9.26062 11.7286C9.27917 11.8659 9.29852 12.0039 9.31869 12.1425C9.18853 12.1944 9.05936 12.2466 8.93119 12.2992ZM10.2763 11.7743C10.2676 11.7122 10.2591 11.6502 10.2508 11.5884C10.3126 11.5805 10.3747 11.5726 10.4369 11.565C10.432 11.6167 10.4273 11.6684 10.4226 11.7203C10.3737 11.7383 10.325 11.7563 10.2763 11.7743ZM9.30484 13.2268C9.36256 13.2031 9.42049 13.1795 9.47864 13.1559C9.48734 13.2071 9.49614 13.2583 9.50505 13.3096C9.46244 13.3396 9.41996 13.3697 9.37761 13.3997C9.35315 13.342 9.3289 13.2843 9.30484 13.2268ZM8.38473 13.6185C8.43817 13.7463 8.49257 13.8745 8.54793 14.0032C8.43562 14.087 8.32437 14.1709 8.21418 14.2548C8.11075 14.1134 8.00928 13.9725 7.90981 13.8323C8.0661 13.7605 8.22443 13.6892 8.38473 13.6185ZM6.99428 14.2692C7.1344 14.4689 7.27837 14.6696 7.4261 14.8712C7.23122 15.0278 7.0402 15.1844 6.85318 15.3409C6.61125 15.1276 6.37765 14.915 6.15274 14.7036C6.42471 14.5576 6.70537 14.4127 6.99428 14.2692ZM8.0278 16.3294C7.89128 16.2196 7.7568 16.1097 7.62441 16C7.7568 15.8903 7.89128 15.7804 8.02779 15.6706C8.11249 15.7802 8.19824 15.89 8.28502 16C8.19824 16.11 8.11249 16.2198 8.0278 16.3294ZM8.81518 16.9459C8.85331 16.8965 8.89167 16.8471 8.93024 16.7977C8.96336 16.8376 8.99662 16.8776 9.03 16.9176C9.0081 16.9649 8.98633 17.0121 8.96468 17.0593C8.91462 17.0215 8.86479 16.9837 8.81518 16.9459ZM9.03003 15.0824C8.99664 15.1224 8.96337 15.1624 8.93024 15.2023C8.89166 15.1529 8.8533 15.1035 8.81517 15.0541C8.86479 15.0163 8.91464 14.9785 8.96471 14.9407C8.98636 14.9879 9.00813 15.0351 9.03003 15.0824ZM11.7203 10.4226C11.6684 10.4273 11.6166 10.432 11.565 10.4369C11.5727 10.3746 11.5805 10.3126 11.5884 10.2507C11.6502 10.259 11.7122 10.2675 11.7743 10.2762C11.7563 10.3249 11.7383 10.3737 11.7203 10.4226ZM12.1425 9.3186C12.0039 9.29843 11.8659 9.27908 11.7286 9.26054C11.7555 9.08739 11.7834 8.91603 11.8122 8.74651C11.9734 8.80629 12.1358 8.86784 12.2992 8.93114C12.2466 9.0593 12.1944 9.18846 12.1425 9.3186ZM12.6906 8.01038C12.4576 7.91988 12.2264 7.83276 11.9973 7.74908C12.0611 7.43289 12.1284 7.12428 12.1991 6.82378C12.4615 6.9863 12.7273 7.15692 12.996 7.3354C12.8932 7.55657 12.7914 7.78162 12.6906 8.01038ZM13.4348 6.42673C13.1054 6.20988 12.7797 6.00425 12.4585 5.81026C12.5518 5.47501 12.6496 5.15216 12.7514 4.8426C12.7991 4.69792 12.8475 4.55642 12.8967 4.41818C13.0084 4.51329 13.1211 4.6116 13.2346 4.71308C13.4777 4.93023 13.7237 5.16096 13.9721 5.40466C13.791 5.73322 13.6118 6.07418 13.4348 6.42673ZM13.901 3.9674C13.6935 3.782 13.487 3.60506 13.2821 3.43713C13.5519 2.81605 13.8389 2.28403 14.1371 1.84933C14.5376 2.19204 14.9525 2.63165 15.3739 3.16171C15.2193 3.37701 15.0657 3.60137 14.9133 3.83419C14.7707 4.05193 14.6287 4.27774 14.4875 4.51129C14.2907 4.32222 14.095 4.14083 13.901 3.9674ZM16 2.34591C15.5953 1.85501 15.1865 1.43014 14.7781 1.08178C15.2082 0.675382 15.6205 0.5 16 0.5C16.3796 0.5 16.7918 0.675396 17.2219 1.08183C16.8135 1.43018 16.4048 1.85503 16 2.34591ZM16.6262 3.16171C17.0476 2.63168 17.4625 2.19209 17.863 1.84939C18.1611 2.28408 18.4481 2.81609 18.7179 3.43714C18.513 3.60508 18.3066 3.782 18.0991 3.9674C17.905 4.14082 17.7094 4.3222 17.5126 4.51126C17.3714 4.2777 17.2294 4.05187 17.0868 3.83413C16.9343 3.60133 16.7807 3.37699 16.6262 3.16171ZM18.7654 4.71308C18.8789 4.6116 18.9916 4.5133 19.1033 4.41819C19.1525 4.55643 19.2009 4.69792 19.2486 4.8426C19.3504 5.15217 19.4482 5.47502 19.5415 5.81027C19.2204 6.00424 18.8947 6.20987 18.5652 6.4267C18.3883 6.07415 18.209 5.7332 18.0279 5.40463C18.2763 5.16094 18.5224 4.93022 18.7654 4.71308ZM19.004 7.33537C19.2727 7.15691 19.5385 6.9863 19.8009 6.82379C19.8716 7.12428 19.9389 7.43288 20.0027 7.74907C19.7736 7.83275 19.5424 7.91986 19.3095 8.01035C19.2087 7.7816 19.1068 7.55655 19.004 7.33537ZM19.7009 8.93112C19.8643 8.86782 20.0266 8.80628 20.1878 8.7465C20.2166 8.91604 20.2445 9.08742 20.2714 9.26058C20.1341 9.27912 19.9962 9.29846 19.8576 9.31863C19.8057 9.18847 19.7535 9.05929 19.7009 8.93112ZM20.2257 10.2762C20.2878 10.2676 20.3498 10.2591 20.4116 10.2507C20.4195 10.3126 20.4274 10.3746 20.435 10.4369C20.3834 10.4321 20.3316 10.4273 20.2798 10.4226C20.2618 10.3737 20.2438 10.3249 20.2257 10.2762ZM18.7733 9.30477C18.797 9.36248 18.8206 9.42042 18.8442 9.47857C18.793 9.48728 18.7417 9.49609 18.6904 9.505C18.6604 9.46239 18.6303 9.41991 18.6003 9.37756C18.6581 9.35309 18.7157 9.32883 18.7733 9.30477ZM18.3816 8.38465C18.2538 8.43809 18.1255 8.4925 17.9968 8.54787C17.913 8.43558 17.8292 8.32433 17.7452 8.21415C17.8867 8.11071 18.0275 8.00923 18.1678 7.90975C18.2396 8.06603 18.3108 8.22435 18.3816 8.38465ZM17.7308 6.99422C17.5312 7.13436 17.3305 7.27834 17.1288 7.42607C16.9723 7.23118 16.8156 7.04015 16.6591 6.85312C16.8724 6.61117 17.085 6.37756 17.2965 6.15264C17.4425 6.42462 17.5874 6.7053 17.7308 6.99422ZM16 7.62435C16.1098 7.75675 16.2196 7.89124 16.3294 8.02776C16.2198 8.11246 16.11 8.19822 16 8.28501C15.89 8.19822 15.7802 8.11247 15.6706 8.02777C15.7804 7.89124 15.8903 7.75675 16 7.62435ZM16.7835 5.2408C16.5236 5.5113 16.2622 5.79424 16 6.08899C15.7379 5.79425 15.4765 5.51132 15.2165 5.24083C15.3934 4.94117 15.5713 4.65464 15.7499 4.38201C15.8333 4.25456 15.9167 4.1304 16 4.00959C16.0833 4.13038 16.1667 4.25452 16.2502 4.38194C16.4287 4.65458 16.6067 4.94113 16.7835 5.2408ZM14.2692 6.99425C14.4127 6.70533 14.5576 6.42465 14.7036 6.15267C14.915 6.37758 15.1276 6.61118 15.341 6.85312C15.1844 7.04015 15.0278 7.23118 14.8712 7.42608C14.6696 7.27835 14.4688 7.13438 14.2692 6.99425ZM13.8322 7.90978C13.9725 8.00925 14.1134 8.11072 14.2548 8.21416C14.1709 8.32434 14.087 8.43559 14.0032 8.54788C13.8745 8.49252 13.7462 8.43812 13.6184 8.38468C13.6892 8.22438 13.7605 8.06606 13.8322 7.90978ZM13.2268 9.30479C13.2843 9.32885 13.342 9.35311 13.3997 9.37757C13.3697 9.41991 13.3397 9.46237 13.3097 9.50497C13.2583 9.49605 13.2071 9.48725 13.1559 9.47855C13.1795 9.42041 13.2031 9.36249 13.2268 9.30479ZM15.0541 8.81515C15.1035 8.85329 15.1529 8.89165 15.2023 8.93023C15.1624 8.96336 15.1224 8.99661 15.0824 9.03C15.0351 9.0081 14.9879 8.98632 14.9407 8.96467C14.9785 8.9146 15.0163 8.86476 15.0541 8.81515ZM16.9176 9.02999C16.8776 8.99661 16.8376 8.96336 16.7977 8.93023C16.8471 8.89165 16.8966 8.85328 16.9459 8.81515C16.9837 8.86475 17.0215 8.91459 17.0593 8.96465C17.0121 8.98631 16.9649 9.00809 16.9176 9.02999ZM21.5774 11.7203C21.5727 11.6684 21.568 11.6166 21.5631 11.565C21.6254 11.5726 21.6874 11.5805 21.7493 11.5884C21.7409 11.6502 21.7324 11.7122 21.7237 11.7743C21.6751 11.7562 21.6263 11.7382 21.5774 11.7203ZM22.6814 12.1425C22.7015 12.0038 22.7209 11.8659 22.7394 11.7286C22.9126 11.7555 23.0839 11.7834 23.2535 11.8122C23.1937 11.9734 23.1321 12.1358 23.0688 12.2991C22.9407 12.2466 22.8115 12.1943 22.6814 12.1425ZM23.5919 10.8558C23.3516 10.8138 23.1079 10.7736 22.8608 10.7355C22.8879 10.487 22.9122 10.2412 22.9338 9.99824C23.2557 9.97802 23.5712 9.96316 23.8798 9.95363C23.7907 10.2492 23.6947 10.5501 23.5919 10.8558ZM23.9896 12.6906C24.0801 12.4576 24.1672 12.2264 24.2509 11.9973C24.5671 12.0611 24.8757 12.1284 25.1762 12.1991C25.0137 12.4615 24.8431 12.7273 24.6646 12.996C24.4434 12.8932 24.2184 12.7913 23.9896 12.6906ZM25.5733 13.4348C25.7901 13.1054 25.9958 12.7797 26.1897 12.4585C26.525 12.5518 26.8478 12.6496 27.1574 12.7514C27.3021 12.7991 27.4436 12.8475 27.5818 12.8967C27.4867 13.0084 27.3884 13.121 27.2869 13.2346C27.0698 13.4776 26.839 13.7237 26.5953 13.9721C26.2668 13.791 25.9258 13.6118 25.5733 13.4348ZM30.7261 13.3192C30.2839 13.0149 29.7677 12.73 29.1888 12.4661C29.5582 11.948 29.8628 11.4433 30.0936 10.9586C30.5975 11.2689 30.8737 11.6217 30.9719 11.9883C31.0701 12.3549 31.0074 12.7986 30.7261 13.3192ZM28.0326 13.9009C28.218 13.6934 28.3949 13.487 28.5628 13.282C29.1839 13.5519 29.7159 13.8389 30.1506 14.1371C29.8079 14.5376 29.3683 14.9525 28.8383 15.3738C28.623 15.2193 28.3986 15.0657 28.1658 14.9133C27.9481 14.7707 27.7223 14.6287 27.4887 14.4875C27.6778 14.2906 27.8592 14.095 28.0326 13.9009ZM25.0058 14.2692C25.2947 14.4126 25.5753 14.5575 25.8473 14.7036C25.6224 14.915 25.3888 15.1276 25.1468 15.3409C24.9598 15.1844 24.7688 15.0278 24.5739 14.8712C24.7216 14.6696 24.8656 14.4688 25.0058 14.2692ZM26.7591 16.7835C26.4887 16.5235 26.2057 16.2621 25.911 16C26.2057 15.7379 26.4887 15.4765 26.7592 15.2165C27.0588 15.3934 27.3454 15.5713 27.618 15.7499C27.7455 15.8333 27.8696 15.9167 27.9904 16C27.8696 16.0833 27.7455 16.1667 27.6181 16.2501C27.3454 16.4287 27.0588 16.6066 26.7591 16.7835ZM23.9722 15.6706C24.1087 15.7804 24.2432 15.8903 24.3756 16C24.2432 16.1097 24.1087 16.2196 23.9722 16.3294C23.8875 16.2198 23.8018 16.11 23.715 16C23.8018 15.89 23.8875 15.7802 23.9722 15.6706ZM23.0698 16.7977C23.1083 16.8471 23.1467 16.8965 23.1848 16.9459C23.1352 16.9837 23.0854 17.0215 23.0353 17.0593C23.0137 17.0121 22.9919 16.9649 22.97 16.9176C23.0034 16.8776 23.0366 16.8376 23.0698 16.7977ZM23.6153 18.3815C23.5619 18.2537 23.5075 18.1255 23.4521 17.9968C23.5644 17.913 23.6756 17.8291 23.7858 17.7452C23.8893 17.8866 23.9907 18.0275 24.0902 18.1678C23.9339 18.2395 23.7756 18.3108 23.6153 18.3815ZM23.1848 15.0541C23.1467 15.1035 23.1084 15.1529 23.0698 15.2023C23.0366 15.1624 23.0034 15.1224 22.97 15.0824C22.9919 15.0351 23.0137 14.9879 23.0353 14.9407C23.0854 14.9785 23.1352 15.0163 23.1848 15.0541ZM23.7858 14.2548C23.6756 14.1709 23.5644 14.087 23.4521 14.0032C23.5075 13.8745 23.5619 13.7462 23.6153 13.6184C23.7756 13.6892 23.9339 13.7605 24.0902 13.8322C23.9908 13.9725 23.8893 14.1134 23.7858 14.2548ZM22.5214 13.1559C22.5796 13.1794 22.6375 13.203 22.6952 13.2267C22.6711 13.2843 22.6469 13.3419 22.6224 13.3997C22.5801 13.3697 22.5376 13.3397 22.495 13.3097C22.5039 13.2583 22.5127 13.2071 22.5214 13.1559ZM22.5215 18.8441C22.5128 18.7929 22.504 18.7416 22.4951 18.6903C22.5376 18.6603 22.5801 18.6303 22.6224 18.6003C22.6469 18.658 22.6712 18.7157 22.6952 18.7732C22.6375 18.7969 22.5796 18.8205 22.5215 18.8441ZM21.0413 1.90639C20.5567 2.13718 20.0519 2.44179 19.5339 2.81119C19.27 2.23227 18.9851 1.71609 18.6808 1.27391C19.2014 0.992644 19.6451 0.929931 20.0117 1.02817C20.3783 1.1264 20.7311 1.40251 21.0413 1.90639ZM19.9276 3.76126C20.4718 3.35833 20.9863 3.04108 21.4619 2.8137C21.6374 3.31077 21.7769 3.89894 21.8768 4.5687C21.6354 4.67786 21.3902 4.79533 21.1418 4.9207C20.9094 5.03799 20.6735 5.16258 20.4345 5.29426C20.3585 5.03211 20.2798 4.77722 20.1984 4.52998C20.1114 4.26566 20.0211 4.0092 19.9276 3.76126ZM21.5924 5.81342C21.7284 5.7448 21.8626 5.67901 21.9951 5.61606C22.0069 5.76232 22.017 5.91152 22.0256 6.06359C22.0439 6.38896 22.0547 6.7261 22.0581 7.07406C21.6977 7.17833 21.3299 7.29266 20.9555 7.41684C20.8758 7.03053 20.7909 6.65481 20.701 6.29058C21.0041 6.11947 21.3015 5.96028 21.5924 5.81342ZM21.1442 8.40812C21.4499 8.30526 21.7508 8.20926 22.0464 8.1202C22.0368 8.42875 22.022 8.74427 22.0017 9.06621C21.7588 9.08774 21.513 9.11207 21.2645 9.13918C21.2264 8.89213 21.1862 8.64838 21.1442 8.40812ZM24.1619 8.94617C23.7868 8.95361 23.4019 8.96885 23.0081 8.9919C23.0311 8.59813 23.0464 8.21322 23.0538 7.83813C23.3908 7.75127 23.7193 7.67448 24.0384 7.60793C24.1874 7.57683 24.3342 7.54803 24.4785 7.52152C24.4519 7.66582 24.4231 7.81255 24.392 7.96164C24.3255 8.28069 24.2487 8.60917 24.1619 8.94617ZM24.6352 6.47922C24.3738 6.52217 24.1065 6.57218 23.8342 6.629C23.5793 6.68215 23.3192 6.74144 23.0542 6.80676C23.0487 6.5339 23.0386 6.26733 23.024 6.00747C23.0084 5.72964 22.9875 5.45855 22.9614 5.19485C23.5913 4.94649 24.1705 4.77322 24.6887 4.67667C24.7296 5.20221 24.7121 5.80644 24.6352 6.47922ZM25.371 8.16584C25.4278 7.89345 25.4778 7.62621 25.5208 7.36473C26.1936 7.28789 26.7978 7.27042 27.3233 7.31128C27.2268 7.82951 27.0535 8.40864 26.8052 9.03863C26.5415 9.01244 26.2704 8.99158 25.9926 8.97596C25.7327 8.96136 25.4661 8.9513 25.1932 8.9458C25.2585 8.68078 25.3178 8.42066 25.371 8.16584ZM24.5173 3.69142C23.9894 3.78892 23.423 3.95251 22.827 4.17527C22.7219 3.54772 22.5803 2.9754 22.4008 2.4695C22.9765 2.33254 23.4213 2.38677 23.75 2.57656C24.0787 2.76634 24.3481 3.12438 24.5173 3.69142ZM26.9602 5.03982C27.2286 5.30821 27.3961 5.72375 27.4128 6.31524C26.8777 6.2728 26.2882 6.28421 25.6549 6.34511C25.7158 5.71177 25.7272 5.12233 25.6847 4.58722C26.2762 4.60393 26.6918 4.77143 26.9602 5.03982ZM28.3086 7.48268C28.8756 7.65191 29.2337 7.92125 29.4234 8.24996C29.6132 8.57868 29.6675 9.02343 29.5305 9.59912C29.0246 9.41962 28.4523 9.27809 27.8248 9.17299C28.0475 8.57697 28.2111 8.01055 28.3086 7.48268ZM27.4313 10.1232C28.1011 10.2231 28.6892 10.3626 29.1863 10.5381C28.9589 11.0136 28.6417 11.5282 28.2387 12.0724C27.9908 11.9789 27.7343 11.8886 27.47 11.8016C27.2228 11.7202 26.9679 11.6415 26.7057 11.5655C26.8374 11.3265 26.962 11.0906 27.0793 10.8582C27.2047 10.6098 27.3222 10.3646 27.4313 10.1232ZM25.9365 9.97439C26.0885 9.98293 26.2377 9.99309 26.384 10.0048C26.321 10.1374 26.2552 10.2716 26.1866 10.4076C26.0397 10.6985 25.8805 10.9959 25.7094 11.299C25.3452 11.2091 24.9695 11.1242 24.5831 11.0445C24.7073 10.6701 24.8217 10.3023 24.9259 9.94192C25.2739 9.94525 25.6111 9.9561 25.9365 9.97439ZM21.9224 10.0776C21.9064 10.2488 21.889 10.4215 21.8701 10.5957C21.7327 10.5781 21.5944 10.5611 21.4553 10.5447C21.4389 10.4056 21.4219 10.2673 21.4043 10.1299C21.5785 10.111 21.7512 10.0936 21.9224 10.0776ZM3.7613 12.0724C3.35835 11.5282 3.04111 11.0136 2.81372 10.538C3.31078 10.3626 3.89894 10.223 4.56868 10.1231C4.67784 10.3646 4.79532 10.6098 4.9207 10.8582C5.03799 11.0906 5.16258 11.3265 5.29426 11.5655C5.03211 11.6415 4.77722 11.7202 4.52998 11.8016C4.26567 11.8885 4.00923 11.9789 3.7613 12.0724ZM5.81342 10.4076C5.7448 10.2716 5.679 10.1373 5.61604 10.0048C5.7623 9.99306 5.91151 9.98291 6.06359 9.97436C6.38898 9.95607 6.72612 9.94522 7.07409 9.94189C7.17837 10.3023 7.2927 10.6701 7.41688 11.0445C7.03056 11.1242 6.65482 11.2091 6.29058 11.299C6.11947 10.9959 5.96028 10.6985 5.81342 10.4076ZM8.40817 10.8558C8.30531 10.5501 8.2093 10.2492 8.12023 9.9536C8.42879 9.96313 8.74431 9.97798 9.06625 9.99821C9.08779 10.2412 9.11211 10.487 9.13923 10.7355C8.89218 10.7736 8.64843 10.8137 8.40817 10.8558ZM10.7355 9.13914C10.487 9.11203 10.2412 9.08771 9.99829 9.06617C9.97807 8.74426 9.96321 8.42875 9.95368 8.12022C10.2492 8.20927 10.5501 8.30528 10.8558 8.40813C10.8138 8.64837 10.7736 8.89211 10.7355 9.13914ZM10.1299 10.5957C10.1111 10.4215 10.0936 10.2488 10.0776 10.0775C10.2488 10.0936 10.4215 10.111 10.5957 10.1298C10.5781 10.2672 10.5611 10.4055 10.5447 10.5447C10.4056 10.5611 10.2673 10.5781 10.1299 10.5957ZM8.94622 7.83815C8.95366 8.21323 8.96889 8.59811 8.99195 8.99187C8.59817 8.96881 8.21326 8.95358 7.83816 8.94614C7.75132 8.60915 7.67453 8.28068 7.60798 7.96164C7.57688 7.81256 7.54808 7.66583 7.52157 7.52154C7.66587 7.54805 7.8126 7.57685 7.96169 7.60795C8.28074 7.67451 8.60922 7.7513 8.94622 7.83815ZM11.0445 7.41684C10.6702 7.29267 10.3023 7.17834 9.94197 7.07408C9.9453 6.72609 9.95615 6.38893 9.97444 6.06352C9.98299 5.91148 9.99314 5.7623 10.0049 5.61607C10.1374 5.67901 10.2716 5.7448 10.4076 5.81342C10.6985 5.96028 10.9959 6.11946 11.299 6.29057C11.2091 6.65481 11.1242 7.03053 11.0445 7.41684ZM9.03868 5.19485C9.01249 5.45853 8.99163 5.7296 8.97602 6.0074C8.96141 6.26729 8.95135 6.53389 8.94585 6.80678C8.68083 6.74146 8.4207 6.68218 8.16589 6.62903C7.8935 6.57221 7.62626 6.52219 7.36478 6.47924C7.28794 5.80645 7.27047 5.20222 7.31133 4.67667C7.82956 4.77322 8.40869 4.94649 9.03868 5.19485ZM10.8582 4.9207C10.6098 4.79532 10.3646 4.67786 10.1232 4.5687C10.2231 3.89894 10.3626 3.31076 10.5381 2.81369C11.0137 3.04107 11.5282 3.35832 12.0724 3.76124C11.9789 4.00919 11.8886 4.26565 11.8016 4.52998C11.7202 4.77721 11.6415 5.03211 11.5655 5.29425C11.3265 5.16257 11.0906 5.03799 10.8582 4.9207ZM9.59917 2.46949C9.41967 2.97539 9.27814 3.54772 9.17304 4.17526C8.57702 3.95251 8.0106 3.78892 7.48272 3.69142C7.65196 3.12438 7.9213 2.76634 8.25001 2.57655C8.57873 2.38677 9.02348 2.33253 9.59917 2.46949ZM10.9587 1.90637C11.2689 1.40247 11.6217 1.12634 11.9884 1.0281C12.355 0.929865 12.7986 0.99258 13.3192 1.27385C13.0149 1.71604 12.73 2.23223 12.4661 2.81118C11.9481 2.44177 11.4433 2.13717 10.9587 1.90637ZM3.69142 7.48271C3.78892 8.01057 3.95251 8.57697 4.17525 9.17297C3.54773 9.27807 2.97542 9.4196 2.46953 9.5991C2.33259 9.02343 2.38683 8.57869 2.5766 8.24999C2.76638 7.92129 3.12441 7.65195 3.69142 7.48271ZM5.19483 9.0386C4.94648 8.40864 4.77322 7.82952 4.67667 7.31131C5.20223 7.27044 5.80647 7.28791 6.47927 7.36476C6.52222 7.62623 6.57223 7.89346 6.62905 8.16584C6.6822 8.42065 6.74148 8.68076 6.8068 8.94577C6.53392 8.95127 6.26734 8.96133 6.00747 8.97593C5.72963 8.99155 5.45854 9.01241 5.19483 9.0386ZM4.58722 6.31527C4.60393 5.72375 4.77143 5.30821 5.03982 5.03981C5.30821 4.77142 5.72377 4.60392 6.31529 4.58721C6.27285 5.12233 6.28427 5.71178 6.34516 6.34514C5.7118 6.28424 5.12234 6.27282 4.58722 6.31527ZM7.48274 28.3085C8.01058 28.211 8.57697 28.0475 9.17296 27.8247C9.27806 28.4522 9.41959 29.0245 9.59907 29.5304C9.02343 29.6674 8.57871 29.6131 8.25001 29.4233C7.92131 29.2336 7.65197 28.8755 7.48274 28.3085ZM9.0386 26.8051C8.40865 27.0535 7.82954 27.2267 7.31133 27.3233C7.27046 26.7977 7.28793 26.1935 7.36477 25.5207C7.62627 25.4778 7.89353 25.4278 8.16594 25.3709C8.42072 25.3178 8.6808 25.2585 8.94577 25.1932C8.95127 25.4661 8.96133 25.7327 8.97594 25.9926C8.99155 26.2704 9.01241 26.5415 9.0386 26.8051ZM6.34516 25.6548C6.28426 26.2882 6.27285 26.8776 6.31529 27.4127C5.7238 27.396 5.30826 27.2285 5.03988 26.9601C4.77148 26.6917 4.60399 26.2762 4.58728 25.6847C5.12238 25.7271 5.71182 25.7157 6.34516 25.6548ZM6.47926 24.6352C5.80649 24.712 5.20226 24.7295 4.67672 24.6886C4.77327 24.1704 4.94653 23.5913 5.19487 22.9614C5.45857 22.9876 5.72967 23.0084 6.0075 23.024C6.26735 23.0386 6.53392 23.0487 6.80678 23.0542C6.74147 23.3192 6.6822 23.5793 6.62905 23.8341C6.57223 24.1065 6.52221 24.3737 6.47926 24.6352ZM6.06362 22.0256C5.91154 22.0171 5.76234 22.0069 5.61608 21.9952C5.67904 21.8626 5.74485 21.7283 5.81348 21.5924C5.96033 21.3014 6.1195 21.004 6.2906 20.701C6.65483 20.7909 7.03054 20.8758 7.41685 20.9555C7.29267 21.3299 7.17834 21.6977 7.07407 22.0581C6.72612 22.0548 6.38899 22.0439 6.06362 22.0256ZM6.42677 18.5651C6.20992 18.8946 6.00428 19.2203 5.81028 19.5415C5.47503 19.4482 5.15217 19.3504 4.8426 19.2486C4.69794 19.2009 4.55646 19.1525 4.41824 19.1033C4.51336 18.9916 4.61169 18.8789 4.71318 18.7653C4.93033 18.5223 5.16105 18.2763 5.40474 18.0279C5.7333 18.209 6.07424 18.3882 6.42677 18.5651ZM7.74908 20.0027C7.4329 19.9389 7.1243 19.8716 6.8238 19.8009C6.98633 19.5385 7.15696 19.2726 7.33544 19.0039C7.55661 19.1068 7.78165 19.2086 8.0104 19.3094C7.91989 19.5424 7.83277 19.7735 7.74908 20.0027ZM3.96751 18.099C3.78209 18.3065 3.60514 18.513 3.43719 18.718C2.81613 18.4481 2.28412 18.1611 1.84942 17.863C2.19214 17.4625 2.63176 17.0476 3.16183 16.6262C3.37709 16.7807 3.60142 16.9343 3.83419 17.0867C4.05195 17.2293 4.27779 17.3713 4.51137 17.5125C4.32231 17.7093 4.14093 17.9049 3.96751 18.099ZM2.46958 22.4009C2.97546 22.5804 3.54777 22.7219 4.17529 22.827C3.95255 23.423 3.78897 23.9894 3.69147 24.5172C3.12446 24.348 2.76644 24.0787 2.57666 23.75C2.38688 23.4213 2.33264 22.9765 2.46958 22.4009ZM4.56872 21.8768C3.89898 21.7769 3.31082 21.6374 2.81376 21.4619C3.04114 20.9864 3.35838 20.4718 3.76131 19.9276C4.00923 20.0211 4.26568 20.1115 4.52998 20.1984C4.77722 20.2798 5.03212 20.3585 5.29428 20.4345C5.16261 20.6735 5.03804 20.9094 4.92076 21.1418C4.79537 21.3902 4.67789 21.6354 4.56872 21.8768ZM1.90645 21.0414C1.40255 20.7311 1.12643 20.3783 1.0282 20.0117C0.929961 19.6451 0.992675 19.2015 1.27394 18.6809C1.71613 18.9852 2.23231 19.27 2.81125 19.5339C2.44184 20.052 2.13724 20.5567 1.90645 21.0414ZM8.40813 21.1442C8.64838 21.1862 8.89212 21.2264 9.13915 21.2645C9.11203 21.513 9.08771 21.7588 9.06617 22.0018C8.74425 22.022 8.42875 22.0368 8.12021 22.0464C8.20927 21.7508 8.30528 21.4499 8.40813 21.1442ZM7.83814 23.0538C8.21322 23.0464 8.59811 23.0312 8.99187 23.0081C8.96882 23.4019 8.95358 23.7868 8.94614 24.1618C8.60919 24.2487 8.28075 24.3255 7.96174 24.392C7.81263 24.4231 7.66588 24.4519 7.52156 24.4784C7.54807 24.3341 7.57688 24.1874 7.60798 24.0383C7.67452 23.7192 7.7513 23.3908 7.83814 23.0538ZM28.3085 24.5173C28.211 23.9894 28.0475 23.423 27.8247 22.827C28.4522 22.7219 29.0246 22.5804 29.5305 22.4009C29.6674 22.9765 29.6132 23.4213 29.4234 23.75C29.2336 24.0787 28.8756 24.348 28.3085 24.5173ZM26.8051 22.9614C27.0535 23.5913 27.2267 24.1705 27.3233 24.6887C26.7978 24.7295 26.1935 24.7121 25.5208 24.6352C25.4778 24.3737 25.4278 24.1065 25.371 23.8341C25.3178 23.5793 25.2586 23.3192 25.1932 23.0542C25.4661 23.0487 25.7327 23.0386 25.9926 23.024C26.2704 23.0084 26.5414 22.9875 26.8051 22.9614ZM25.6549 25.6548C26.2882 25.7157 26.8776 25.7272 27.4127 25.6847C27.396 26.2762 27.2285 26.6917 26.9601 26.9601C26.6917 27.2285 26.2762 27.396 25.6847 27.4127C25.7272 26.8776 25.7158 26.2882 25.6549 25.6548ZM24.6353 25.5207C24.7121 26.1935 24.7296 26.7977 24.6887 27.3233C24.1705 27.2267 23.5914 27.0535 22.9614 26.8051C22.9876 26.5414 23.0085 26.2703 23.0241 25.9925C23.0387 25.7326 23.0488 25.4661 23.0543 25.1932C23.3192 25.2585 23.5793 25.3178 23.8341 25.371C24.1065 25.4278 24.3738 25.4778 24.6353 25.5207ZM22.0257 25.9364C22.0171 26.0885 22.007 26.2377 21.9952 26.3839C21.8627 26.321 21.7284 26.2552 21.5924 26.1865C21.3014 26.0397 21.004 25.8805 20.701 25.7094C20.7909 25.3452 20.8758 24.9694 20.9555 24.5831C21.3299 24.7073 21.6977 24.8217 22.0581 24.9259C22.0548 25.2739 22.044 25.611 22.0257 25.9364ZM18.5651 25.5732C18.8946 25.7901 19.2203 25.9957 19.5415 26.1897C19.4482 26.525 19.3504 26.8478 19.2486 27.1574C19.201 27.3021 19.1525 27.4435 19.1033 27.5817C18.9916 27.4866 18.8789 27.3883 18.7654 27.2868C18.5224 27.0697 18.2763 26.8389 18.0279 26.5952C18.209 26.2667 18.3882 25.9258 18.5651 25.5732ZM20.0027 24.2509C19.9389 24.5671 19.8716 24.8757 19.8009 25.1762C19.5385 25.0137 19.2726 24.843 19.004 24.6646C19.1068 24.4434 19.2086 24.2183 19.3094 23.9896C19.5424 24.0801 19.7736 24.1672 20.0027 24.2509ZM20.2714 22.7394C20.2445 22.9126 20.2166 23.0839 20.1878 23.2535C20.0266 23.1937 19.8642 23.1321 19.7008 23.0688C19.7534 22.9407 19.8056 22.8115 19.8575 22.6813C19.9961 22.7015 20.1341 22.7209 20.2714 22.7394ZM22.0464 23.8798C21.7508 23.7907 21.4499 23.6947 21.1442 23.5919C21.1863 23.3516 21.2264 23.1078 21.2645 22.8608C21.513 22.8879 21.7588 22.9122 22.0018 22.9338C22.022 23.2557 22.0369 23.5712 22.0464 23.8798ZM23.0539 24.1619C23.0464 23.7868 23.0312 23.4019 23.0082 23.0081C23.4019 23.0311 23.7868 23.0464 24.1619 23.0538C24.2487 23.3908 24.3255 23.7192 24.392 24.0383C24.4232 24.1874 24.452 24.3341 24.4785 24.4784C24.3342 24.4519 24.1874 24.4231 24.0383 24.392C23.7193 24.3255 23.3908 24.2487 23.0539 24.1619ZM18.0991 28.0325C18.3066 28.2179 18.513 28.3948 18.718 28.5628C18.4481 29.1838 18.1612 29.7159 17.863 30.1506C17.4625 29.8078 17.0476 29.3682 16.6262 28.8382C16.7807 28.6229 16.9343 28.3986 17.0867 28.1658C17.2293 27.9481 17.3713 27.7222 17.5125 27.4886C17.7094 27.6777 17.905 27.8591 18.0991 28.0325ZM22.4009 29.5304C22.5804 29.0245 22.722 28.4522 22.8271 27.8247C23.423 28.0475 23.9894 28.211 24.5173 28.3085C24.348 28.8755 24.0787 29.2336 23.75 29.4233C23.4213 29.6131 22.9766 29.6674 22.4009 29.5304ZM21.8769 27.4313C21.777 28.101 21.6375 28.6892 21.462 29.1862C20.9864 28.9589 20.4718 28.6416 19.9276 28.2387C20.0212 27.9907 20.1115 27.7343 20.1984 27.47C20.2798 27.2228 20.3585 26.9679 20.4345 26.7057C20.6735 26.8374 20.9094 26.962 21.1418 27.0792C21.3902 27.2046 21.6354 27.3221 21.8769 27.4313ZM21.0414 30.0936C20.7312 30.5974 20.3784 30.8736 20.0117 30.9718C19.6451 31.07 19.2015 31.0073 18.6809 30.726C18.9852 30.2838 19.27 29.7677 19.5339 29.1887C20.052 29.5581 20.5568 29.8628 21.0414 30.0936ZM17.222 30.9181C16.7919 31.3246 16.3796 31.5 16 31.5C15.6204 31.5 15.2082 31.3246 14.7781 30.9182C15.1865 30.5698 15.5952 30.1449 16 29.654C16.4048 30.1449 16.8136 30.5698 17.222 30.9181Z" stroke="#151515"/>
</svg>
