<svg width="360" height="313" viewBox="0 0 360 313" fill="none" xmlns="http://www.w3.org/2000/svg">
<g clip-path="url(#clip0_1150_9686)">
<path d="M299.347 3.08696C299.347 3.08696 298.794 0.953743 298.777 0.958308C298.76 0.962872 299.33 3.09152 299.347 3.08696Z" fill="#DFFF16"/>
<path opacity="0.7" d="M222.43 134.59C197.796 112.02 195.289 80.2126 166.119 77.3014C135.995 74.2941 127.113 106.37 100.433 130.352C82.8755 146.135 66.6858 139.595 65.9177 161.361C64.544 200.286 89.555 255.964 133.393 274.128C184.42 295.271 289.914 252.703 281.584 192.961C277.474 163.5 245.252 155.506 222.425 134.587L222.43 134.59Z" fill="#DFFF16"/>
<path d="M222.43 134.59C197.796 112.02 195.289 80.2126 166.119 77.3014C135.995 74.2941 127.113 106.37 100.433 130.352C82.8755 146.135 66.6858 139.595 65.9177 161.361C64.544 200.286 89.555 255.964 133.393 274.128C184.42 295.271 289.914 252.703 281.584 192.961C277.474 163.5 245.252 155.506 222.425 134.587L222.43 134.59Z" fill="#0D0D0D"/>
<path d="M194.618 252.877L179.651 250.864L167.206 270.516L154.967 261.069" stroke="#151515" stroke-width="0.5" stroke-linecap="round" stroke-linejoin="round"/>
<path d="M210.335 160.094L208.941 170.442L228.596 182.88L224.295 188.445" stroke="#151515" stroke-width="0.5" stroke-linecap="round" stroke-linejoin="round"/>
<path d="M211.671 150.172L210.81 156.535" stroke="#151515" stroke-width="0.5" stroke-linecap="round" stroke-linejoin="round"/>
<path d="M118.837 139.876L128.496 141.175L140.941 121.523L159.355 135.735L179.959 124.935L188.799 146.445L208.827 147.261" stroke="#151515" stroke-width="0.5" stroke-linecap="round" stroke-linejoin="round"/>
<path d="M85.6785 175.317L82.9719 170.156L104.489 161.315L105.442 138.076L111.853 138.936" stroke="#151515" stroke-width="0.5" stroke-linecap="round" stroke-linejoin="round"/>
<path d="M89.6378 182.871L87.9487 179.65" stroke="#151515" stroke-width="0.5" stroke-linecap="round" stroke-linejoin="round"/>
<path d="M109.371 245.188L96.1041 244.65L99.2077 221.601L79.5568 209.162L93.7717 190.752L91.0474 185.559" stroke="#151515" stroke-width="0.5" stroke-linecap="round" stroke-linejoin="round"/>
<path d="M240.775 176L238.342 175.711L238.893 166.946L240.087 156.866L243.483 157.266L242.289 167.345L240.775 176ZM237.666 177.898L240.922 178.284L240.539 181.538L237.283 181.152L237.666 177.898Z" fill="#263238" stroke="#151515" stroke-width="0.5"/>
<path opacity="0.2" d="M250.746 226.772C249.447 225.98 248.481 224.76 248.002 223.314C246.772 219.574 243.744 211.834 238.402 206.581C236.363 204.576 230.611 198.935 227.801 197.512C224.984 196.095 221.747 198.614 221.747 198.614C221.747 198.614 220.153 197.211 218.451 195.408C216.75 193.606 215.176 191.942 211.667 192.796C208.157 193.649 208.289 195.111 208.588 196.226C209.264 198.751 212.244 201.763 212.244 201.763C211.592 201.937 209.882 199.439 207.88 196.243C205.872 193.043 202.894 193.239 199.53 195.523C196.17 197.801 199.008 202.005 200.55 204.202C202.092 206.395 202.568 207.951 200.975 208.834C199.381 209.717 196.956 203.513 189.365 195.641C181.771 187.775 181.267 186.933 177.593 185.846C175.655 185.275 174.73 185.993 174.285 186.906C174.023 186.15 173.555 185.509 172.812 185.037C170.366 183.489 168.767 185.409 167.338 188.151L167.316 188.102C169.492 183.481 170.104 179.53 167.21 178.284C166.028 177.775 164.709 178.356 163.355 179.586L161.072 177.182L156.136 166.599C155.187 164.554 152.76 163.676 150.719 164.624L121.009 178.476L118.091 179.832C115.247 181.16 114.013 184.544 115.342 187.391L118.067 193.236C114.887 190.652 111.996 190.884 110.98 192.643C109.493 195.218 113.89 202.755 114.693 206.501C115.5 210.245 114.146 223.676 113.976 227.486C113.809 231.291 118.389 249.867 118.898 258.428C119.013 260.391 118.689 262.996 118.105 265.841L142.133 277.002C143.523 273.69 144.745 270.79 145.513 268.526C145.89 267.412 157.482 257.918 157.482 257.918L187.662 243.849C187.662 243.849 187.694 243.831 187.714 243.821C188.994 245.121 190.412 246.685 191.893 248.889C195.443 254.184 206.788 257.852 215.664 259.124C224.541 260.4 228.633 257.479 228.633 257.479C228.633 257.479 233.556 258.423 238.144 259.43C239.577 258.612 240.986 257.774 242.376 256.913C251.743 251.109 260.055 244.346 266.62 236.819C259.538 232.415 253.772 228.631 250.736 226.77L250.746 226.772ZM198.637 237.043C197.12 238.212 191.1 230.53 187.513 227.38C186.384 226.387 185.039 225.866 183.713 225.702L176.301 209.81L175.433 205.534C175.941 203.103 175.547 201.411 174.11 200.664C173.724 200.467 173.361 200.354 173.009 200.32L171.686 197.476C172.671 195.447 173.78 193.028 174.282 190.812C175.649 194.995 180.009 199.376 180.009 199.376L181.763 201.954L190.302 215.048L193.945 222.394C196.132 229.976 200.149 235.872 198.636 237.039L198.637 237.043Z" fill="black"/>
<path d="M162.524 183.947C162.765 185.119 163.354 186.96 164.804 189.168" stroke="#263238" stroke-width="0.5" stroke-linecap="round" stroke-linejoin="round"/>
<path d="M162.362 182.576C162.362 182.576 162.351 182.844 162.416 183.324" stroke="#263238" stroke-width="0.5" stroke-linecap="round" stroke-linejoin="round"/>
<path d="M157.729 175.303C157.729 175.303 158.536 178.655 160.481 180.99" stroke="#263238" stroke-width="0.5" stroke-linecap="round" stroke-linejoin="round"/>
<path d="M168.243 194.543C170.522 195.721 170.187 199.293 167.766 204.395C165.345 209.501 159.996 219.773 158.336 226.305C156.669 232.843 159.508 240.592 144.45 257.951C143.68 258.842 142.166 260.721 141.793 261.834C140.527 265.591 140.534 270.403 139.418 276.255C137.335 275.636 135.327 274.924 133.398 274.127C125.635 270.914 118.465 266.52 111.924 261.255C112.702 257.825 113.187 254.624 113.051 252.31L115.098 217.125L120.061 213.417L127.237 202.483L139.047 184.466C139.047 184.466 147.15 170.709 151.507 173.101C155.861 175.502 150.132 184.612 146.818 188.325C143.502 192.033 141.962 197.935 137.097 206.37C137.198 206.307 138.791 205.264 140.169 202.878C141.587 200.422 144.44 193.862 146.68 190.588C148.92 187.314 156.366 170.01 161.357 172.164C165.787 174.066 162.002 182.321 156.968 189.616C151.942 196.903 151.506 200.287 146.447 209.665L145.772 211.032C145.772 211.032 148.1 208.628 151.004 202.279C153.908 195.929 155.884 192.503 158.495 188.093C161.101 183.681 162.799 176.285 166.954 178.914C171.608 181.855 165.593 191.311 164.212 194.729C162.823 198.145 151.832 213.323 152.322 217.435C152.381 217.264 153.307 214.52 154.613 212.153C155.962 209.711 160.58 201.716 162.817 198.142C165.056 194.571 166.34 193.556 168.238 194.54L168.243 194.543Z" fill="white"/>
<path opacity="0.5" d="M121.587 219.283L119.254 210.576L146.967 170.708L156.41 171.112L170.923 202.312L157.142 241.098L149.398 256.146C149.398 256.146 141.356 256.95 138.689 246.043C136.021 235.131 121.591 219.281 121.591 219.281L121.587 219.283Z" fill="#DFFF16"/>
<path d="M112.522 261.427C113.301 257.997 113.785 254.797 113.649 252.483L115.696 217.297L120.659 213.59L127.835 202.655L139.645 184.639C139.645 184.639 147.749 170.882 152.105 173.274C156.46 175.675 150.73 184.785 147.416 188.497C144.101 192.206 142.56 198.108 137.695 206.543C137.797 206.479 139.389 205.437 140.767 203.051C142.186 200.594 145.038 194.035 147.279 190.761C149.519 187.487 156.964 170.183 161.955 172.336C166.386 174.238 162.6 182.494 157.566 189.788C152.54 197.076 152.105 200.46 147.045 209.837L146.371 211.204C146.371 211.204 148.698 208.801 151.602 202.452C154.507 196.102 156.482 192.675 159.094 188.266C161.7 183.853 163.397 176.458 167.552 179.086C172.207 182.028 166.191 191.484 164.811 194.902C163.421 198.317 152.43 213.496 152.92 217.608C152.98 217.437 153.906 214.693 155.211 212.326C156.561 209.884 161.179 201.889 163.416 198.314C165.654 194.744 166.939 193.729 168.836 194.713C171.115 195.891 170.78 199.462 168.359 204.564C165.938 209.671 160.589 219.943 158.929 226.474C157.263 233.013 160.101 240.762 145.043 258.121C144.273 259.011 142.759 260.891 142.386 262.004C141.12 265.761 141.127 270.573 140.011 276.425" stroke="#263238" stroke-width="0.5" stroke-miterlimit="10"/>
<path d="M127.99 256.211C130.917 257.562 135.728 260.183 137.656 263.563" stroke="#263238" stroke-width="0.5" stroke-linecap="round" stroke-linejoin="round"/>
<path d="M125.612 255.205C125.612 255.205 126.042 255.364 126.746 255.659" stroke="#263238" stroke-width="0.5" stroke-linecap="round" stroke-linejoin="round"/>
<path d="M112.464 261.758C113.242 258.323 113.723 255.128 113.586 252.81C113.078 244.254 108.494 225.679 108.664 221.869C108.83 218.06 110.184 204.629 109.381 200.884C108.574 197.139 104.181 189.601 105.668 187.026C107.155 184.451 112.691 185.144 117.236 193.235C121.782 201.325 121.463 215.67 123.994 218.455C126.526 221.244 126.803 219.058 135.015 232.467C143.228 245.876 140.427 250.587 140.427 250.587" fill="white"/>
<path d="M112.464 261.758C113.242 258.323 113.723 255.128 113.586 252.81C113.078 244.254 108.494 225.679 108.664 221.869C108.83 218.06 110.184 204.629 109.381 200.884C108.574 197.139 104.181 189.601 105.668 187.026C107.155 184.451 112.691 185.144 117.236 193.235C121.782 201.325 121.463 215.67 123.994 218.455C126.526 221.244 126.803 219.058 135.015 232.467C143.228 245.876 140.427 250.587 140.427 250.587" stroke="#263238" stroke-width="0.5" stroke-miterlimit="10"/>
<path d="M109.92 187.872C110.563 189.556 111.008 191.472 110.307 192.518C109.582 193.593 109.052 194.442 108.709 195.018C108.49 195.378 107.967 195.367 107.767 194.996L107.42 194.35" stroke="#263238" stroke-width="0.5" stroke-linecap="round" stroke-linejoin="round"/>
<path d="M109.249 186.304C109.379 186.584 109.519 186.884 109.649 187.2" stroke="#263238" stroke-width="0.5" stroke-linecap="round" stroke-linejoin="round"/>
<path d="M110.773 201.378C111.332 200.703 112.338 199.808 113.915 199.491" stroke="#263238" stroke-width="0.5" stroke-linecap="round" stroke-linejoin="round"/>
<path d="M110.221 202.196C110.221 202.196 110.285 202.06 110.425 201.85" stroke="#263238" stroke-width="0.5" stroke-linecap="round" stroke-linejoin="round"/>
<path d="M103.046 217.543C102.938 216.97 102.834 216.413 102.741 215.877" stroke="#263238" stroke-width="0.5" stroke-linecap="round" stroke-linejoin="round"/>
<path d="M105.026 227.968C104.485 225.028 103.903 222.036 103.383 219.314" stroke="#263238" stroke-width="0.5" stroke-linecap="round" stroke-linejoin="round"/>
<path d="M106.589 237.971C106.338 235.657 105.902 232.889 105.388 229.998" stroke="#263238" stroke-width="0.5" stroke-linecap="round" stroke-linejoin="round"/>
<path d="M106.77 240.045C106.751 239.753 106.73 239.453 106.704 239.136" stroke="#263238" stroke-width="0.5" stroke-linecap="round" stroke-linejoin="round"/>
<path d="M169.648 249.835L173.455 248.062" stroke="#263238" stroke-width="0.5" stroke-linecap="round" stroke-linejoin="round"/>
<path d="M155.079 256.632L168.456 250.392" stroke="#263238" stroke-width="0.5" stroke-linecap="round" stroke-linejoin="round"/>
<path d="M152.249 257.946L153.751 257.247" stroke="#263238" stroke-width="0.5" stroke-linecap="round" stroke-linejoin="round"/>
<path d="M157.174 159.176L157.699 160.303" stroke="#263238" stroke-width="0.5" stroke-linecap="round" stroke-linejoin="round"/>
<path d="M147.146 153.029C150.392 151.516 154.255 152.917 155.769 156.166L156.65 158.057" stroke="#263238" stroke-width="0.5" stroke-linecap="round" stroke-linejoin="round"/>
<path d="M128.365 161.789L145.775 153.67" stroke="#263238" stroke-width="0.5" stroke-linecap="round" stroke-linejoin="round"/>
<path d="M125.942 162.917L127.099 162.379" stroke="#263238" stroke-width="0.5" stroke-linecap="round" stroke-linejoin="round"/>
<path d="M117.283 171.79L114.366 173.151C111.517 174.48 110.287 177.862 111.612 180.711L143.753 249.628C145.082 252.475 148.465 253.704 151.314 252.379L154.232 251.018L117.284 171.794L117.283 171.79Z" fill="#999999" stroke="#263238" stroke-width="0.5" stroke-linecap="round" stroke-linejoin="round"/>
<path d="M183.94 237.162L152.444 251.844C150.404 252.796 147.976 251.914 147.028 249.873L113.525 178.04C112.573 176 113.456 173.573 115.497 172.62L121.931 169.618L146.992 157.939C149.033 156.986 151.46 157.869 152.413 159.908L162.017 180.506L185.911 231.743C186.864 233.783 185.98 236.209 183.94 237.162Z" fill="#263238" stroke="#263238" stroke-width="0.5" stroke-linecap="round" stroke-linejoin="round"/>
<path d="M146.558 160.816L139.952 163.895L140.548 165.625C140.942 166.774 140.407 168.03 139.308 168.544L128.56 173.555C127.46 174.069 126.152 173.666 125.527 172.629L124.586 171.061L117.981 174.14C116.35 174.901 115.639 176.848 116.4 178.479L148.541 247.396C149.302 249.026 151.25 249.736 152.881 248.975L181.454 235.652C183.085 234.891 183.795 232.944 183.034 231.313L150.893 162.396C150.132 160.766 148.185 160.056 146.554 160.817L146.558 160.816Z" fill="#DFFF16"/>
<mask id="mask0_1150_9686" style="mask-type:luminance" maskUnits="userSpaceOnUse" x="116" y="160" width="68" height="90">
<path d="M146.558 160.816L139.952 163.895L140.548 165.625C140.942 166.774 140.407 168.03 139.308 168.544L128.56 173.555C127.46 174.069 126.152 173.666 125.527 172.629L124.586 171.061L117.981 174.14C116.35 174.901 115.639 176.848 116.4 178.479L148.541 247.396C149.302 249.026 151.25 249.736 152.881 248.975L181.454 235.652C183.085 234.891 183.795 232.944 183.034 231.313L150.893 162.396C150.132 160.766 148.185 160.056 146.554 160.817L146.558 160.816Z" fill="white"/>
</mask>
<g mask="url(#mask0_1150_9686)">
<path opacity="0.3" d="M159.371 252.771L143.797 256.944L136.465 155.088L152.039 150.915L159.371 252.771Z" fill="white"/>
</g>
<path d="M146.558 160.816L139.952 163.895L140.548 165.625C140.942 166.774 140.407 168.03 139.308 168.544L128.56 173.555C127.46 174.069 126.152 173.666 125.527 172.629L124.586 171.061L117.981 174.14C116.35 174.901 115.639 176.848 116.4 178.479L148.541 247.396C149.302 249.026 151.25 249.736 152.881 248.975L181.454 235.652C183.085 234.891 183.795 232.944 183.034 231.313L150.893 162.396C150.132 160.766 148.185 160.056 146.554 160.817L146.558 160.816Z" stroke="#263238" stroke-width="0.5" stroke-linecap="round" stroke-linejoin="round"/>
<path d="M130.523 169.912C130.746 170.387 130.537 170.954 130.063 171.176C129.589 171.399 129.022 171.191 128.799 170.717C128.576 170.243 128.784 169.676 129.259 169.453C129.733 169.23 130.3 169.438 130.523 169.912Z" fill="#DFFF16" stroke="#263238" stroke-width="0.5" stroke-linecap="round" stroke-linejoin="round"/>
<path d="M136.335 166.662C136.197 166.727 132.078 168.647 131.94 168.711C131.697 168.827 131.588 169.116 131.704 169.363C131.819 169.606 132.109 169.716 132.356 169.599C132.527 169.521 136.58 167.628 136.75 167.55C136.993 167.435 137.103 167.145 136.987 166.898C136.871 166.655 136.582 166.546 136.335 166.662Z" fill="#DFFF16" stroke="#263238" stroke-width="0.5" stroke-linecap="round" stroke-linejoin="round"/>
<path d="M170.491 237.531C170.353 237.595 161.512 241.716 161.374 241.781C161.131 241.896 161.021 242.185 161.138 242.433C161.253 242.675 161.543 242.785 161.79 242.669C161.961 242.591 170.736 238.496 170.907 238.419C171.15 238.303 171.26 238.014 171.143 237.767C171.028 237.524 170.739 237.414 170.491 237.531Z" fill="white"/>
<path d="M150.119 173.678L125.542 185.137C124.292 185.718 122.806 185.181 122.225 183.931C121.643 182.682 122.181 181.196 123.431 180.615L148.008 169.156C149.258 168.575 150.744 169.112 151.325 170.362C151.906 171.611 151.369 173.097 150.119 173.678Z" fill="white" stroke="#263238" stroke-width="0.5" stroke-linecap="round" stroke-linejoin="round"/>
<path opacity="0.2" d="M164.033 203.515L139.457 214.973C138.207 215.555 136.721 215.017 136.139 213.768C135.558 212.518 136.096 211.033 137.346 210.451L161.922 198.993C163.173 198.411 164.658 198.949 165.24 200.198C165.821 201.448 165.283 202.934 164.033 203.515Z" fill="#263238"/>
<path opacity="0.2" d="M161.505 213.446L142.811 222.16C141.561 222.742 140.075 222.204 139.494 220.955C138.912 219.705 139.45 218.219 140.7 217.638L159.394 208.924C160.644 208.343 162.13 208.88 162.711 210.13C163.292 211.379 162.755 212.865 161.505 213.446Z" fill="#263238"/>
<path opacity="0.2" d="M153.625 175.28L124.523 188.849L133.845 208.837L162.947 195.269L153.625 175.28Z" fill="black"/>
<path opacity="0.5" d="M162.917 217.184L142.681 226.616C142.434 226.733 142.14 226.624 142.024 226.377C141.908 226.13 142.016 225.836 142.263 225.72L162.499 216.287C162.746 216.171 163.04 216.279 163.156 216.526C163.273 216.773 163.164 217.067 162.917 217.184Z" fill="#263238"/>
<path opacity="0.5" d="M168.967 218.761L144.366 230.231C144.119 230.347 143.825 230.239 143.709 229.991C143.593 229.744 143.701 229.451 143.948 229.334L168.549 217.865C168.797 217.748 169.09 217.856 169.207 218.104C169.323 218.351 169.215 218.644 168.967 218.761Z" fill="#263238"/>
<path opacity="0.5" d="M164.234 225.368L146.052 233.845C145.804 233.961 145.511 233.853 145.394 233.606C145.278 233.358 145.386 233.065 145.633 232.948L163.815 224.472C164.063 224.355 164.356 224.464 164.473 224.711C164.589 224.958 164.481 225.252 164.234 225.368Z" fill="#263238"/>
<path opacity="0.5" d="M168.337 227.855L147.736 237.459C147.489 237.575 147.195 237.467 147.079 237.22C146.963 236.972 147.071 236.679 147.318 236.562L167.919 226.959C168.166 226.842 168.46 226.951 168.576 227.198C168.693 227.445 168.584 227.739 168.337 227.855Z" fill="#263238"/>
<path opacity="0.5" d="M171.709 230.679L149.421 241.073C149.174 241.189 148.88 241.081 148.764 240.834C148.648 240.587 148.756 240.293 149.003 240.176L171.291 229.783C171.538 229.667 171.832 229.775 171.948 230.022C172.065 230.269 171.956 230.563 171.709 230.679Z" fill="#263238"/>
<path d="M148.291 172.598C148.039 172.716 147.754 172.742 147.475 172.671L147.501 173.243L147.236 173.976C147.203 174.04 147.151 174.085 147.091 174.115C146.933 174.19 146.738 174.11 146.665 173.956C146.635 173.895 146.628 173.82 146.643 173.756L146.904 173.025L147.296 172.6C147.036 172.478 146.833 172.268 146.716 172.017C146.446 171.436 146.712 170.726 147.293 170.457C147.869 170.188 148.586 170.448 148.855 171.024C148.985 171.304 149.015 171.62 148.9 171.924C148.786 172.233 148.561 172.466 148.29 172.594L148.291 172.598ZM148.098 172.185C148.456 172.02 148.612 171.581 148.441 171.217C148.277 170.859 147.834 170.704 147.484 170.866C147.124 171.036 146.967 171.475 147.129 171.824C147.213 171.997 147.35 172.134 147.542 172.206C147.728 172.27 147.93 172.257 148.097 172.18L148.098 172.185Z" fill="#DFFF16"/>
<path opacity="0.2" d="M144.532 193.217L148.048 184.705L134.757 190.908C133.441 191.516 131.878 190.95 131.266 189.635L121.931 169.618L146.992 157.939C149.033 156.986 151.46 157.869 152.413 159.908L162.017 180.506L144.532 193.217Z" fill="black"/>
<path d="M226.336 140.188L172.565 165.259L144.536 193.216L149.758 175.892L136.466 182.091C135.151 182.703 133.587 182.132 132.975 180.818L102.915 116.363C102.298 115.049 102.874 113.485 104.184 112.874L194.056 70.9747C195.369 70.358 196.937 70.9281 197.545 72.2436L227.605 136.699C228.222 138.012 227.652 139.579 226.336 140.188Z" fill="#999999" stroke="#263238" stroke-width="0.5" stroke-linecap="round" stroke-linejoin="round"/>
<path opacity="0.6" d="M223.265 138.25C224.032 137.894 224.362 136.979 224.006 136.212L195.601 75.3107C195.245 74.5437 194.33 74.2138 193.563 74.57L107.251 114.813C106.484 115.169 106.149 116.085 106.51 116.85L134.915 177.752C135.271 178.519 136.186 178.849 136.953 178.493L223.265 138.25Z" fill="white"/>
<path d="M224.006 136.212L195.601 75.3107C195.245 74.5437 194.33 74.2138 193.563 74.57L107.251 114.813C106.484 115.169 106.149 116.085 106.51 116.85L134.915 177.752C135.271 178.519 136.186 178.849 136.953 178.493L223.265 138.25C224.032 137.894 224.362 136.979 224.006 136.212Z" fill="#DFFF16"/>
<mask id="mask1_1150_9686" style="mask-type:luminance" maskUnits="userSpaceOnUse" x="106" y="74" width="119" height="105">
<path d="M224.006 136.212L195.601 75.3107C195.245 74.5437 194.33 74.2138 193.563 74.57L107.251 114.813C106.484 115.169 106.149 116.085 106.51 116.85L134.915 177.752C135.271 178.519 136.186 178.849 136.953 178.493L223.265 138.25C224.032 137.894 224.362 136.979 224.006 136.212Z" fill="white"/>
</mask>
<g mask="url(#mask1_1150_9686)">
<path opacity="0.4" d="M193.704 222.089L157.582 231.768L155.868 52.6064L191.99 42.9275L193.704 222.089Z" fill="white"/>
</g>
<path d="M224.006 136.212L195.601 75.3107C195.245 74.5437 194.33 74.2138 193.563 74.57L107.251 114.813C106.484 115.169 106.149 116.085 106.51 116.85L134.915 177.752C135.271 178.519 136.186 178.849 136.953 178.493L223.265 138.25C224.032 137.894 224.362 136.979 224.006 136.212Z" stroke="#263238" stroke-width="0.5" stroke-linecap="round" stroke-linejoin="round"/>
<path d="M200.971 70.9744C202.11 73.4206 201.053 76.323 198.606 77.4623C196.163 78.6006 193.256 77.5453 192.116 75.0991C190.977 72.6529 192.034 69.7505 194.481 68.6111C196.928 67.4717 199.831 68.5282 200.971 70.9744Z" fill="#F2B925" stroke="#263238" stroke-width="0.5" stroke-linecap="round" stroke-linejoin="round"/>
<path d="M193.863 72.0621L199.229 74.0145" stroke="#263238" stroke-width="0.5" stroke-linecap="round" stroke-linejoin="round"/>
<path d="M197.524 70.3601L195.569 75.7207" stroke="#263238" stroke-width="0.5" stroke-linecap="round" stroke-linejoin="round"/>
<g opacity="0.2">
<path d="M152.364 105.148L156.62 98.4268L162.921 103.286L169.974 99.5942L173 106.951L180.951 107.275L179.889 115.167L186.615 119.419L181.753 125.719L185.445 132.769L178.085 135.795L177.76 143.744L169.867 142.684L165.612 149.409L159.31 144.545L152.258 148.241L149.231 140.88L141.28 140.556L142.343 132.669L135.617 128.416L140.482 122.112L136.787 115.066L144.147 112.04L144.476 104.09L152.364 105.148Z" fill="black"/>
</g>
<path d="M153.372 106.581L157.628 99.8604L163.928 104.72L170.981 101.028L174.007 108.385L181.958 108.709L180.896 116.6L187.622 120.853L182.76 127.152L186.452 134.203L179.093 137.229L178.767 145.178L170.874 144.117L166.619 150.842L160.318 145.978L153.266 149.675L150.239 142.314L142.287 141.989L143.351 134.103L136.624 129.85L141.49 123.545L137.794 116.5L145.154 113.474L145.484 105.524L153.372 106.581Z" fill="white" stroke="#263238" stroke-width="0.5" stroke-linecap="round" stroke-linejoin="round"/>
<path d="M152.015 126.365C152.272 125.99 152.38 125.546 152.327 125.02L151.431 125.26C151.442 125.527 151.382 125.76 151.243 125.959C151.105 126.158 150.895 126.287 150.626 126.359C150.268 126.455 149.95 126.405 149.666 126.192C149.382 125.98 149.184 125.664 149.069 125.235C148.956 124.814 148.972 124.45 149.111 124.124C149.253 123.806 149.502 123.596 149.86 123.5C150.121 123.43 150.361 123.447 150.578 123.542C150.798 123.645 150.964 123.808 151.094 124.034L151.998 123.792C151.785 123.326 151.472 123.004 151.07 122.806C150.66 122.609 150.198 122.58 149.677 122.719C149.254 122.833 148.913 123.023 148.645 123.293C148.377 123.564 148.2 123.881 148.117 124.255C148.028 124.639 148.048 125.04 148.165 125.477C148.283 125.914 148.468 126.279 148.729 126.57C148.99 126.86 149.304 127.056 149.671 127.155C150.03 127.258 150.419 127.244 150.834 127.132C151.355 126.993 151.75 126.743 152.015 126.365Z" fill="#0B0B0B"/>
<path d="M154.171 125.95C154.546 126.048 154.935 126.033 155.358 125.92C155.773 125.809 156.117 125.627 156.393 125.354C156.669 125.082 156.845 124.764 156.934 124.38C157.023 123.996 157.009 123.585 156.892 123.148C156.777 122.719 156.586 122.364 156.317 122.076C156.048 121.788 155.734 121.592 155.359 121.495C154.983 121.397 154.592 121.402 154.177 121.514C153.754 121.627 153.412 121.818 153.136 122.09C152.86 122.362 152.686 122.688 152.597 123.073C152.508 123.457 152.528 123.857 152.643 124.286C152.76 124.723 152.945 125.088 153.214 125.377C153.484 125.665 153.795 125.852 154.171 125.95ZM155.932 124.513C155.776 124.844 155.517 125.048 155.151 125.146C154.776 125.247 154.449 125.199 154.157 124.989C153.857 124.781 153.659 124.464 153.547 124.044C153.434 123.624 153.45 123.259 153.605 122.929C153.753 122.601 154.01 122.388 154.384 122.287C154.751 122.189 155.08 122.245 155.38 122.453C155.68 122.661 155.884 122.967 155.997 123.388C156.109 123.808 156.088 124.183 155.932 124.513Z" fill="#0B0B0B"/>
<path d="M163.058 119.63C162.684 119.405 162.275 119.344 161.819 119.466C161.477 119.558 161.213 119.71 161.013 119.907C160.805 120.107 160.669 120.351 160.588 120.634C160.396 120.406 160.173 120.258 159.917 120.183C159.656 120.118 159.385 120.118 159.092 120.197C158.574 120.345 158.221 120.655 158.036 121.138L157.787 120.6L157.022 120.805L158.176 125.111L159.055 124.875L158.437 122.571C158.334 122.184 158.334 121.86 158.45 121.576C158.568 121.301 158.773 121.12 159.074 121.04C159.359 120.963 159.606 121.005 159.804 121.16C160.002 121.314 160.16 121.578 160.262 121.956L160.911 124.378L161.798 124.14L161.174 121.811C161.07 121.424 161.07 121.1 161.191 120.833C161.311 120.566 161.516 120.385 161.825 120.303C162.11 120.226 162.357 120.268 162.555 120.422C162.756 120.585 162.906 120.851 163.005 121.221L163.654 123.643L164.533 123.407L163.882 120.977C163.702 120.305 163.424 119.856 163.058 119.63Z" fill="#0B0B0B"/>
<path d="M164.579 117.104C164.446 117.032 164.3 117.008 164.154 117.047C163.999 117.088 163.885 117.182 163.814 117.309C163.735 117.438 163.723 117.586 163.763 117.737C163.806 117.897 163.891 118.019 164.024 118.091C164.148 118.166 164.292 118.181 164.447 118.14C164.593 118.101 164.71 118.015 164.789 117.886C164.86 117.759 164.88 117.609 164.838 117.449C164.797 117.298 164.704 117.179 164.579 117.104ZM164.176 118.888L165.33 123.194L166.209 122.958L165.055 118.653L164.176 118.888Z" fill="#0B0B0B"/>
<path d="M169.432 117.931C169.04 117.703 168.59 117.652 168.101 117.783C167.523 117.938 167.132 118.268 166.931 118.754L166.682 118.217L165.917 118.422L167.071 122.727L167.95 122.492L167.369 120.322C167.251 119.885 167.259 119.523 167.387 119.218C167.514 118.913 167.757 118.713 168.107 118.619C168.433 118.532 168.707 118.576 168.934 118.74C169.155 118.915 169.328 119.202 169.436 119.606L170.058 121.927L170.945 121.689L170.31 119.318C170.125 118.628 169.827 118.167 169.432 117.931Z" fill="#0B0B0B"/>
<path d="M174.637 116.086L173.872 116.291L173.954 116.99C173.749 116.81 173.523 116.682 173.259 116.608C172.997 116.543 172.702 116.55 172.393 116.633C172.018 116.733 171.701 116.917 171.458 117.181C171.206 117.446 171.038 117.762 170.955 118.136C170.874 118.518 170.894 118.918 171.009 119.347C171.131 119.801 171.316 120.166 171.574 120.448C171.825 120.733 172.129 120.922 172.477 121.017C172.818 121.116 173.182 121.108 173.565 121.006C174.167 120.844 174.552 120.489 174.735 119.935L174.863 120.414C175.079 121.221 174.786 121.724 173.989 121.937C173.679 122.02 173.411 122.029 173.18 121.947C172.948 121.865 172.769 121.714 172.654 121.484L171.759 121.724C171.92 122.194 172.215 122.512 172.643 122.677C173.062 122.843 173.552 122.847 174.122 122.695C174.846 122.501 175.341 122.197 175.601 121.767C175.852 121.339 175.905 120.82 175.743 120.214L174.637 116.086ZM174.281 119.579C174.123 119.9 173.864 120.105 173.506 120.201C173.14 120.299 172.813 120.252 172.521 120.041C172.223 119.842 172.025 119.525 171.912 119.105C171.8 118.684 171.815 118.32 171.971 117.99C172.121 117.67 172.378 117.457 172.744 117.359C173.103 117.263 173.432 117.319 173.732 117.527C174.024 117.737 174.23 118.051 174.343 118.472C174.455 118.892 174.431 119.259 174.281 119.579Z" fill="#0B0B0B"/>
<path d="M157.147 132.876L156.301 133.103C156.433 133.563 156.709 133.877 157.12 134.046C157.532 134.215 158.022 134.219 158.583 134.069C158.909 133.981 159.197 133.85 159.436 133.669C159.667 133.49 159.836 133.273 159.937 133.03C160.029 132.789 160.045 132.523 159.973 132.254C159.892 131.951 159.756 131.736 159.562 131.598C159.368 131.461 159.139 131.387 158.872 131.369C158.605 131.35 158.288 131.372 157.919 131.426C157.641 131.464 157.439 131.491 157.318 131.496C157.19 131.504 157.081 131.488 156.981 131.443C156.882 131.397 156.824 131.313 156.788 131.179C156.743 131.011 156.778 130.848 156.914 130.703C157.042 130.561 157.232 130.456 157.492 130.386C157.744 130.319 157.974 130.329 158.179 130.41C158.375 130.492 158.516 130.626 158.592 130.813L159.447 130.584C159.297 130.155 159.028 129.867 158.637 129.71C158.248 129.562 157.783 129.551 157.262 129.691C156.937 129.778 156.667 129.913 156.444 130.09C156.224 130.276 156.071 130.488 155.979 130.729C155.886 130.97 155.884 131.223 155.954 131.483C156.031 131.769 156.154 131.971 156.346 132.099C156.537 132.228 156.756 132.296 157.013 132.308C157.269 132.321 157.586 132.299 157.963 132.243C158.233 132.207 158.437 132.188 158.577 132.187C158.716 132.185 158.827 132.21 158.926 132.255C159.02 132.311 159.09 132.41 159.128 132.553C159.176 132.729 159.124 132.896 158.989 133.041C158.853 133.185 158.647 133.295 158.386 133.364C158.085 133.445 157.823 133.443 157.597 133.35C157.372 133.258 157.224 133.099 157.147 132.876Z" fill="#0B0B0B"/>
<path d="M161.829 132.91C162.204 133.008 162.593 132.994 163.016 132.881C163.432 132.77 163.775 132.587 164.051 132.315C164.327 132.043 164.504 131.725 164.593 131.341C164.682 130.956 164.668 130.546 164.551 130.108C164.436 129.679 164.245 129.325 163.976 129.037C163.706 128.748 163.392 128.553 163.017 128.455C162.642 128.358 162.251 128.363 161.836 128.474C161.412 128.588 161.071 128.778 160.795 129.051C160.519 129.323 160.345 129.649 160.256 130.033C160.167 130.418 160.187 130.818 160.302 131.247C160.419 131.684 160.604 132.049 160.873 132.337C161.142 132.626 161.454 132.813 161.829 132.91ZM163.59 131.474C163.435 131.804 163.175 132.009 162.809 132.107C162.435 132.207 162.108 132.16 161.816 131.95C161.516 131.742 161.318 131.425 161.205 131.005C161.092 130.584 161.108 130.22 161.264 129.889C161.412 129.561 161.669 129.348 162.043 129.248C162.409 129.15 162.738 129.206 163.038 129.414C163.338 129.622 163.543 129.928 163.655 130.348C163.768 130.769 163.746 131.144 163.59 131.474Z" fill="#0B0B0B"/>
<path d="M166.63 131.624C167.006 131.722 167.394 131.708 167.818 131.594C168.233 131.483 168.577 131.301 168.853 131.029C169.129 130.756 169.305 130.439 169.394 130.054C169.483 129.67 169.469 129.259 169.352 128.822C169.237 128.393 169.046 128.039 168.777 127.75C168.508 127.462 168.194 127.267 167.818 127.169C167.443 127.071 167.052 127.077 166.637 127.188C166.214 127.301 165.872 127.492 165.596 127.764C165.32 128.036 165.146 128.363 165.057 128.747C164.968 129.131 164.988 129.531 165.103 129.96C165.22 130.398 165.405 130.763 165.674 131.051C165.943 131.339 166.255 131.526 166.63 131.624ZM168.392 130.188C168.236 130.518 167.977 130.722 167.61 130.821C167.236 130.921 166.909 130.873 166.617 130.663C166.317 130.455 166.119 130.139 166.006 129.718C165.894 129.298 165.909 128.933 166.065 128.603C166.213 128.275 166.47 128.062 166.844 127.962C167.211 127.863 167.54 127.919 167.84 128.127C168.14 128.335 168.344 128.641 168.456 129.062C168.569 129.482 168.548 129.858 168.392 130.188Z" fill="#0B0B0B"/>
<path d="M172.997 125.988C172.604 125.76 172.155 125.709 171.666 125.84C171.088 125.995 170.697 126.325 170.496 126.812L170.247 126.275L169.482 126.48L170.636 130.785L171.515 130.55L170.933 128.38C170.816 127.943 170.824 127.58 170.952 127.276C171.079 126.971 171.322 126.771 171.672 126.677C171.998 126.59 172.271 126.634 172.499 126.798C172.72 126.973 172.893 127.26 173.001 127.664L173.623 129.985L174.51 129.747L173.875 127.376C173.69 126.686 173.392 126.225 172.997 125.988Z" fill="#0B0B0B"/>
<path d="M188.694 120.201L186.642 129.698L195.943 139.809L207.637 129.06L198.336 118.949L188.698 120.2L188.694 120.201ZM192.095 123.898C191.571 124.381 190.758 124.343 190.276 123.824C189.794 123.301 189.831 122.488 190.351 122.006C190.874 121.524 191.687 121.561 192.169 122.08C192.651 122.604 192.614 123.417 192.095 123.898Z" fill="white" stroke="#263238" stroke-width="0.5" stroke-linecap="round" stroke-linejoin="round"/>
<path d="M184.39 121.55C184.532 120.919 186.178 120.743 188.069 121.158C189.96 121.572 191.38 122.424 191.243 123.054C191.179 123.345 190.789 123.541 190.204 123.624" stroke="#263238" stroke-width="0.5" stroke-linecap="round" stroke-linejoin="round"/>
<path d="M187.975 123.533C187.841 123.509 187.702 123.483 187.561 123.452C186.984 123.324 186.45 123.156 185.994 122.968" stroke="#263238" stroke-width="0.5" stroke-linecap="round" stroke-linejoin="round"/>
<path d="M269.972 232.722C262.998 241.905 253.43 250.077 242.387 256.919C240.874 255.942 239.531 255.12 238.517 254.589C236.108 253.331 228.346 250.766 228.346 250.766C228.346 250.766 224.255 253.692 215.376 252.412C206.499 251.135 195.498 248.749 191.947 243.454C188.397 238.158 185.228 236.571 183.317 233.423C182.605 232.25 182.054 230.841 181.118 229.527C179.555 227.322 177.691 225.171 177.863 223.308C178.136 220.338 183.966 218.776 187.554 221.93C191.143 225.084 197.162 232.762 198.679 231.593C200.196 230.425 196.175 224.53 193.992 216.947L190.345 209.606L181.806 196.508L180.051 193.93C180.051 193.93 174.42 188.279 173.95 183.678C173.95 183.678 173.586 179.204 177.645 180.402C181.318 181.485 181.819 182.332 189.418 190.202C197.013 198.068 199.437 204.272 201.027 203.39C202.616 202.508 202.144 200.951 200.603 198.758C199.061 196.566 196.227 192.361 199.582 190.079C202.946 187.795 205.928 187.594 207.932 190.799C209.935 193.999 211.645 196.497 212.297 196.323C212.297 196.323 209.316 193.307 208.64 190.782C208.342 189.671 208.209 188.206 211.719 187.352C215.228 186.498 216.802 188.162 218.505 189.969C220.206 191.772 221.8 193.17 221.8 193.17C221.8 193.17 225.036 190.651 227.854 192.068C230.666 193.486 236.414 199.128 238.454 201.137C243.796 206.39 246.826 214.138 248.06 217.873C248.533 219.316 249.5 220.54 250.799 221.333C254.19 223.408 261.397 227.77 269.982 232.724L269.972 232.722Z" fill="white"/>
<mask id="mask2_1150_9686" style="mask-type:luminance" maskUnits="userSpaceOnUse" x="173" y="180" width="97" height="77">
<path d="M269.972 232.722C262.998 241.905 253.43 250.077 242.387 256.919C240.874 255.942 239.531 255.12 238.517 254.589C236.108 253.331 228.346 250.766 228.346 250.766C228.346 250.766 224.255 253.692 215.376 252.412C206.499 251.135 195.498 248.749 191.947 243.454C188.397 238.158 185.228 236.571 183.317 233.423C182.605 232.25 182.054 230.841 181.118 229.527C179.555 227.322 177.691 225.171 177.863 223.308C178.136 220.338 183.966 218.776 187.554 221.93C191.143 225.084 197.162 232.762 198.679 231.593C200.196 230.425 196.175 224.53 193.992 216.947L190.345 209.606L181.806 196.508L180.051 193.93C180.051 193.93 174.42 188.279 173.95 183.678C173.95 183.678 173.586 179.204 177.645 180.402C181.318 181.485 181.819 182.332 189.418 190.202C197.013 198.068 199.437 204.272 201.027 203.39C202.616 202.508 202.144 200.951 200.603 198.758C199.061 196.566 196.227 192.361 199.582 190.079C202.946 187.795 205.928 187.594 207.932 190.799C209.935 193.999 211.645 196.497 212.297 196.323C212.297 196.323 209.316 193.307 208.64 190.782C208.342 189.671 208.209 188.206 211.719 187.352C215.228 186.498 216.802 188.162 218.505 189.969C220.206 191.772 221.8 193.17 221.8 193.17C221.8 193.17 225.036 190.651 227.854 192.068C230.666 193.486 236.414 199.128 238.454 201.137C243.796 206.39 246.826 214.138 248.06 217.873C248.533 219.316 249.5 220.54 250.799 221.333C254.19 223.408 261.397 227.77 269.982 232.724L269.972 232.722Z" fill="white"/>
</mask>
<g mask="url(#mask2_1150_9686)">
<path opacity="0.5" d="M248.603 255.299C245.282 253.159 242.443 251.388 241.234 250.776C237.399 248.833 229.568 248.189 227.69 246.292C225.812 244.395 224.532 238.341 222.721 235.856C220.909 233.371 196.064 240.028 193.404 239.486C190.744 238.944 185.811 229.068 184.611 230.978C183.411 232.887 185.234 235.844 185.234 235.844L185.449 238.414L191.143 249.802L206.151 260.177L220.108 262.934L248.607 255.298L248.603 255.299Z" fill="#DFFF16"/>
</g>
<path d="M181.021 227.719C181.06 227.248 181.245 226.596 181.769 225.721C183.036 223.602 183.583 223.021 181.96 221.189" stroke="#263238" stroke-width="0.5" stroke-linecap="round" stroke-linejoin="round"/>
<path d="M185.243 227.938C185.421 227.631 185.616 227.318 185.843 227.006" stroke="#263238" stroke-width="0.5" stroke-linecap="round" stroke-linejoin="round"/>
<path d="M183.825 232.374C183.895 231.525 184.129 230.185 184.853 228.681" stroke="#263238" stroke-width="0.5" stroke-linecap="round" stroke-linejoin="round"/>
<path d="M174.964 184.328C174.964 184.328 175.584 185.23 176.557 184.586C177.527 183.947 180.401 182.716 179.313 181.789" stroke="#263238" stroke-width="0.5" stroke-linecap="round" stroke-linejoin="round"/>
<path d="M185.823 192.881C186.546 192.19 187.504 191.454 188.642 191.017" stroke="#263238" stroke-width="0.5" stroke-linecap="round" stroke-linejoin="round"/>
<path d="M184.35 194.608C184.35 194.608 184.544 194.309 184.899 193.877" stroke="#263238" stroke-width="0.5" stroke-linecap="round" stroke-linejoin="round"/>
<path d="M216.814 197.713C218.555 196.718 219.769 195.608 223.416 195.812" stroke="#263238" stroke-width="0.5" stroke-linecap="round" stroke-linejoin="round"/>
<path d="M197.577 209.119C198.2 208.003 199.355 206.895 201.502 206.58C206.232 205.883 206.326 201.975 208.812 200.163C211.299 198.356 212.734 199.455 215.421 198.392" stroke="#263238" stroke-width="0.5" stroke-linecap="round" stroke-linejoin="round"/>
<path d="M196.846 211.825C196.846 211.825 196.837 211.229 197.05 210.438" stroke="#263238" stroke-width="0.5" stroke-linecap="round" stroke-linejoin="round"/>
<path d="M233.496 190.214C233.065 189.918 232.668 189.678 232.314 189.499" stroke="#263238" stroke-width="0.5" stroke-linecap="round" stroke-linejoin="round"/>
<path d="M247.414 204.253C246.149 202.242 244.653 200.27 242.917 198.563C241.306 196.978 237.38 193.125 234.413 190.876" stroke="#263238" stroke-width="0.5" stroke-linecap="round" stroke-linejoin="round"/>
<path d="M252.007 213.813C251.246 211.708 250.094 208.923 248.503 206.087" stroke="#263238" stroke-width="0.5" stroke-linecap="round" stroke-linejoin="round"/>
<path d="M252.523 215.3C252.456 215.099 252.385 214.885 252.307 214.664" stroke="#263238" stroke-width="0.5" stroke-linecap="round" stroke-linejoin="round"/>
<path opacity="0.2" d="M322.065 136.936C321.978 136.86 321.967 136.904 322.065 136.936Z" fill="#263238"/>
<mask id="mask3_1150_9686" style="mask-type:luminance" maskUnits="userSpaceOnUse" x="173" y="180" width="97" height="77">
<path d="M242.387 256.919C240.874 255.942 239.531 255.12 238.517 254.589C236.108 253.331 228.346 250.766 228.346 250.766C228.346 250.766 224.255 253.692 215.376 252.412C206.499 251.135 195.498 248.749 191.947 243.454C188.397 238.158 185.228 236.571 183.317 233.423C182.605 232.25 182.054 230.841 181.118 229.527C179.555 227.322 177.691 225.171 177.863 223.308C178.136 220.338 183.966 218.776 187.554 221.93C191.143 225.084 197.162 232.762 198.679 231.593C200.196 230.425 196.175 224.53 193.992 216.947L190.345 209.606L181.806 196.508L180.051 193.93C180.051 193.93 174.42 188.279 173.95 183.678C173.95 183.678 173.586 179.204 177.645 180.402C181.318 181.485 181.819 182.332 189.418 190.202C197.013 198.068 199.437 204.272 201.027 203.39C202.616 202.508 202.144 200.951 200.603 198.758C199.061 196.566 196.227 192.361 199.582 190.079C202.946 187.795 205.928 187.594 207.932 190.799C209.935 193.999 211.645 196.497 212.297 196.323C212.297 196.323 209.316 193.307 208.64 190.782C208.342 189.671 208.209 188.206 211.719 187.352C215.228 186.498 216.802 188.162 218.505 189.969C220.206 191.772 221.8 193.17 221.8 193.17C221.8 193.17 225.036 190.651 227.854 192.068C230.666 193.486 236.414 199.128 238.454 201.137C243.796 206.39 246.826 214.138 248.06 217.873C248.533 219.316 249.5 220.54 250.799 221.333C254.19 223.408 261.397 227.77 269.982 232.724" fill="white"/>
</mask>
<g mask="url(#mask3_1150_9686)">
<path d="M204.133 200.929C204.37 199.515 203.767 198.098 203.036 196.87C202.304 195.638 201.416 194.47 200.999 193.099C200.581 191.728 200.756 190.047 201.87 189.147C203.067 188.178 204.909 188.478 206.155 189.381C207.397 190.285 208.199 191.658 209.037 192.948C209.872 194.24 210.842 195.545 212.243 196.173C211.365 194.615 210.466 192.981 210.397 191.192C210.334 189.407 211.4 187.437 213.16 187.125C212.332 185.244 210.075 184.503 208.041 184.171C204.318 183.563 199.965 183.858 197.552 186.758C195.536 189.183 195.519 192.733 196.377 195.765C196.981 197.899 198.145 201.137 199.94 202.586C201.531 203.876 203.733 203.286 204.133 200.929Z" fill="#DFFF16"/>
<path opacity="0.5" d="M204.133 200.929C204.37 199.515 203.767 198.098 203.036 196.87C202.304 195.638 201.416 194.47 200.999 193.099C200.581 191.728 200.756 190.047 201.87 189.147C203.067 188.178 204.909 188.478 206.155 189.381C207.397 190.285 208.199 191.658 209.037 192.948C209.872 194.24 210.842 195.545 212.243 196.173C211.365 194.615 210.466 192.981 210.397 191.192C210.334 189.407 211.4 187.437 213.16 187.125C212.332 185.244 210.075 184.503 208.041 184.171C204.318 183.563 199.965 183.858 197.552 186.758C195.536 189.183 195.519 192.733 196.377 195.765C196.981 197.899 198.145 201.137 199.94 202.586C201.531 203.876 203.733 203.286 204.133 200.929Z" fill="white"/>
<path d="M173.322 183.636C176.891 187.193 180.464 190.753 184.033 194.309C183.59 196.404 184.51 198.576 185.821 200.269C187.133 201.961 188.831 203.309 190.292 204.875C194.163 209.016 196.306 214.73 196.112 220.395C196.102 220.698 196.044 221.061 195.767 221.185C195.404 221.346 195.047 220.953 194.846 220.61C187.744 208.774 180.639 196.939 173.537 185.103L173.325 183.645L173.322 183.636Z" fill="#DFFF16"/>
<g opacity="0.5">
<path d="M173.322 183.636C176.891 187.193 180.464 190.753 184.033 194.309C183.59 196.404 184.51 198.576 185.821 200.269C187.133 201.961 188.831 203.309 190.292 204.875C194.163 209.016 196.306 214.73 196.112 220.395C196.102 220.698 196.044 221.061 195.767 221.185C195.404 221.346 195.047 220.953 194.846 220.61C187.744 208.774 180.639 196.939 173.537 185.103L173.325 183.645L173.322 183.636Z" fill="white"/>
</g>
</g>
<path d="M242.387 256.919C240.874 255.942 239.531 255.12 238.517 254.589C236.108 253.331 228.346 250.766 228.346 250.766C228.346 250.766 224.255 253.692 215.376 252.412C206.499 251.135 195.498 248.749 191.947 243.454C188.397 238.158 185.228 236.571 183.317 233.423C182.605 232.25 182.054 230.841 181.118 229.527C179.555 227.322 177.691 225.171 177.863 223.308C178.136 220.338 183.966 218.776 187.554 221.93C191.143 225.084 197.162 232.762 198.679 231.593C200.196 230.425 196.175 224.53 193.992 216.947L190.345 209.606L181.806 196.508L180.051 193.93C180.051 193.93 174.42 188.279 173.95 183.678C173.95 183.678 173.586 179.204 177.645 180.402C181.318 181.485 181.819 182.332 189.418 190.202C197.013 198.068 199.437 204.272 201.027 203.39C202.616 202.508 202.144 200.951 200.603 198.758C199.061 196.566 196.227 192.361 199.582 190.079C202.946 187.795 205.928 187.594 207.932 190.799C209.935 193.999 211.645 196.497 212.297 196.323C212.297 196.323 209.316 193.307 208.64 190.782C208.342 189.671 208.209 188.206 211.719 187.352C215.228 186.498 216.802 188.162 218.505 189.969C220.206 191.772 221.8 193.17 221.8 193.17C221.8 193.17 225.036 190.651 227.854 192.068C230.666 193.486 236.414 199.128 238.454 201.137C243.796 206.39 246.826 214.138 248.06 217.873C248.533 219.316 249.5 220.54 250.799 221.333C254.19 223.408 261.397 227.77 269.982 232.724" stroke="#263238" stroke-width="0.5" stroke-miterlimit="10"/>
<path d="M181.021 227.719C181.06 227.248 181.245 226.596 181.769 225.721C183.036 223.602 183.583 223.021 181.96 221.189" stroke="#263238" stroke-width="0.5" stroke-linecap="round" stroke-linejoin="round"/>
<path d="M185.243 227.938C185.421 227.631 185.616 227.318 185.843 227.006" stroke="#263238" stroke-width="0.5" stroke-linecap="round" stroke-linejoin="round"/>
<path d="M183.825 232.374C183.895 231.525 184.129 230.185 184.853 228.681" stroke="#263238" stroke-width="0.5" stroke-linecap="round" stroke-linejoin="round"/>
<path d="M174.964 184.328C174.964 184.328 175.584 185.23 176.557 184.586C177.527 183.947 180.401 182.716 179.313 181.789" stroke="#263238" stroke-width="0.5" stroke-linecap="round" stroke-linejoin="round"/>
<path d="M185.823 192.881C186.546 192.19 187.504 191.454 188.642 191.017" stroke="#263238" stroke-width="0.5" stroke-linecap="round" stroke-linejoin="round"/>
<path d="M184.35 194.608C184.35 194.608 184.544 194.309 184.899 193.877" stroke="#263238" stroke-width="0.5" stroke-linecap="round" stroke-linejoin="round"/>
<path d="M216.875 197.788C218.627 196.813 219.852 195.713 223.497 195.959" stroke="#263238" stroke-width="0.5" stroke-linecap="round" stroke-linejoin="round"/>
<path d="M197.52 208.989C198.153 207.879 199.324 206.78 201.469 206.488C206.203 205.845 206.342 201.934 208.85 200.153C211.358 198.372 212.784 199.487 215.479 198.454" stroke="#263238" stroke-width="0.5" stroke-linecap="round" stroke-linejoin="round"/>
<path d="M196.758 211.684C196.758 211.684 196.754 211.087 196.976 210.298" stroke="#263238" stroke-width="0.5" stroke-linecap="round" stroke-linejoin="round"/>
<path d="M219.688 191.185C220.549 192.131 223.01 194.128 223.01 194.128" stroke="#263238" stroke-width="0.5" stroke-linecap="round" stroke-linejoin="round"/>
<path d="M233.496 190.214C233.065 189.918 232.668 189.678 232.314 189.499" stroke="#263238" stroke-width="0.5" stroke-linecap="round" stroke-linejoin="round"/>
<path d="M247.414 204.253C246.149 202.242 244.653 200.27 242.917 198.563C241.306 196.978 237.38 193.125 234.413 190.876" stroke="#263238" stroke-width="0.5" stroke-linecap="round" stroke-linejoin="round"/>
<path d="M252.007 213.813C251.246 211.708 250.094 208.923 248.503 206.087" stroke="#263238" stroke-width="0.5" stroke-linecap="round" stroke-linejoin="round"/>
<path d="M252.523 215.3C252.456 215.099 252.385 214.885 252.307 214.664" stroke="#263238" stroke-width="0.5" stroke-linecap="round" stroke-linejoin="round"/>
</g>
<defs>
<clipPath id="clip0_1150_9686">
<rect width="310" height="239" fill="white" transform="translate(-0.647339 81.1888) rotate(-15)"/>
</clipPath>
</defs>
</svg>
