<svg width="24" height="24" viewBox="0 0 24 24" fill="none" xmlns="http://www.w3.org/2000/svg">
<mask id="mask0_1463_16722" style="mask-type:alpha" maskUnits="userSpaceOnUse" x="0" y="0" width="24" height="24">
<rect width="24" height="24" fill="#D9D9D9"/>
</mask>
<g mask="url(#mask0_1463_16722)">
<path d="M2 6V1H7V3H4V6H2ZM20 6V3H17V1H22V6H20ZM2 23V18H4V21H7V23H2ZM17 23V21H20V18H22V23H17ZM7 18H17V6H7V18ZM7 20C6.45 20 5.97917 19.8042 5.5875 19.4125C5.19583 19.0208 5 18.55 5 18V6C5 5.45 5.19583 4.97917 5.5875 4.5875C5.97917 4.19583 6.45 4 7 4H17C17.55 4 18.0208 4.19583 18.4125 4.5875C18.8042 4.97917 19 5.45 19 6V18C19 18.55 18.8042 19.0208 18.4125 19.4125C18.0208 19.8042 17.55 20 17 20H7ZM9 10H15V8H9V10ZM9 13H15V11H9V13ZM9 16H15V14H9V16Z" fill="#DFFF16"/>
</g>
</svg>
