<svg width="24" height="24" viewBox="0 0 24 24" fill="none" xmlns="http://www.w3.org/2000/svg">
<mask id="mask0_234_2155" style="mask-type:alpha" maskUnits="userSpaceOnUse" x="0" y="0" width="24" height="24">
<rect width="24" height="24" fill="#D9D9D9"/>
</mask>
<g mask="url(#mask0_234_2155)">
<path d="M16 13C15.2333 12.3 14.4877 11.6127 13.763 10.938C13.0377 10.2627 12.396 9.6 11.838 8.95C11.2793 8.3 10.8333 7.67067 10.5 7.062C10.1667 6.454 10 5.86667 10 5.3C10 4.36667 10.3167 3.58333 10.95 2.95C11.5833 2.31667 12.3667 2 13.3 2C13.8333 2 14.3333 2.11233 14.8 2.337C15.2667 2.56233 15.6667 2.86667 16 3.25C16.3333 2.86667 16.7333 2.56233 17.2 2.337C17.6667 2.11233 18.1667 2 18.7 2C19.6333 2 20.4167 2.31667 21.05 2.95C21.6833 3.58333 22 4.36667 22 5.3C22 5.86667 21.8333 6.454 21.5 7.062C21.1667 7.67067 20.721 8.3 20.163 8.95C19.6043 9.6 18.9667 10.2627 18.25 10.938C17.5333 11.6127 16.7833 12.3 16 13ZM16 10.3C16.9833 9.36667 17.896 8.43733 18.738 7.512C19.5793 6.58733 20 5.85 20 5.3C20 4.91667 19.8793 4.604 19.638 4.362C19.396 4.12067 19.0833 4 18.7 4C18.4667 4 18.246 4.04567 18.038 4.137C17.8293 4.229 17.65 4.36667 17.5 4.55L16 6.35L14.5 4.55C14.35 4.36667 14.171 4.229 13.963 4.137C13.7543 4.04567 13.5333 4 13.3 4C12.9167 4 12.6043 4.12067 12.363 4.362C12.121 4.604 12 4.91667 12 5.3C12 5.85 12.4207 6.58733 13.262 7.512C14.104 8.43733 15.0167 9.36667 16 10.3ZM14 22.5L7 20.55V22H1V11H8.95L15.15 13.3C15.7 13.5 16.146 13.85 16.488 14.35C16.8293 14.85 17 15.4 17 16H19C19.8333 16 20.5417 16.275 21.125 16.825C21.7083 17.375 22 18.1 22 19V20L14 22.5ZM3 20H5V13H3V20ZM13.95 20.4L19.9 18.55C19.85 18.3667 19.7373 18.229 19.562 18.137C19.3873 18.0457 19.2 18 19 18H14.2C13.6833 18 13.2167 17.9667 12.8 17.9C12.3833 17.8333 11.9333 17.7167 11.45 17.55L9.725 16.95L10.3 15.05L12.3 15.7C12.6 15.8 12.95 15.875 13.35 15.925C13.75 15.975 14.3 16 15 16C15 15.8167 14.946 15.6417 14.838 15.475C14.7293 15.3083 14.6 15.2 14.45 15.15L8.6 13H7V18.5L13.95 20.4Z" fill="#E2E2E2"/>
</g>
</svg>
