<svg width="24" height="24" viewBox="0 0 24 24" fill="none" xmlns="http://www.w3.org/2000/svg">
<mask id="mask0_23_5675" style="mask-type:alpha" maskUnits="userSpaceOnUse" x="0" y="0" width="24" height="24">
<rect width="24" height="24" fill="#D9D9D9"/>
</mask>
<g mask="url(#mask0_23_5675)">
<path d="M21.0251 11.05V19C21.0251 19.55 20.8294 20.021 20.4381 20.413C20.0461 20.8043 19.5751 21 19.0251 21H5.02509C4.47509 21 4.00442 20.8043 3.61309 20.413C3.22109 20.021 3.02509 19.55 3.02509 19V11.05C2.64176 10.7 2.34609 10.25 2.13809 9.7C1.92942 9.15 1.92509 8.55 2.12509 7.9L3.17509 4.5C3.30842 4.06667 3.54609 3.70833 3.88809 3.425C4.22942 3.14167 4.62509 3 5.07509 3H18.9751C19.4251 3 19.8168 3.13733 20.1501 3.412C20.4834 3.68733 20.7251 4.05 20.8751 4.5L21.9251 7.9C22.1251 8.55 22.1211 9.14167 21.9131 9.675C21.7044 10.2083 21.4084 10.6667 21.0251 11.05ZM14.2251 10C14.6751 10 15.0168 9.84567 15.2501 9.537C15.4834 9.229 15.5751 8.88333 15.5251 8.5L14.9751 5H13.0251V8.7C13.0251 9.05 13.1418 9.35433 13.3751 9.613C13.6084 9.871 13.8918 10 14.2251 10ZM9.72509 10C10.1084 10 10.4211 9.871 10.6631 9.613C10.9044 9.35433 11.0251 9.05 11.0251 8.7V5H9.07509L8.52509 8.5C8.45842 8.9 8.54609 9.25 8.78809 9.55C9.02942 9.85 9.34176 10 9.72509 10ZM5.27509 10C5.57509 10 5.83742 9.89167 6.06209 9.675C6.28742 9.45833 6.42509 9.18333 6.47509 8.85L7.02509 5H5.07509L4.07509 8.35C3.97509 8.68333 4.02909 9.04167 4.23709 9.425C4.44576 9.80833 4.79176 10 5.27509 10ZM18.7751 10C19.2584 10 19.6084 9.80833 19.8251 9.425C20.0418 9.04167 20.0918 8.68333 19.9751 8.35L18.9251 5H17.0251L17.5751 8.85C17.6251 9.18333 17.7628 9.45833 17.9881 9.675C18.2128 9.89167 18.4751 10 18.7751 10ZM5.02509 19H19.0251V11.95C18.9418 11.9833 18.8878 12 18.8631 12H18.7751C18.3251 12 17.9291 11.925 17.5871 11.775C17.2458 11.625 16.9084 11.3833 16.5751 11.05C16.2751 11.35 15.9334 11.5833 15.5501 11.75C15.1668 11.9167 14.7584 12 14.3251 12C13.8751 12 13.4541 11.9167 13.0621 11.75C12.6708 11.5833 12.3251 11.35 12.0251 11.05C11.7418 11.35 11.4128 11.5833 11.0381 11.75C10.6628 11.9167 10.2584 12 9.82509 12C9.34176 12 8.90409 11.9167 8.51209 11.75C8.12076 11.5833 7.77509 11.35 7.47509 11.05C7.12509 11.4 6.77942 11.6457 6.43809 11.787C6.09609 11.929 5.70842 12 5.27509 12H5.16309C5.12109 12 5.07509 11.9833 5.02509 11.95V19Z" fill="#6A6A6A"/>
</g>
</svg>
