<svg width="24" height="24" viewBox="0 0 24 24" fill="none" xmlns="http://www.w3.org/2000/svg">
<mask id="mask0_1220_14579" style="mask-type:alpha" maskUnits="userSpaceOnUse" x="0" y="0" width="24" height="24">
<rect width="24" height="24" fill="#D9D9D9"/>
</mask>
<g mask="url(#mask0_1220_14579)">
<path d="M2 24V20H22V24H2ZM4 18V14.25L13.05 5.19999L16.8 8.94999L7.75 18H4ZM6 16H6.9L14 8.94999L13.05 7.99999L6 15.1V16ZM17.925 7.84999L14.175 4.09999L15.975 2.29999C16.1583 2.09999 16.3917 2.00416 16.675 2.01249C16.9583 2.02083 17.1917 2.11666 17.375 2.29999L19.725 4.64999C19.9083 4.83333 20 5.06249 20 5.33749C20 5.61249 19.9083 5.84999 19.725 6.04999L17.925 7.84999Z" fill="#DFFF16"/>
</g>
</svg>
