<svg width="24" height="24" viewBox="0 0 24 24" fill="none" xmlns="http://www.w3.org/2000/svg">
<mask id="mask0_261_4618" style="mask-type:luminance" maskUnits="userSpaceOnUse" x="1" y="1" width="22" height="22">
<path d="M22.25 10H12V14.25H17.9C17.35 16.95 15.05 18.5 12 18.5C8.4 18.5 5.5 15.6 5.5 12C5.5 8.4 8.4 5.5 12 5.5C13.55 5.5 14.95 6.05 16.05 6.95L19.25 3.75C17.3 2.05 14.8 1 12 1C5.9 1 1 5.9 1 12C1 18.1 5.9 23 12 23C17.5 23 22.5 19 22.5 12C22.5 11.35 22.4 10.65 22.25 10Z" fill="white"/>
</mask>
<g mask="url(#mask0_261_4618)">
<path d="M0 18.5V5.5L8.5 12L0 18.5Z" fill="#FBBC05"/>
</g>
<mask id="mask1_261_4618" style="mask-type:luminance" maskUnits="userSpaceOnUse" x="1" y="1" width="22" height="22">
<path d="M22.25 10H12V14.25H17.9C17.35 16.95 15.05 18.5 12 18.5C8.4 18.5 5.5 15.6 5.5 12C5.5 8.4 8.4 5.5 12 5.5C13.55 5.5 14.95 6.05 16.05 6.95L19.25 3.75C17.3 2.05 14.8 1 12 1C5.9 1 1 5.9 1 12C1 18.1 5.9 23 12 23C17.5 23 22.5 19 22.5 12C22.5 11.35 22.4 10.65 22.25 10Z" fill="white"/>
</mask>
<g mask="url(#mask1_261_4618)">
<path d="M0 5.5L8.5 12L12 8.95L24 7V0H0V5.5Z" fill="#EA4335"/>
</g>
<mask id="mask2_261_4618" style="mask-type:luminance" maskUnits="userSpaceOnUse" x="1" y="1" width="22" height="22">
<path d="M22.25 10H12V14.25H17.9C17.35 16.95 15.05 18.5 12 18.5C8.4 18.5 5.5 15.6 5.5 12C5.5 8.4 8.4 5.5 12 5.5C13.55 5.5 14.95 6.05 16.05 6.95L19.25 3.75C17.3 2.05 14.8 1 12 1C5.9 1 1 5.9 1 12C1 18.1 5.9 23 12 23C17.5 23 22.5 19 22.5 12C22.5 11.35 22.4 10.65 22.25 10Z" fill="white"/>
</mask>
<g mask="url(#mask2_261_4618)">
<path d="M0 18.5L15 7L18.95 7.5L24 0V24H0V18.5Z" fill="#34A853"/>
</g>
<mask id="mask3_261_4618" style="mask-type:luminance" maskUnits="userSpaceOnUse" x="1" y="1" width="22" height="22">
<path d="M22.25 10H12V14.25H17.9C17.35 16.95 15.05 18.5 12 18.5C8.4 18.5 5.5 15.6 5.5 12C5.5 8.4 8.4 5.5 12 5.5C13.55 5.5 14.95 6.05 16.05 6.95L19.25 3.75C17.3 2.05 14.8 1 12 1C5.9 1 1 5.9 1 12C1 18.1 5.9 23 12 23C17.5 23 22.5 19 22.5 12C22.5 11.35 22.4 10.65 22.25 10Z" fill="white"/>
</mask>
<g mask="url(#mask3_261_4618)">
<path d="M24 24L8.5 12L6.5 10.5L24 5.5V24Z" fill="#4285F4"/>
</g>
</svg>
