<svg width="32" height="32" viewBox="0 0 32 32" fill="none" xmlns="http://www.w3.org/2000/svg">
<g clip-path="url(#clip0_1138_8721)">
<mask id="mask0_1138_8721" style="mask-type:luminance" maskUnits="userSpaceOnUse" x="0" y="0" width="32" height="32">
<path d="M32 0H0V32H32V0Z" fill="white"/>
</mask>
<g mask="url(#mask0_1138_8721)">
<path d="M12.5679 9.5568C12.8179 9.5568 12.9997 9.37498 13.0338 9.1136C13.3975 6.94318 13.3634 6.95454 15.5906 6.54545C15.8975 6.48863 16.068 6.32954 16.068 6.07954C16.068 5.81818 15.8975 5.65909 15.6361 5.60226C13.3179 5.11363 13.2725 5.15909 13.0338 3.04545C13.0111 2.78408 12.8179 2.60226 12.5679 2.60226C12.3066 2.60226 12.1361 2.78408 12.0906 3.03409C11.7157 5.24999 11.7952 5.32954 9.51108 5.60226C9.24977 5.625 9.05653 5.81818 9.05653 6.07954C9.05653 6.32954 9.22701 6.48863 9.48839 6.54545C11.7952 7.03409 11.8179 6.99999 12.0906 9.13636C12.1133 9.37498 12.3066 9.5568 12.5679 9.5568ZM23.6816 13.7386C23.9543 13.7386 24.1589 13.5454 24.2157 13.2614C24.6816 10.8636 24.5452 10.8295 27.0338 10.4091C27.3634 10.3523 27.5679 10.1705 27.5679 9.89774C27.5679 9.61367 27.3634 9.43185 27.0906 9.37498C24.5225 8.86363 24.4429 8.87498 24.2157 6.53409C24.1816 6.23863 23.9543 6.04545 23.6816 6.04545C23.3975 6.04545 23.2042 6.23863 23.1589 6.52272C22.7838 8.98865 22.8293 9.10225 20.2952 9.37498C20.0111 9.39774 19.7952 9.61367 19.8066 9.89774C19.8179 10.1705 19.9884 10.3523 20.2838 10.4091C22.8293 10.8977 22.8975 10.9091 23.1589 13.2727C23.1816 13.5454 23.3975 13.7386 23.6816 13.7386ZM6.14746 17.7727C6.43155 17.7727 6.6361 17.5681 6.65882 17.2841C6.92018 14.8636 7.01109 14.8523 9.49973 14.4318C9.82926 14.375 10.0224 14.1932 10.0224 13.9204C10.0224 13.6364 9.82926 13.4545 9.55653 13.3977C6.98837 12.8864 6.99973 12.8864 6.65882 10.5568C6.62474 10.2727 6.43155 10.0568 6.14746 10.0568C5.86337 10.0568 5.65882 10.2727 5.62474 10.5454C5.36337 13.0227 5.28382 13.0227 2.74973 13.3977C2.46564 13.4432 2.27246 13.6364 2.27246 13.9204C2.27246 14.1932 2.45428 14.375 2.73837 14.4318C5.28382 14.9318 5.23837 14.9545 5.62474 17.3068C5.67019 17.5681 5.86337 17.7727 6.14746 17.7727ZM25.7952 27.6137C26.6702 28.5 28.1702 28.5 29.0565 27.6137C29.9429 26.7159 29.9429 25.25 29.0565 24.3523L18.2838 13.4432C17.4202 12.5681 15.9202 12.5681 15.0224 13.4432C14.1361 14.3409 14.1474 15.8182 15.0224 16.7046L25.7952 27.6137ZM20.1702 19.4772L16.4088 15.7273C16.0565 15.375 15.9088 14.8977 16.2725 14.5455C16.602 14.2273 17.0793 14.3523 17.4429 14.7159L21.1474 18.4432L20.1702 19.4772ZM11.9429 28.3636C12.3066 28.3636 12.5906 28.1136 12.6248 27.7159C12.977 24.5454 13.102 24.375 16.3975 23.9318C16.8293 23.875 17.0906 23.6137 17.0906 23.25C17.0906 22.8977 16.8293 22.625 16.4884 22.5568C13.0793 21.8864 12.9656 21.9204 12.6248 18.7727C12.5906 18.375 12.3066 18.125 11.9429 18.125C11.5679 18.125 11.2952 18.375 11.2498 18.7614C10.8861 22.0341 10.7725 22.1477 7.40882 22.5568C7.05655 22.6022 6.78382 22.8977 6.78382 23.25C6.78382 23.6022 7.04519 23.8636 7.39748 23.9318C10.8066 24.6137 10.8861 24.6022 11.2498 27.75C11.2952 28.1136 11.5906 28.3636 11.9429 28.3636Z" fill="#F2B925"/>
</g>
</g>
<defs>
<clipPath id="clip0_1138_8721">
<rect width="32" height="32" fill="white"/>
</clipPath>
</defs>
</svg>
