<svg width="593" height="464" viewBox="0 0 593 464" fill="none" xmlns="http://www.w3.org/2000/svg">
<g opacity="0.3" clip-path="url(#clip0_1205_9731)">
<g filter="url(#filter0_d_1205_9731)">
<path fill-rule="evenodd" clip-rule="evenodd" d="M164.137 116.926C146.89 121 136.211 138.285 140.285 155.532L191.925 374.134C195.34 388.587 208.03 398.427 222.202 398.839L251.166 96.3672L164.137 116.926ZM284.726 88.4394L255.653 392.051L456.767 344.542C474.014 340.468 484.694 323.183 480.619 305.936L428.979 87.3341C424.905 70.0869 407.619 59.4084 390.373 63.4825L284.726 88.4394ZM310.437 147.649L448.526 170.091L456.051 201.944L342.602 283.808L334.856 251.017L413.19 195.254L318.183 180.44L310.437 147.649Z" fill="#727272"/>
</g>
</g>
<g filter="url(#filter1_dd_1205_9731)">
<rect x="307" y="89.9999" width="243.934" height="64" rx="32" fill="#0B0B0B" shape-rendering="crispEdges"/>
<path d="M368.999 122.667C367.159 122.667 365.666 124.16 365.666 126C365.666 127.84 367.159 129.333 368.999 129.333C370.839 129.333 372.333 127.84 372.333 126C372.333 124.16 370.839 122.667 368.999 122.667ZM368.439 126.847C368.606 127.013 368.606 127.287 368.439 127.46C368.353 127.547 368.246 127.587 368.133 127.587C368.019 127.587 367.913 127.547 367.826 127.46L366.673 126.307C366.506 126.14 366.506 125.867 366.673 125.693L367.826 124.54C367.993 124.373 368.266 124.373 368.439 124.54C368.606 124.707 368.606 124.98 368.439 125.153L367.593 126L368.439 126.847ZM371.319 126.307L370.166 127.46C370.079 127.547 369.973 127.587 369.859 127.587C369.746 127.587 369.639 127.547 369.553 127.46C369.386 127.293 369.386 127.02 369.553 126.847L370.406 126L369.559 125.153C369.393 124.987 369.393 124.713 369.559 124.54C369.726 124.373 369.999 124.373 370.173 124.54L371.326 125.693C371.486 125.867 371.486 126.133 371.319 126.307Z" fill="#DFFF16"/>
<path d="M371 118.667V121.647C371 121.88 370.773 122.04 370.56 121.96C369.82 121.673 368.993 121.58 368.127 121.753C366.393 122.1 365.013 123.52 364.727 125.267C364.553 126.333 364.767 127.34 365.253 128.16C365.387 128.387 365.227 128.667 364.967 128.667H362.333C360 128.667 359 127.333 359 125.333V118.667C359 116.893 359.787 115.647 361.593 115.387C361.787 115.36 361.96 115.513 361.967 115.713L361.987 116.387C362.007 117.453 362.907 118.333 363.987 118.333H366C367.1 118.333 368 117.433 368 116.333V115.713C368 115.513 368.173 115.353 368.367 115.38C370.2 115.627 371 116.88 371 118.667Z" fill="#DFFF16"/>
<path d="M367 116V116.333C367 116.88 366.546 117.333 366 117.333H363.98C363.44 117.333 362.993 116.9 362.98 116.36L362.973 116.02C362.96 115.64 363.26 115.333 363.64 115.333H366.333C366.7 115.333 367 115.633 367 116Z" fill="#DFFF16"/>
<path d="M383.434 116.4H381.958V117.912C381.958 118.236 381.868 118.506 381.724 118.704C381.58 118.902 381.364 118.992 381.076 118.992H379.024V120.342H381.058C381.454 120.342 381.742 120.27 381.922 120.108V129H383.434V116.4ZM385.616 122.412V122.988C385.616 124.23 385.814 125.31 386.21 126.228C386.606 127.164 387.182 127.866 387.902 128.37C388.622 128.874 389.45 129.108 390.404 129.108C391.34 129.108 392.168 128.874 392.888 128.37C393.608 127.866 394.166 127.164 394.562 126.228C394.958 125.31 395.174 124.23 395.174 122.988V122.412C395.174 121.224 394.958 120.18 394.562 119.244C394.166 118.326 393.59 117.606 392.87 117.084C392.15 116.562 391.322 116.292 390.404 116.292C389.468 116.292 388.622 116.562 387.902 117.084C387.182 117.606 386.606 118.326 386.21 119.244C385.814 120.18 385.616 121.224 385.616 122.412ZM393.23 119.91C393.5 120.63 393.644 121.494 393.644 122.466V122.934C393.644 123.924 393.5 124.77 393.23 125.49C392.96 126.21 392.582 126.768 392.096 127.146C391.61 127.542 391.052 127.722 390.404 127.722C389.756 127.722 389.18 127.542 388.694 127.146C388.19 126.768 387.812 126.21 387.542 125.49C387.272 124.77 387.146 123.924 387.146 122.934V122.466C387.146 121.494 387.272 120.63 387.542 119.91C387.812 119.19 388.19 118.65 388.694 118.254C389.18 117.876 389.756 117.678 390.404 117.678C391.052 117.678 391.61 117.876 392.096 118.254C392.582 118.65 392.96 119.19 393.23 119.91ZM397.823 127.65C397.571 127.29 397.229 127.11 396.797 127.11C396.419 127.11 396.131 127.218 395.915 127.416C395.699 127.614 395.609 127.866 395.609 128.154C395.609 128.478 395.699 128.712 395.879 128.874C396.059 129.054 396.275 129.126 396.563 129.126C396.815 129.126 397.031 129.054 397.175 128.91C397.175 128.964 397.193 129.036 397.193 129.144C397.193 129.522 397.067 129.846 396.833 130.134C396.581 130.422 396.203 130.584 395.681 130.584V131.43C396.473 131.412 397.085 131.178 397.535 130.746C397.985 130.314 398.219 129.72 398.219 128.946C398.219 128.442 398.075 128.01 397.823 127.65ZM398.782 122.412V122.988C398.782 124.23 398.98 125.31 399.376 126.228C399.772 127.164 400.348 127.866 401.068 128.37C401.788 128.874 402.616 129.108 403.57 129.108C404.506 129.108 405.334 128.874 406.054 128.37C406.774 127.866 407.332 127.164 407.728 126.228C408.124 125.31 408.34 124.23 408.34 122.988V122.412C408.34 121.224 408.124 120.18 407.728 119.244C407.332 118.326 406.756 117.606 406.036 117.084C405.316 116.562 404.488 116.292 403.57 116.292C402.634 116.292 401.788 116.562 401.068 117.084C400.348 117.606 399.772 118.326 399.376 119.244C398.98 120.18 398.782 121.224 398.782 122.412ZM406.396 119.91C406.666 120.63 406.81 121.494 406.81 122.466V122.934C406.81 123.924 406.666 124.77 406.396 125.49C406.126 126.21 405.748 126.768 405.262 127.146C404.776 127.542 404.218 127.722 403.57 127.722C402.922 127.722 402.346 127.542 401.86 127.146C401.356 126.768 400.978 126.21 400.708 125.49C400.438 124.77 400.312 123.924 400.312 122.934V122.466C400.312 121.494 400.438 120.63 400.708 119.91C400.978 119.19 401.356 118.65 401.86 118.254C402.346 117.876 402.922 117.678 403.57 117.678C404.218 117.678 404.776 117.876 405.262 118.254C405.748 118.65 406.126 119.19 406.396 119.91ZM410.032 122.412V122.988C410.032 124.23 410.23 125.31 410.626 126.228C411.022 127.164 411.598 127.866 412.318 128.37C413.038 128.874 413.866 129.108 414.82 129.108C415.756 129.108 416.584 128.874 417.304 128.37C418.024 127.866 418.582 127.164 418.978 126.228C419.374 125.31 419.59 124.23 419.59 122.988V122.412C419.59 121.224 419.374 120.18 418.978 119.244C418.582 118.326 418.006 117.606 417.286 117.084C416.566 116.562 415.738 116.292 414.82 116.292C413.884 116.292 413.038 116.562 412.318 117.084C411.598 117.606 411.022 118.326 410.626 119.244C410.23 120.18 410.032 121.224 410.032 122.412ZM417.646 119.91C417.916 120.63 418.06 121.494 418.06 122.466V122.934C418.06 123.924 417.916 124.77 417.646 125.49C417.376 126.21 416.998 126.768 416.512 127.146C416.026 127.542 415.468 127.722 414.82 127.722C414.172 127.722 413.596 127.542 413.11 127.146C412.606 126.768 412.228 126.21 411.958 125.49C411.688 124.77 411.562 123.924 411.562 122.934V122.466C411.562 121.494 411.688 120.63 411.958 119.91C412.228 119.19 412.606 118.65 413.11 118.254C413.596 117.876 414.172 117.678 414.82 117.678C415.468 117.678 416.026 117.876 416.512 118.254C416.998 118.65 417.376 119.19 417.646 119.91ZM421.282 122.412V122.988C421.282 124.23 421.48 125.31 421.876 126.228C422.272 127.164 422.848 127.866 423.568 128.37C424.288 128.874 425.116 129.108 426.07 129.108C427.006 129.108 427.834 128.874 428.554 128.37C429.274 127.866 429.832 127.164 430.228 126.228C430.624 125.31 430.84 124.23 430.84 122.988V122.412C430.84 121.224 430.624 120.18 430.228 119.244C429.832 118.326 429.256 117.606 428.536 117.084C427.816 116.562 426.988 116.292 426.07 116.292C425.134 116.292 424.288 116.562 423.568 117.084C422.848 117.606 422.272 118.326 421.876 119.244C421.48 120.18 421.282 121.224 421.282 122.412ZM428.896 119.91C429.166 120.63 429.31 121.494 429.31 122.466V122.934C429.31 123.924 429.166 124.77 428.896 125.49C428.626 126.21 428.248 126.768 427.762 127.146C427.276 127.542 426.718 127.722 426.07 127.722C425.422 127.722 424.846 127.542 424.36 127.146C423.856 126.768 423.478 126.21 423.208 125.49C422.938 124.77 422.812 123.924 422.812 122.934V122.466C422.812 121.494 422.938 120.63 423.208 119.91C423.478 119.19 423.856 118.65 424.36 118.254C424.846 117.876 425.422 117.678 426.07 117.678C426.718 117.678 427.276 117.876 427.762 118.254C428.248 118.65 428.626 119.19 428.896 119.91ZM436.594 129H438.214L439.546 125.598H445.036L446.368 129H448.042L443.254 116.4H441.4L436.594 129ZM440.014 124.176L442.282 118.11L444.568 124.176H440.014ZM454.31 116.4H449.468V129H451.034V124.158H454.31C455.138 124.158 455.858 124.014 456.488 123.69C457.118 123.366 457.604 122.916 457.964 122.322C458.306 121.746 458.486 121.062 458.486 120.27C458.486 119.496 458.306 118.812 457.964 118.236C457.622 117.66 457.136 117.21 456.506 116.886C455.858 116.562 455.138 116.4 454.31 116.4ZM451.034 122.718V117.84H454.184C455.012 117.84 455.66 118.074 456.146 118.506C456.632 118.938 456.884 119.532 456.884 120.27C456.884 121.026 456.632 121.62 456.146 122.052C455.642 122.502 454.994 122.718 454.166 122.718H451.034ZM460.156 116.4V129H461.722V116.4H460.156ZM468.874 116.4V129H472.6C473.896 129 475.012 128.748 475.966 128.226C476.92 127.704 477.658 126.966 478.162 126.012C478.666 125.058 478.936 123.96 478.936 122.7C478.936 121.44 478.666 120.342 478.162 119.388C477.658 118.452 476.92 117.714 475.966 117.192C475.012 116.67 473.896 116.4 472.6 116.4H468.874ZM472.6 127.56H470.44V117.84H472.6C474.112 117.84 475.264 118.29 476.092 119.154C476.92 120.018 477.334 121.206 477.334 122.7C477.334 124.194 476.92 125.382 476.092 126.246C475.264 127.128 474.094 127.56 472.6 127.56ZM482.553 128.514C483.237 128.91 484.029 129.108 484.929 129.108C485.811 129.108 486.603 128.91 487.287 128.514C487.971 128.118 488.511 127.578 488.907 126.858C489.285 126.156 489.483 125.346 489.483 124.41C489.483 123.492 489.285 122.682 488.907 121.962C488.511 121.26 487.971 120.702 487.287 120.306C486.603 119.91 485.811 119.712 484.929 119.712C484.029 119.712 483.237 119.91 482.553 120.306C481.869 120.702 481.329 121.26 480.951 121.962C480.555 122.682 480.375 123.492 480.375 124.41C480.375 125.346 480.555 126.156 480.951 126.858C481.329 127.578 481.869 128.118 482.553 128.514ZM486.513 127.362C486.045 127.65 485.523 127.794 484.929 127.794C484.317 127.794 483.795 127.65 483.327 127.362C482.859 127.074 482.517 126.678 482.265 126.156C482.013 125.652 481.887 125.058 481.887 124.41C481.887 123.762 482.013 123.186 482.265 122.664C482.517 122.16 482.859 121.746 483.327 121.458C483.795 121.17 484.317 121.026 484.929 121.026C485.523 121.026 486.045 121.17 486.513 121.458C486.981 121.746 487.341 122.16 487.593 122.664C487.845 123.186 487.971 123.762 487.971 124.41C487.971 125.058 487.845 125.652 487.593 126.156C487.341 126.678 486.981 127.074 486.513 127.362ZM498.016 128.244C498.718 127.668 499.168 126.858 499.366 125.832H497.89C497.746 126.444 497.458 126.93 497.008 127.272C496.54 127.632 495.982 127.794 495.316 127.794C494.434 127.794 493.714 127.488 493.174 126.858C492.634 126.228 492.364 125.4 492.364 124.392C492.364 123.402 492.634 122.592 493.174 121.962C493.714 121.35 494.434 121.026 495.316 121.026C495.964 121.026 496.504 121.206 496.972 121.548C497.422 121.908 497.728 122.376 497.872 122.952H499.366C499.186 121.944 498.736 121.152 498.034 120.576C497.332 120 496.45 119.712 495.37 119.712C494.47 119.712 493.696 119.91 493.012 120.306C492.328 120.702 491.788 121.242 491.41 121.944C491.032 122.664 490.852 123.474 490.852 124.392C490.852 125.328 491.032 126.138 491.41 126.858C491.77 127.578 492.292 128.118 492.976 128.514C493.642 128.91 494.416 129.108 495.316 129.108C496.396 129.108 497.296 128.82 498.016 128.244Z" fill="#EEEEEE"/>
<rect x="304.5" y="87.4999" width="248.934" height="69" rx="34.5" stroke="#151515" stroke-width="5" shape-rendering="crispEdges"/>
</g>
<g filter="url(#filter2_d_1205_9731)">
<rect x="310" y="289" width="243.934" height="64" rx="32" fill="#0B0B0B" shape-rendering="crispEdges"/>
<path d="M374.373 320.16L373.466 319.107C373.293 318.907 373.153 318.533 373.153 318.267V317.133C373.153 316.427 372.573 315.847 371.866 315.847H370.733C370.473 315.847 370.093 315.707 369.893 315.533L368.839 314.627C368.379 314.233 367.626 314.233 367.159 314.627L366.113 315.54C365.913 315.707 365.533 315.847 365.273 315.847H364.119C363.413 315.847 362.833 316.427 362.833 317.133V318.273C362.833 318.533 362.693 318.907 362.526 319.107L361.626 320.167C361.239 320.627 361.239 321.373 361.626 321.833L362.526 322.893C362.693 323.093 362.833 323.467 362.833 323.727V324.867C362.833 325.573 363.413 326.153 364.119 326.153H365.273C365.533 326.153 365.913 326.293 366.113 326.467L367.166 327.373C367.626 327.767 368.379 327.767 368.846 327.373L369.899 326.467C370.099 326.293 370.473 326.153 370.739 326.153H371.873C372.579 326.153 373.159 325.573 373.159 324.867V323.733C373.159 323.473 373.299 323.093 373.473 322.893L374.379 321.84C374.766 321.38 374.766 320.62 374.373 320.16ZM370.773 319.74L367.553 322.96C367.459 323.053 367.333 323.107 367.199 323.107C367.066 323.107 366.939 323.053 366.846 322.96L365.233 321.347C365.039 321.153 365.039 320.833 365.233 320.64C365.426 320.447 365.746 320.447 365.939 320.64L367.199 321.9L370.066 319.033C370.259 318.84 370.579 318.84 370.773 319.033C370.966 319.227 370.966 319.547 370.773 319.74Z" fill="#DFFF16"/>
<path d="M383.428 318.352C382.924 319.324 382.69 320.44 382.69 321.7C382.69 322.96 382.924 324.076 383.428 325.048C383.932 326.02 384.634 326.758 385.534 327.298C386.434 327.838 387.46 328.108 388.612 328.108C389.584 328.108 390.43 327.91 391.132 327.478C391.816 327.064 392.338 326.578 392.698 326.002L392.86 328H394.156V321.178H388.846V322.618H392.626V323.05C392.626 323.788 392.446 324.436 392.104 324.976C391.762 325.516 391.294 325.948 390.682 326.236C390.07 326.524 389.386 326.668 388.63 326.668C387.766 326.668 387.01 326.47 386.362 326.038C385.696 325.624 385.192 325.03 384.832 324.274C384.472 323.518 384.292 322.672 384.292 321.7C384.292 320.746 384.472 319.882 384.832 319.126C385.192 318.37 385.696 317.794 386.362 317.362C387.028 316.948 387.802 316.732 388.666 316.732C389.602 316.732 390.412 316.984 391.078 317.47C391.726 317.956 392.176 318.64 392.428 319.504H393.976C393.724 318.208 393.13 317.182 392.194 316.426C391.258 315.67 390.088 315.292 388.702 315.292C387.496 315.292 386.434 315.562 385.534 316.102C384.616 316.642 383.914 317.38 383.428 318.352ZM396.605 320.944C396.245 321.664 396.065 322.474 396.065 323.41C396.065 324.346 396.245 325.156 396.623 325.876C397.001 326.596 397.541 327.136 398.225 327.532C398.909 327.928 399.701 328.108 400.619 328.108C401.663 328.108 402.545 327.82 403.265 327.226C403.985 326.632 404.435 325.858 404.615 324.922H403.121C402.959 325.516 402.653 325.984 402.185 326.308C401.717 326.632 401.159 326.794 400.511 326.794C399.647 326.794 398.963 326.524 398.441 325.984C397.901 325.444 397.631 324.724 397.613 323.824V323.698H404.741C404.759 323.41 404.777 323.212 404.777 323.068C404.741 322.186 404.543 321.412 404.183 320.746C403.805 320.098 403.301 319.594 402.653 319.234C402.005 318.892 401.249 318.712 400.421 318.712C399.557 318.712 398.801 318.91 398.153 319.306C397.487 319.702 396.965 320.242 396.605 320.944ZM403.247 322.474H397.703C397.775 321.754 398.063 321.16 398.603 320.692C399.125 320.242 399.737 320.008 400.439 320.008C401.213 320.008 401.861 320.224 402.365 320.656C402.869 321.088 403.175 321.7 403.247 322.474ZM406.968 320.17V325.606C406.968 326.434 407.148 327.046 407.508 327.424C407.868 327.82 408.498 328 409.362 328H411.054V326.65H409.452C409.074 326.65 408.804 326.578 408.66 326.416C408.516 326.254 408.444 325.984 408.444 325.588V320.17H410.766V318.82H408.444V316.246H406.968V318.82H405.312V320.17H406.968ZM417.031 315.4V328H418.597V322.492H423.781V321.052H418.597V316.84H424.861V315.4H417.031ZM425.855 320.944C425.495 321.664 425.315 322.474 425.315 323.41C425.315 324.346 425.495 325.156 425.873 325.876C426.251 326.596 426.791 327.136 427.475 327.532C428.159 327.928 428.951 328.108 429.869 328.108C430.913 328.108 431.795 327.82 432.515 327.226C433.235 326.632 433.685 325.858 433.865 324.922H432.371C432.209 325.516 431.903 325.984 431.435 326.308C430.967 326.632 430.409 326.794 429.761 326.794C428.897 326.794 428.213 326.524 427.691 325.984C427.151 325.444 426.881 324.724 426.863 323.824V323.698H433.991C434.009 323.41 434.027 323.212 434.027 323.068C433.991 322.186 433.793 321.412 433.433 320.746C433.055 320.098 432.551 319.594 431.903 319.234C431.255 318.892 430.499 318.712 429.671 318.712C428.807 318.712 428.051 318.91 427.403 319.306C426.737 319.702 426.215 320.242 425.855 320.944ZM432.497 322.474H426.953C427.025 321.754 427.313 321.16 427.853 320.692C428.375 320.242 428.987 320.008 429.689 320.008C430.463 320.008 431.111 320.224 431.615 320.656C432.119 321.088 432.425 321.7 432.497 322.474ZM444.297 326.65H443.847C443.433 326.65 443.235 326.434 443.235 325.984V322.024C443.235 320.962 442.911 320.152 442.263 319.576C441.615 319 440.715 318.712 439.545 318.712C438.429 318.712 437.529 318.964 436.845 319.468C436.161 319.972 435.765 320.674 435.657 321.574H437.133C437.223 321.106 437.475 320.746 437.889 320.458C438.303 320.17 438.825 320.026 439.473 320.026C440.193 320.026 440.751 320.206 441.147 320.53C441.543 320.872 441.759 321.34 441.759 321.934V322.564H439.059C437.853 322.564 436.935 322.816 436.305 323.302C435.675 323.806 435.369 324.508 435.369 325.426C435.369 326.254 435.675 326.92 436.287 327.388C436.899 327.874 437.727 328.108 438.753 328.108C440.085 328.108 441.111 327.604 441.831 326.578C441.831 327.046 441.975 327.406 442.227 327.64C442.479 327.892 442.893 328 443.487 328H444.297V326.65ZM441.759 323.806V324.256C441.759 325.048 441.489 325.678 440.985 326.146C440.463 326.614 439.761 326.848 438.861 326.848C438.249 326.848 437.763 326.722 437.403 326.434C437.043 326.164 436.863 325.804 436.863 325.336C436.863 324.328 437.547 323.806 438.915 323.806H441.759ZM446.044 320.17V325.606C446.044 326.434 446.224 327.046 446.584 327.424C446.944 327.82 447.574 328 448.438 328H450.13V326.65H448.528C448.15 326.65 447.88 326.578 447.736 326.416C447.592 326.254 447.52 325.984 447.52 325.588V320.17H449.842V318.82H447.52V316.246H446.044V318.82H444.388V320.17H446.044ZM459.082 318.82H457.606V323.41C457.606 324.454 457.354 325.264 456.886 325.858C456.418 326.47 455.752 326.758 454.924 326.758C454.15 326.758 453.556 326.524 453.142 326.02C452.728 325.516 452.53 324.796 452.53 323.842V318.82H451.054V323.932C451.054 325.372 451.378 326.434 452.044 327.1C452.692 327.784 453.574 328.108 454.672 328.108C455.932 328.108 456.904 327.676 457.606 326.776L457.804 328H459.082V318.82ZM465.756 318.82H465.342C464.586 318.82 464.01 318.946 463.596 319.198C463.164 319.45 462.822 319.792 462.57 320.206L462.372 318.82H461.094V328H462.57V323.32C462.57 322.456 462.75 321.736 463.128 321.142C463.506 320.566 464.136 320.26 465.018 320.26H465.756V318.82ZM466.794 320.944C466.434 321.664 466.254 322.474 466.254 323.41C466.254 324.346 466.434 325.156 466.812 325.876C467.19 326.596 467.73 327.136 468.414 327.532C469.098 327.928 469.89 328.108 470.808 328.108C471.852 328.108 472.734 327.82 473.454 327.226C474.174 326.632 474.624 325.858 474.804 324.922H473.31C473.148 325.516 472.842 325.984 472.374 326.308C471.906 326.632 471.348 326.794 470.7 326.794C469.836 326.794 469.152 326.524 468.63 325.984C468.09 325.444 467.82 324.724 467.802 323.824V323.698H474.93C474.948 323.41 474.966 323.212 474.966 323.068C474.93 322.186 474.732 321.412 474.372 320.746C473.994 320.098 473.49 319.594 472.842 319.234C472.194 318.892 471.438 318.712 470.61 318.712C469.746 318.712 468.99 318.91 468.342 319.306C467.676 319.702 467.154 320.242 466.794 320.944ZM473.436 322.474H467.892C467.964 321.754 468.252 321.16 468.792 320.692C469.314 320.242 469.926 320.008 470.628 320.008C471.402 320.008 472.05 320.224 472.554 320.656C473.058 321.088 473.364 321.7 473.436 322.474ZM485.363 315.4H483.887V320.224C483.581 319.756 483.167 319.396 482.645 319.126C482.105 318.856 481.475 318.712 480.737 318.712C479.891 318.712 479.135 318.91 478.469 319.306C477.785 319.702 477.263 320.26 476.885 320.962C476.507 321.682 476.327 322.492 476.327 323.41C476.327 324.382 476.507 325.228 476.885 325.93C477.263 326.65 477.785 327.19 478.451 327.55C479.117 327.928 479.873 328.108 480.737 328.108C482.069 328.108 483.113 327.586 483.887 326.524L484.085 328H485.363V315.4ZM482.447 326.38C481.979 326.668 481.457 326.794 480.881 326.794C479.963 326.794 479.225 326.488 478.667 325.858C478.109 325.228 477.839 324.418 477.839 323.41C477.839 322.42 478.109 321.61 478.667 320.98C479.225 320.35 479.963 320.026 480.881 320.026C481.457 320.026 481.979 320.17 482.447 320.458C482.915 320.746 483.275 321.16 483.527 321.682C483.779 322.204 483.905 322.798 483.905 323.446C483.905 324.094 483.779 324.688 483.527 325.192C483.275 325.696 482.915 326.092 482.447 326.38Z" fill="#EEEEEE"/>
<rect x="307.5" y="286.5" width="248.934" height="69" rx="34.5" stroke="#151515" stroke-width="5" shape-rendering="crispEdges"/>
</g>
<g filter="url(#filter3_dd_1205_9731)">
<rect x="34" y="181" width="245.934" height="66" rx="33" fill="#0B0B0B" shape-rendering="crispEdges"/>
<path d="M100 203.97H92C88 203.97 86 205.97 86 209.97V214.97C86 219.97 88 220.97 92 220.97H92.5C92.78 220.97 93.14 221.15 93.3 221.37L94.8 223.37C95.46 224.25 96.54 224.25 97.2 223.37L98.7 221.37C98.89 221.12 99.19 220.97 99.5 220.97H100C104 220.97 106 218.97 106 214.97V209.97C106 205.97 104 203.97 100 203.97ZM92.53 214.17C92.82 214.46 92.82 214.94 92.53 215.23C92.38 215.38 92.19 215.45 92 215.45C91.81 215.45 91.62 215.38 91.47 215.23L89.47 213.23C89.18 212.94 89.18 212.46 89.47 212.17L91.47 210.17C91.76 209.88 92.24 209.88 92.53 210.17C92.82 210.46 92.82 210.94 92.53 211.23L91.06 212.7L92.53 214.17ZM97.69 210.66L95.69 215.33C95.57 215.61 95.29 215.78 95 215.78C94.9 215.78 94.8 215.76 94.7 215.72C94.32 215.56 94.14 215.12 94.31 214.73L96.31 210.06C96.47 209.68 96.91 209.5 97.3 209.67C97.68 209.84 97.85 210.28 97.69 210.66ZM102.53 213.23L100.53 215.23C100.38 215.38 100.19 215.45 100 215.45C99.81 215.45 99.62 215.38 99.47 215.23C99.18 214.94 99.18 214.46 99.47 214.17L100.94 212.7L99.47 211.23C99.18 210.94 99.18 210.46 99.47 210.17C99.76 209.88 100.24 209.88 100.53 210.17L102.53 212.17C102.82 212.46 102.82 212.94 102.53 213.23Z" fill="#DFFF16"/>
<path d="M118.434 208.4H116.958V209.912C116.958 210.236 116.868 210.506 116.724 210.704C116.58 210.902 116.364 210.992 116.076 210.992H114.024V212.342H116.058C116.454 212.342 116.742 212.27 116.922 212.108V221H118.434V208.4ZM120.994 208.4V221H122.524V211.064L126.7 221H128.086L132.262 211.064V221H133.792V208.4H131.848L127.438 218.858L122.974 208.4H120.994ZM140.945 208.4V221H144.671C145.967 221 147.083 220.748 148.037 220.226C148.991 219.704 149.729 218.966 150.233 218.012C150.737 217.058 151.007 215.96 151.007 214.7C151.007 213.44 150.737 212.342 150.233 211.388C149.729 210.452 148.991 209.714 148.037 209.192C147.083 208.67 145.967 208.4 144.671 208.4H140.945ZM144.671 219.56H142.511V209.84H144.671C146.183 209.84 147.335 210.29 148.163 211.154C148.991 212.018 149.405 213.206 149.405 214.7C149.405 216.194 148.991 217.382 148.163 218.246C147.335 219.128 146.165 219.56 144.671 219.56ZM152.986 213.944C152.626 214.664 152.446 215.474 152.446 216.41C152.446 217.346 152.626 218.156 153.004 218.876C153.382 219.596 153.922 220.136 154.606 220.532C155.29 220.928 156.082 221.108 157 221.108C158.044 221.108 158.926 220.82 159.646 220.226C160.366 219.632 160.816 218.858 160.996 217.922H159.502C159.34 218.516 159.034 218.984 158.566 219.308C158.098 219.632 157.54 219.794 156.892 219.794C156.028 219.794 155.344 219.524 154.822 218.984C154.282 218.444 154.012 217.724 153.994 216.824V216.698H161.122C161.14 216.41 161.158 216.212 161.158 216.068C161.122 215.186 160.924 214.412 160.564 213.746C160.186 213.098 159.682 212.594 159.034 212.234C158.386 211.892 157.63 211.712 156.802 211.712C155.938 211.712 155.182 211.91 154.534 212.306C153.868 212.702 153.346 213.242 152.986 213.944ZM159.628 215.474H154.084C154.156 214.754 154.444 214.16 154.984 213.692C155.506 213.242 156.118 213.008 156.82 213.008C157.594 213.008 158.242 213.224 158.746 213.656C159.25 214.088 159.556 214.7 159.628 215.474ZM161.572 211.82L165.01 221H166.792L170.23 211.82H168.682L165.928 219.326L163.156 211.82H161.572ZM171.197 213.944C170.837 214.664 170.657 215.474 170.657 216.41C170.657 217.346 170.837 218.156 171.215 218.876C171.593 219.596 172.133 220.136 172.817 220.532C173.501 220.928 174.293 221.108 175.211 221.108C176.255 221.108 177.137 220.82 177.857 220.226C178.577 219.632 179.027 218.858 179.207 217.922H177.713C177.551 218.516 177.245 218.984 176.777 219.308C176.309 219.632 175.751 219.794 175.103 219.794C174.239 219.794 173.555 219.524 173.033 218.984C172.493 218.444 172.223 217.724 172.205 216.824V216.698H179.333C179.351 216.41 179.369 216.212 179.369 216.068C179.333 215.186 179.135 214.412 178.775 213.746C178.397 213.098 177.893 212.594 177.245 212.234C176.597 211.892 175.841 211.712 175.013 211.712C174.149 211.712 173.393 211.91 172.745 212.306C172.079 212.702 171.557 213.242 171.197 213.944ZM177.839 215.474H172.295C172.367 214.754 172.655 214.16 173.195 213.692C173.717 213.242 174.329 213.008 175.031 213.008C175.805 213.008 176.453 213.224 176.957 213.656C177.461 214.088 177.767 214.7 177.839 215.474ZM181.053 208.4V221H182.529V208.4H181.053ZM186.405 220.514C187.089 220.91 187.881 221.108 188.781 221.108C189.663 221.108 190.455 220.91 191.139 220.514C191.823 220.118 192.363 219.578 192.759 218.858C193.137 218.156 193.335 217.346 193.335 216.41C193.335 215.492 193.137 214.682 192.759 213.962C192.363 213.26 191.823 212.702 191.139 212.306C190.455 211.91 189.663 211.712 188.781 211.712C187.881 211.712 187.089 211.91 186.405 212.306C185.721 212.702 185.181 213.26 184.803 213.962C184.407 214.682 184.227 215.492 184.227 216.41C184.227 217.346 184.407 218.156 184.803 218.858C185.181 219.578 185.721 220.118 186.405 220.514ZM190.365 219.362C189.897 219.65 189.375 219.794 188.781 219.794C188.169 219.794 187.647 219.65 187.179 219.362C186.711 219.074 186.369 218.678 186.117 218.156C185.865 217.652 185.739 217.058 185.739 216.41C185.739 215.762 185.865 215.186 186.117 214.664C186.369 214.16 186.711 213.746 187.179 213.458C187.647 213.17 188.169 213.026 188.781 213.026C189.375 213.026 189.897 213.17 190.365 213.458C190.833 213.746 191.193 214.16 191.445 214.664C191.697 215.186 191.823 215.762 191.823 216.41C191.823 217.058 191.697 217.652 191.445 218.156C191.193 218.678 190.833 219.074 190.365 219.362ZM201.922 212.27C201.256 211.91 200.5 211.712 199.654 211.712C198.322 211.712 197.26 212.252 196.504 213.296L196.306 211.82H195.028V224.6H196.504V219.596C196.792 220.064 197.206 220.442 197.746 220.712C198.268 220.982 198.898 221.108 199.654 221.108C200.482 221.108 201.238 220.91 201.922 220.514C202.588 220.118 203.11 219.578 203.488 218.858C203.866 218.156 204.064 217.346 204.064 216.41C204.064 215.438 203.866 214.61 203.488 213.89C203.11 213.188 202.588 212.648 201.922 212.27ZM201.706 218.858C201.148 219.488 200.41 219.794 199.51 219.794C198.916 219.794 198.394 219.65 197.926 219.362C197.458 219.074 197.116 218.678 196.864 218.156C196.612 217.634 196.486 217.04 196.486 216.374C196.486 215.726 196.612 215.15 196.864 214.646C197.116 214.142 197.458 213.746 197.926 213.458C198.394 213.17 198.916 213.026 199.51 213.026C200.41 213.026 201.148 213.35 201.706 213.98C202.264 214.61 202.552 215.42 202.552 216.41C202.552 217.418 202.264 218.228 201.706 218.858ZM205.966 213.944C205.606 214.664 205.426 215.474 205.426 216.41C205.426 217.346 205.606 218.156 205.984 218.876C206.362 219.596 206.902 220.136 207.586 220.532C208.27 220.928 209.062 221.108 209.98 221.108C211.024 221.108 211.906 220.82 212.626 220.226C213.346 219.632 213.796 218.858 213.976 217.922H212.482C212.32 218.516 212.014 218.984 211.546 219.308C211.078 219.632 210.52 219.794 209.872 219.794C209.008 219.794 208.324 219.524 207.802 218.984C207.262 218.444 206.992 217.724 206.974 216.824V216.698H214.102C214.12 216.41 214.138 216.212 214.138 216.068C214.102 215.186 213.904 214.412 213.544 213.746C213.166 213.098 212.662 212.594 212.014 212.234C211.366 211.892 210.61 211.712 209.782 211.712C208.918 211.712 208.162 211.91 207.514 212.306C206.848 212.702 206.326 213.242 205.966 213.944ZM212.608 215.474H207.064C207.136 214.754 207.424 214.16 207.964 213.692C208.486 213.242 209.098 213.008 209.8 213.008C210.574 213.008 211.222 213.224 211.726 213.656C212.23 214.088 212.536 214.7 212.608 215.474ZM220.484 211.82H220.07C219.314 211.82 218.738 211.946 218.324 212.198C217.892 212.45 217.55 212.792 217.298 213.206L217.1 211.82H215.822V221H217.298V216.32C217.298 215.456 217.478 214.736 217.856 214.142C218.234 213.566 218.864 213.26 219.746 213.26H220.484V211.82ZM222.652 217.976H221.176C221.176 218.966 221.554 219.74 222.274 220.28C222.994 220.838 223.966 221.108 225.172 221.108C225.838 221.108 226.45 221 227.008 220.766C227.548 220.55 227.998 220.226 228.322 219.794C228.646 219.38 228.808 218.894 228.808 218.336C228.808 217.706 228.646 217.202 228.322 216.824C227.998 216.464 227.584 216.194 227.062 216.014C226.54 215.852 225.874 215.726 225.082 215.618C224.506 215.546 224.074 215.492 223.786 215.42C223.498 215.366 223.282 215.258 223.102 215.078C222.922 214.916 222.832 214.682 222.832 214.358C222.832 213.944 223.012 213.602 223.408 213.35C223.786 213.098 224.29 212.954 224.92 212.954C225.532 212.954 226.036 213.116 226.45 213.422C226.846 213.746 227.08 214.142 227.152 214.61H228.628C228.556 213.674 228.178 212.954 227.494 212.45C226.81 211.946 225.946 211.694 224.866 211.694C224.2 211.694 223.606 211.82 223.084 212.054C222.544 212.288 222.13 212.612 221.824 213.026C221.518 213.458 221.374 213.926 221.374 214.466C221.374 215.078 221.518 215.546 221.842 215.888C222.148 216.23 222.562 216.482 223.066 216.626C223.57 216.788 224.218 216.914 225.01 217.004C225.568 217.076 226 217.148 226.306 217.22C226.612 217.292 226.864 217.436 227.062 217.616C227.242 217.814 227.35 218.084 227.35 218.444C227.35 218.876 227.134 219.218 226.738 219.47C226.342 219.722 225.82 219.848 225.172 219.848C224.434 219.848 223.84 219.686 223.372 219.326C222.904 218.984 222.67 218.534 222.652 217.976Z" fill="#EEEEEE"/>
<rect x="36.5" y="183.5" width="240.934" height="61" rx="30.5" stroke="#151515" stroke-width="5" shape-rendering="crispEdges"/>
</g>
<defs>
<filter id="filter0_d_1205_9731" x="118.418" y="45.6157" width="384.068" height="378.224" filterUnits="userSpaceOnUse" color-interpolation-filters="sRGB">
<feFlood flood-opacity="0" result="BackgroundImageFix"/>
<feColorMatrix in="SourceAlpha" type="matrix" values="0 0 0 0 0 0 0 0 0 0 0 0 0 0 0 0 0 0 127 0" result="hardAlpha"/>
<feOffset dy="4"/>
<feGaussianBlur stdDeviation="10.5"/>
<feComposite in2="hardAlpha" operator="out"/>
<feColorMatrix type="matrix" values="0 0 0 0 1 0 0 0 0 0.741177 0 0 0 0 0.266667 0 0 0 0.13 0"/>
<feBlend mode="normal" in2="BackgroundImageFix" result="effect1_dropShadow_1205_9731"/>
<feBlend mode="normal" in="SourceGraphic" in2="effect1_dropShadow_1205_9731" result="shape"/>
</filter>
<filter id="filter1_dd_1205_9731" x="268" y="73.873" width="321.934" height="145.127" filterUnits="userSpaceOnUse" color-interpolation-filters="sRGB">
<feFlood flood-opacity="0" result="BackgroundImageFix"/>
<feColorMatrix in="SourceAlpha" type="matrix" values="0 0 0 0 0 0 0 0 0 0 0 0 0 0 0 0 0 0 127 0" result="hardAlpha"/>
<feOffset dy="6.67612"/>
<feGaussianBlur stdDeviation="8.9015"/>
<feComposite in2="hardAlpha" operator="out"/>
<feColorMatrix type="matrix" values="0 0 0 0 0 0 0 0 0 0 0 0 0 0 0 0 0 0 0.1 0"/>
<feBlend mode="normal" in2="BackgroundImageFix" result="effect1_dropShadow_1205_9731"/>
<feColorMatrix in="SourceAlpha" type="matrix" values="0 0 0 0 0 0 0 0 0 0 0 0 0 0 0 0 0 0 127 0" result="hardAlpha"/>
<feOffset dy="26"/>
<feGaussianBlur stdDeviation="17"/>
<feComposite in2="hardAlpha" operator="out"/>
<feColorMatrix type="matrix" values="0 0 0 0 0 0 0 0 0 0 0 0 0 0 0 0 0 0 0.16 0"/>
<feBlend mode="normal" in2="effect1_dropShadow_1205_9731" result="effect2_dropShadow_1205_9731"/>
<feBlend mode="normal" in="SourceGraphic" in2="effect2_dropShadow_1205_9731" result="shape"/>
</filter>
<filter id="filter2_d_1205_9731" x="271" y="276" width="321.934" height="142" filterUnits="userSpaceOnUse" color-interpolation-filters="sRGB">
<feFlood flood-opacity="0" result="BackgroundImageFix"/>
<feColorMatrix in="SourceAlpha" type="matrix" values="0 0 0 0 0 0 0 0 0 0 0 0 0 0 0 0 0 0 127 0" result="hardAlpha"/>
<feOffset dy="26"/>
<feGaussianBlur stdDeviation="17"/>
<feComposite in2="hardAlpha" operator="out"/>
<feColorMatrix type="matrix" values="0 0 0 0 0 0 0 0 0 0 0 0 0 0 0 0 0 0 0.16 0"/>
<feBlend mode="normal" in2="BackgroundImageFix" result="effect1_dropShadow_1205_9731"/>
<feBlend mode="normal" in="SourceGraphic" in2="effect1_dropShadow_1205_9731" result="shape"/>
</filter>
<filter id="filter3_dd_1205_9731" x="0" y="169.873" width="313.934" height="137.127" filterUnits="userSpaceOnUse" color-interpolation-filters="sRGB">
<feFlood flood-opacity="0" result="BackgroundImageFix"/>
<feColorMatrix in="SourceAlpha" type="matrix" values="0 0 0 0 0 0 0 0 0 0 0 0 0 0 0 0 0 0 127 0" result="hardAlpha"/>
<feOffset dy="6.67612"/>
<feGaussianBlur stdDeviation="8.9015"/>
<feComposite in2="hardAlpha" operator="out"/>
<feColorMatrix type="matrix" values="0 0 0 0 0 0 0 0 0 0 0 0 0 0 0 0 0 0 0.1 0"/>
<feBlend mode="normal" in2="BackgroundImageFix" result="effect1_dropShadow_1205_9731"/>
<feColorMatrix in="SourceAlpha" type="matrix" values="0 0 0 0 0 0 0 0 0 0 0 0 0 0 0 0 0 0 127 0" result="hardAlpha"/>
<feOffset dy="26"/>
<feGaussianBlur stdDeviation="17"/>
<feComposite in2="hardAlpha" operator="out"/>
<feColorMatrix type="matrix" values="0 0 0 0 0 0 0 0 0 0 0 0 0 0 0 0 0 0 0.16 0"/>
<feBlend mode="normal" in2="effect1_dropShadow_1205_9731" result="effect2_dropShadow_1205_9731"/>
<feBlend mode="normal" in="SourceGraphic" in2="effect2_dropShadow_1205_9731" result="shape"/>
</filter>
<clipPath id="clip0_1205_9731">
<rect width="385.061" height="385.061" fill="white" transform="translate(75 88.5258) rotate(-13.2913)"/>
</clipPath>
</defs>
</svg>
