<svg width="101" height="100" viewBox="0 0 101 100" fill="none" xmlns="http://www.w3.org/2000/svg">
<path d="M55.9167 23.436L61.4167 34.436C62.1667 35.936 64.1667 37.436 65.8334 37.686L75.7917 39.3526C82.1667 40.436 83.6667 45.0193 79.0834 49.6026L71.3334 57.3943C70.0417 58.686 69.2917 61.2276 69.7084 63.061L71.9167 72.686C73.6667 80.2693 69.6251 83.2276 62.9167 79.2693L53.5834 73.7276C51.8751 72.7276 49.1251 72.7276 47.4167 73.7276L38.0417 79.2276C31.3334 83.186 27.2917 80.2276 29.0417 72.6443L31.2501 63.0193C31.6667 61.2276 30.9167 58.686 29.6251 57.3526L21.9167 49.6443C17.3334 45.061 18.8334 40.436 25.2084 39.3943L35.1667 37.7276C36.8334 37.436 38.8334 35.9776 39.5834 34.4776L45.0834 23.4776C48.0417 17.4776 52.9584 17.4776 55.9167 23.436Z" fill="#F2B925"/>
<g filter="url(#filter0_bii_1045_7091)">
<path d="M96.3333 51.666C96.3333 63.6007 91.5484 75.0466 83.0311 83.4858C74.5138 91.9249 62.9619 96.666 50.9167 96.666C38.8714 96.666 27.3195 91.9249 18.8022 83.4858C10.285 75.0466 5.5 63.6007 5.5 51.666L50.9167 51.666H96.3333Z" fill="white" fill-opacity="0.1"/>
</g>
<defs>
<filter id="filter0_bii_1045_7091" x="-1.16667" y="44.9993" width="104.167" height="59.1667" filterUnits="userSpaceOnUse" color-interpolation-filters="sRGB">
<feFlood flood-opacity="0" result="BackgroundImageFix"/>
<feGaussianBlur in="BackgroundImageFix" stdDeviation="3.33333"/>
<feComposite in2="SourceAlpha" operator="in" result="effect1_backgroundBlur_1045_7091"/>
<feBlend mode="normal" in="SourceGraphic" in2="effect1_backgroundBlur_1045_7091" result="shape"/>
<feColorMatrix in="SourceAlpha" type="matrix" values="0 0 0 0 0 0 0 0 0 0 0 0 0 0 0 0 0 0 127 0" result="hardAlpha"/>
<feOffset dy="7.5"/>
<feGaussianBlur stdDeviation="5"/>
<feComposite in2="hardAlpha" operator="arithmetic" k2="-1" k3="1"/>
<feColorMatrix type="matrix" values="0 0 0 0 0 0 0 0 0 0 0 0 0 0 0 0 0 0 0.25 0"/>
<feBlend mode="normal" in2="shape" result="effect2_innerShadow_1045_7091"/>
<feColorMatrix in="SourceAlpha" type="matrix" values="0 0 0 0 0 0 0 0 0 0 0 0 0 0 0 0 0 0 127 0" result="hardAlpha"/>
<feOffset dy="-4.16667"/>
<feGaussianBlur stdDeviation="8.75"/>
<feComposite in2="hardAlpha" operator="arithmetic" k2="-1" k3="1"/>
<feColorMatrix type="matrix" values="0 0 0 0 0 0 0 0 0 0 0 0 0 0 0 0 0 0 0.25 0"/>
<feBlend mode="normal" in2="effect2_innerShadow_1045_7091" result="effect3_innerShadow_1045_7091"/>
</filter>
</defs>
</svg>
