<svg width="24" height="24" viewBox="0 0 24 24" fill="none" xmlns="http://www.w3.org/2000/svg">
<mask id="mask0_23_5655" style="mask-type:alpha" maskUnits="userSpaceOnUse" x="0" y="0" width="24" height="24">
<rect width="24" height="24" fill="#D9D9D9"/>
</mask>
<g mask="url(#mask0_23_5655)">
<path d="M4.05 11H6.9C6.8 10.3667 6.60833 9.775 6.325 9.225C6.04167 8.675 5.68333 8.18333 5.25 7.75C4.95 8.23333 4.696 8.74567 4.488 9.287C4.27933 9.829 4.13333 10.4 4.05 11ZM17.1 11H19.95C19.8667 10.4 19.721 9.829 19.513 9.287C19.3043 8.74567 19.05 8.23333 18.75 7.75C18.3167 8.18333 17.9583 8.675 17.675 9.225C17.3917 9.775 17.2 10.3667 17.1 11ZM5.25 16.25C5.68333 15.8167 6.04167 15.325 6.325 14.775C6.60833 14.225 6.8 13.6333 6.9 13H4.05C4.13333 13.6 4.27933 14.1707 4.488 14.712C4.696 15.254 4.95 15.7667 5.25 16.25ZM18.75 16.25C19.05 15.7667 19.3043 15.254 19.513 14.712C19.721 14.1707 19.8667 13.6 19.95 13H17.1C17.2 13.6333 17.3917 14.225 17.675 14.775C17.9583 15.325 18.3167 15.8167 18.75 16.25ZM8.95 11H11V4.05C10.1167 4.18333 9.296 4.429 8.538 4.787C7.77933 5.14567 7.1 5.61667 6.5 6.2C7.15 6.83333 7.68767 7.554 8.113 8.362C8.53767 9.17067 8.81667 10.05 8.95 11ZM13 11H15.05C15.1833 10.05 15.4627 9.17067 15.888 8.362C16.3127 7.554 16.85 6.83333 17.5 6.2C16.9 5.61667 16.221 5.14567 15.463 4.787C14.7043 4.429 13.8833 4.18333 13 4.05V11ZM11 19.95V13H8.95C8.81667 13.95 8.53767 14.829 8.113 15.637C7.68767 16.4457 7.15 17.1667 6.5 17.8C7.1 18.3833 7.77933 18.854 8.538 19.212C9.296 19.5707 10.1167 19.8167 11 19.95ZM13 19.95C13.8833 19.8167 14.7043 19.5707 15.463 19.212C16.221 18.854 16.9 18.3833 17.5 17.8C16.85 17.1667 16.3127 16.4457 15.888 15.637C15.4627 14.829 15.1833 13.95 15.05 13H13V19.95ZM12 22C10.6167 22 9.31667 21.7373 8.1 21.212C6.88333 20.6873 5.825 19.975 4.925 19.075C4.025 18.175 3.31267 17.1167 2.788 15.9C2.26267 14.6833 2 13.3833 2 12C2 10.6167 2.26267 9.31667 2.788 8.1C3.31267 6.88333 4.025 5.825 4.925 4.925C5.825 4.025 6.88333 3.31233 8.1 2.787C9.31667 2.26233 10.6167 2 12 2C13.3833 2 14.6833 2.26233 15.9 2.787C17.1167 3.31233 18.175 4.025 19.075 4.925C19.975 5.825 20.6873 6.88333 21.212 8.1C21.7373 9.31667 22 10.6167 22 12C22 13.3833 21.7373 14.6833 21.212 15.9C20.6873 17.1167 19.975 18.175 19.075 19.075C18.175 19.975 17.1167 20.6873 15.9 21.212C14.6833 21.7373 13.3833 22 12 22Z" fill="#6A6A6A"/>
</g>
</svg>
