<svg width="334" height="334" viewBox="0 0 334 334" fill="none" xmlns="http://www.w3.org/2000/svg">
<path d="M15.5 15H318.5M15.5 31H318.5M15.5 47H318.5M15.5 63H318.5M15.5 79H318.5M15.5 95H318.5M15.5 111H318.5M15.5 127H318.5M15.5 143H318.5M15.5 159H318.5M15.5 175H318.5M15.5 191H318.5M15.5 207H318.5M15.5 223H318.5M15.5 239H318.5M15.5 255H318.5M15.5 271H318.5M15.5 287H318.5M15.5 303H318.5M15.5 319H318.5M15 318.5L15 15.5M31 318.5L31 15.5M47 318.5L47 15.5M63 318.5L63 15.5M79 318.5L79 15.5M95 318.5L95 15.5M111 318.5L111 15.5M127 318.5L127 15.5M143 318.5L143 15.5M159 318.5L159 15.5M175 318.5L175 15.5M191 318.5L191 15.5M207 318.5L207 15.5M223 318.5L223 15.5M239 318.5L239 15.5M255 318.5L255 15.5M271 318.5V15.5M287 318.5V15.5M303 318.5V15.5M319 318.5V15.5" stroke="url(#paint0_radial_1439_16474)"/>
<mask id="mask0_1439_16474" style="mask-type:alpha" maskUnits="userSpaceOnUse" x="167" y="8" width="24" height="24">
<rect x="167" y="8" width="24" height="24" fill="#D9D9D9"/>
</mask>
<g mask="url(#mask0_1439_16474)">
<path d="M182 28V26H185V14H182V12H187V28H182ZM171 28V12H176V14H173V26H176V28H171Z" fill="url(#paint1_linear_1439_16474)"/>
</g>
<defs>
<radialGradient id="paint0_radial_1439_16474" cx="0" cy="0" r="1" gradientUnits="userSpaceOnUse" gradientTransform="translate(167 167) rotate(90) scale(152)">
<stop stop-color="white" stop-opacity="0.12"/>
<stop offset="1" stop-color="white" stop-opacity="0"/>
</radialGradient>
<linearGradient id="paint1_linear_1439_16474" x1="179" y1="12" x2="179" y2="28" gradientUnits="userSpaceOnUse">
<stop stop-color="#727272"/>
<stop offset="1" stop-color="#727272" stop-opacity="0"/>
</linearGradient>
</defs>
</svg>
