<svg width="24" height="24" viewBox="0 0 24 24" fill="none" xmlns="http://www.w3.org/2000/svg">
<mask id="mask0_1463_16639" style="mask-type:alpha" maskUnits="userSpaceOnUse" x="0" y="0" width="24" height="24">
<rect width="24" height="24" fill="#D9D9D9"/>
</mask>
<g mask="url(#mask0_1463_16639)">
<path d="M22 10L21.375 8.625L20 8L21.375 7.375L22 6L22.625 7.375L24 8L22.625 8.625L22 10ZM19 6L18.05 3.95L16 3L18.05 2.05L19 0L19.95 2.05L22 3L19.95 3.95L19 6ZM9 22C8.45 22 7.97917 21.8042 7.5875 21.4125C7.19583 21.0208 7 20.55 7 20H11C11 20.55 10.8042 21.0208 10.4125 21.4125C10.0208 21.8042 9.55 22 9 22ZM5 19V17H13V19H5ZM5.25 16C4.1 15.3167 3.1875 14.4 2.5125 13.25C1.8375 12.1 1.5 10.85 1.5 9.5C1.5 7.41667 2.22917 5.64583 3.6875 4.1875C5.14583 2.72917 6.91667 2 9 2C11.0833 2 12.8542 2.72917 14.3125 4.1875C15.7708 5.64583 16.5 7.41667 16.5 9.5C16.5 10.85 16.1625 12.1 15.4875 13.25C14.8125 14.4 13.9 15.3167 12.75 16H5.25ZM5.85 14H12.15C12.9 13.4667 13.4792 12.8083 13.8875 12.025C14.2958 11.2417 14.5 10.4 14.5 9.5C14.5 7.96667 13.9667 6.66667 12.9 5.6C11.8333 4.53333 10.5333 4 9 4C7.46667 4 6.16667 4.53333 5.1 5.6C4.03333 6.66667 3.5 7.96667 3.5 9.5C3.5 10.4 3.70417 11.2417 4.1125 12.025C4.52083 12.8083 5.1 13.4667 5.85 14Z" fill="#D1F225"/>
</g>
</svg>
