<svg width="32" height="32" viewBox="0 0 32 32" fill="none" xmlns="http://www.w3.org/2000/svg">
<path d="M22.2667 26.3068H9.73341C8.74674 26.3068 7.74674 25.6001 7.41341 24.6801L1.89341 9.2268C1.21341 7.28014 1.70674 6.3868 2.24008 5.9868C2.77341 5.5868 3.77341 5.3468 5.45341 6.5468L10.6534 10.2668C10.8134 10.3601 10.9601 10.4001 11.0667 10.3735C11.1867 10.3335 11.2801 10.2268 11.3467 10.0401L13.6934 3.7868C14.4001 1.92014 15.4401 1.64014 16.0001 1.64014C16.5601 1.64014 17.6001 1.92014 18.3067 3.7868L20.6534 10.0401C20.7201 10.2135 20.8134 10.3335 20.9334 10.3735C21.0534 10.4135 21.2001 10.3735 21.3467 10.2535L26.2267 6.77347C28.0134 5.49347 29.0534 5.7468 29.6267 6.16014C30.1867 6.5868 30.7067 7.53347 29.9734 9.60014L24.5867 24.6801C24.2534 25.6001 23.2534 26.3068 22.2667 26.3068ZM3.57341 7.7468C3.60008 7.93347 3.65341 8.20014 3.78674 8.5468L9.30674 24.0001C9.36008 24.1335 9.60008 24.3068 9.73341 24.3068H22.2667C22.4134 24.3068 22.6534 24.1335 22.6934 24.0001L28.0801 8.93347C28.2667 8.4268 28.3201 8.08014 28.3334 7.88014C28.1334 7.9468 27.8267 8.09347 27.3867 8.41347L22.5067 11.8935C21.8401 12.3601 21.0534 12.5068 20.3467 12.2935C19.6401 12.0801 19.0667 11.5201 18.7734 10.7601L16.4267 4.5068C16.2534 4.04014 16.0934 3.81347 16.0001 3.7068C15.9067 3.81347 15.7467 4.04014 15.5734 4.49347L13.2267 10.7468C12.9467 11.5068 12.3734 12.0668 11.6534 12.2801C10.9467 12.4935 10.1467 12.3468 9.49341 11.8801L4.29341 8.16014C3.98674 7.9468 3.74674 7.81347 3.57341 7.7468Z" fill="#151515"/>
<path d="M23.3334 30.3335H8.66675C8.12008 30.3335 7.66675 29.8802 7.66675 29.3335C7.66675 28.7868 8.12008 28.3335 8.66675 28.3335H23.3334C23.8801 28.3335 24.3334 28.7868 24.3334 29.3335C24.3334 29.8802 23.8801 30.3335 23.3334 30.3335Z" fill="#151515"/>
<path d="M19.3334 19.6665H12.6667C12.1201 19.6665 11.6667 19.2132 11.6667 18.6665C11.6667 18.1198 12.1201 17.6665 12.6667 17.6665H19.3334C19.8801 17.6665 20.3334 18.1198 20.3334 18.6665C20.3334 19.2132 19.8801 19.6665 19.3334 19.6665Z" fill="#151515"/>
</svg>
