<svg width="25" height="25" viewBox="0 0 25 25" fill="none" xmlns="http://www.w3.org/2000/svg">
<mask id="mask0_234_3869" style="mask-type:alpha" maskUnits="userSpaceOnUse" x="0" y="0" width="25" height="25">
<rect x="0.901367" y="0.581543" width="24" height="24" fill="#D9D9D9"/>
</mask>
<g mask="url(#mask0_234_3869)">
<path d="M12.9014 12.5815C11.8014 12.5815 10.8597 12.1899 10.0764 11.4065C9.29303 10.6232 8.90137 9.68154 8.90137 8.58154C8.90137 7.48154 9.29303 6.53988 10.0764 5.75654C10.8597 4.97321 11.8014 4.58154 12.9014 4.58154C14.0014 4.58154 14.943 4.97321 15.7264 5.75654C16.5097 6.53988 16.9014 7.48154 16.9014 8.58154C16.9014 9.68154 16.5097 10.6232 15.7264 11.4065C14.943 12.1899 14.0014 12.5815 12.9014 12.5815ZM4.90137 20.5815V17.7815C4.90137 17.2149 5.04737 16.6939 5.33937 16.2185C5.6307 15.7439 6.01803 15.3815 6.50137 15.1315C7.5347 14.6149 8.5847 14.2272 9.65137 13.9685C10.718 13.7105 11.8014 13.5815 12.9014 13.5815C14.0014 13.5815 15.0847 13.7105 16.1514 13.9685C17.218 14.2272 18.268 14.6149 19.3014 15.1315C19.7847 15.3815 20.172 15.7439 20.4634 16.2185C20.7554 16.6939 20.9014 17.2149 20.9014 17.7815V20.5815H4.90137ZM6.90137 18.5815H18.9014V17.7815C18.9014 17.5982 18.8557 17.4315 18.7644 17.2815C18.6724 17.1315 18.5514 17.0149 18.4014 16.9315C17.5014 16.4815 16.593 16.1439 15.6764 15.9185C14.7597 15.6939 13.8347 15.5815 12.9014 15.5815C11.968 15.5815 11.043 15.6939 10.1264 15.9185C9.2097 16.1439 8.30137 16.4815 7.40137 16.9315C7.25137 17.0149 7.1307 17.1315 7.03937 17.2815C6.94737 17.4315 6.90137 17.5982 6.90137 17.7815V18.5815ZM12.9014 10.5815C13.4514 10.5815 13.9224 10.3855 14.3144 9.99354C14.7057 9.60221 14.9014 9.13154 14.9014 8.58154C14.9014 8.03154 14.7057 7.56088 14.3144 7.16954C13.9224 6.77754 13.4514 6.58154 12.9014 6.58154C12.3514 6.58154 11.8807 6.77754 11.4894 7.16954C11.0974 7.56088 10.9014 8.03154 10.9014 8.58154C10.9014 9.13154 11.0974 9.60221 11.4894 9.99354C11.8807 10.3855 12.3514 10.5815 12.9014 10.5815Z" fill="#D1F225"/>
</g>
</svg>
